{
classes = (
{
code = "zero one two three four five six seven eight nine";
name = FIGURES;
},
{
code = "zero.tf one.tf two.tf three.tf four.tf five.tf six.tf seven.tf eight.tf nine.tf";
name = FIGURES_TF;
}
);
copyright = "(c) 1997 Pushpananda Ekanayake(http://isiwara.lk), 2013 Path Nirvana(http://pathnirvana.org/), 2014 mooniak(mooniak.com). All Rights Reserved.";
customParameters = (
{
name = description;
value = "Pushpananda Ekanayake and mooniak";
},
{
name = license;
value = "Licensed under OFL";
},
{
name = licenseURL;
value = "http://www.apache.org/licenses/LICENSE-2.0";
},
{
name = vendorID;
value = "MS  ";
},
{
name = glyphOrder;
value = (
    ".notdef",
    uni0000,
    uni000D,
    space,
    exclaim,
    percentage,
    apostrophe,
    parenleft,
    parenright,
    asterisk,
    plus,
    comma,
    "short_dash1",
    dot,
    slash,
    zero,
    one,
    two,
    three,
    four,
    five,
    six,
    seven,
    eight,
    nine,
    colon,
    semicolon,
    equals,
    question,
    braceleft,
    braceright,
    "next_page",
    multiply,
    divide,
    "top_white_circle",
    anusvara,
    visarga,
    "si_A",
    "si_Aa",
    "si_Ae",
    "si_Aee",
    "si_I",
    "si_Ii",
    "si_U",
    "si_Uu",
    "si_vocalicR",
    "si_vocalicRr",
    "si_vocalicU",
    "si_vocalicUu",
    "si_E",
    "si_Ee",
    "si_Ei",
    "si_O",
    "si_Oo",
    "si_Ou",
    "si_Ka",
    "si_Kha",
    "si_Ga",
    "si_Gha",
    "si_Nga",
    "si_Nnga",
    "si_Ca",
    "si_Cha",
    "si_Ja",
    "si_Jha",
    "si_Nya",
    "si_Jnya",
    "si_Ndja",
    "si_Tta",
    "si_Ttha",
    "si_Dda",
    "si_Ddha",
    "si_Nna",
    "si_Ndda",
    "si_Ta",
    "si_Tha",
    "si_Da",
    "si_Dha",
    "si_Na",
    "si_Nda",
    "si_Pa",
    "si_Pha",
    "si_Ba",
    "si_Bha",
    "si_Ma",
    "si_Mba",
    "si_Ya",
    "si_Ra",
    "si_La",
    "si_Va",
    "si_Sha",
    "si_Ssa",
    "si_Sa",
    "si_Ha",
    "si_Lla",
    "si_Fa",
    "si_Halant",
    "si_MatraAa",

glyphs = (
{
color = 1;
glyphname = parenleft;
lastChange = "2015-07-22 13:23:02 +0000";
layers = (
{
layerId = "C18F3EFD-FA9C-4751-AD2F-5B966120D1A5";
name = Regular;
paths = (
{
closed = 1;
nodes = (
"312 650 LINE",
"138 603 OFFCURVE",
"50 424 OFFCURVE",
"50 246 CURVE SMOOTH",
"50 71 OFFCURVE",
"135 -103 OFFCURVE",
"309 -150 CURVE",
"319 -125 LINE",
"196 -80 OFFCURVE",
"130 84 OFFCURVE",
"130 248 CURVE SMOOTH",
"130 413 OFFCURVE",
"198 579 OFFCURVE",
"321 625 CURVE"
);
}
);
width = 336;
},
{
background = {
paths = (
{
closed = 1;
nodes = (
"312 650 LINE",
"138 603 OFFCURVE",
"50 424 OFFCURVE",
"50 246 CURVE SMOOTH",
"50 71 OFFCURVE",
"135 -103 OFFCURVE",
"309 -150 CURVE",
"319 -125 LINE",
"196 -80 OFFCURVE",
"135 84 OFFCURVE",
"135 248 CURVE SMOOTH",
"135 413 OFFCURVE",
"198 579 OFFCURVE",
"321 625 CURVE"
);
}
);
};
layerId = "AA78C373-A874-4B43-A7A1-B39102DDD1E4";
name = Bold;
paths = (
{
closed = 1;
nodes = (
"312 650 LINE",
"138 603 OFFCURVE",
"50 424 OFFCURVE",
"50 246 CURVE SMOOTH",
"50 71 OFFCURVE",
"135 -103 OFFCURVE",
"309 -150 CURVE",
"319 -122 LINE",
"196 -77 OFFCURVE",
"181 84 OFFCURVE",
"181 248 CURVE SMOOTH",
"181 413 OFFCURVE",
"198 576 OFFCURVE",
"321 622 CURVE"
);
}
);
width = 336;
}
);
unicode = 0028;
},
{
color = 1;
glyphname = parenright;
lastChange = "2015-08-26 04:29:56 +0000";
layers = (
{
background = {
paths = (
{
closed = 1;
nodes = (
"334 267 OFFCURVE",
"334 264 OFFCURVE",
"334 259 CURVE SMOOTH",
"334 254 OFFCURVE",
"334 251 OFFCURVE",
"334 248 CURVE SMOOTH",
"331 91 OFFCURVE",
"264 -33 OFFCURVE",
"135 -122 CURVE",
"135 -111 LINE",
"234 5 OFFCURVE",
"273 117 OFFCURVE",
"273 257 CURVE SMOOTH",
"273 263 LINE SMOOTH",
"273 265 OFFCURVE",
"273 267 OFFCURVE",
"273 269 CURVE SMOOTH",
"273 401 OFFCURVE",
"231 498 OFFCURVE",
"134 618 CURVE",
"134 627 LINE",
"267 531 OFFCURVE",
"334 412 OFFCURVE",
"334 270 CURVE SMOOTH"
);
}
);
};
components = (
{
name = parenleft;
transform = "{-1, 0, 0, 1, 338, 0}";
}
);
layerId = "C18F3EFD-FA9C-4751-AD2F-5B966120D1A5";
name = Regular;
width = 338;
},
{
components = (
{
name = parenleft;
transform = "{-1, 0, 0, 1, 336, 0}";
}
);
layerId = "AA78C373-A874-4B43-A7A1-B39102DDD1E4";
name = Bold;
width = 336;
}
);
unicode = 0029;
},
{
color = 1;
glyphname = asterisk;
lastChange = "2015-08-09 21:14:40 +0000";
layers = (
{
background = {
paths = (
{
closed = 1;
nodes = (
"202 636 OFFCURVE",
"190 650 OFFCURVE",
"167 650 CURVE SMOOTH",
"145 650 OFFCURVE",
"131 637 OFFCURVE",
"131 617 CURVE SMOOTH",
"131 591 OFFCURVE",
"156 544 OFFCURVE",
"159 487 CURVE",
"174 487 LINE",
"177 542 OFFCURVE",
"202 591 OFFCURVE",
"202 618 CURVE SMOOTH"
);
},
{
closed = 1;
nodes = (
"131 341 OFFCURVE",
"143 327 OFFCURVE",
"166 327 CURVE SMOOTH",
"188 327 OFFCURVE",
"202 340 OFFCURVE",
"202 360 CURVE SMOOTH",
"202 386 OFFCURVE",
"177 433 OFFCURVE",
"174 490 CURVE",
"159 490 LINE",
"156 435 OFFCURVE",
"131 386 OFFCURVE",
"131 359 CURVE SMOOTH"
);
},
{
closed = 1;
nodes = (
"312 532 OFFCURVE",
"318 549 OFFCURVE",
"307 569 CURVE SMOOTH",
"296 588 OFFCURVE",
"277 593 OFFCURVE",
"260 583 CURVE SMOOTH",
"238 570 OFFCURVE",
"209 525 OFFCURVE",
"161 494 CURVE",
"169 481 LINE",
"218 506 OFFCURVE",
"273 509 OFFCURVE",
"296 523 CURVE SMOOTH"
);
},
{
closed = 1;
nodes = (
"21 445 OFFCURVE",
"15 428 OFFCURVE",
"26 408 CURVE SMOOTH",
"37 389 OFFCURVE",
"56 384 OFFCURVE",
"73 394 CURVE SMOOTH",
"95 407 OFFCURVE",
"124 452 OFFCURVE",
"172 483 CURVE",
"164 496 LINE",
"115 471 OFFCURVE",
"60 468 OFFCURVE",
"37 454 CURVE SMOOTH"
);
},
{
closed = 1;
nodes = (
"277 384 OFFCURVE",
"295 388 OFFCURVE",
"306 407 CURVE SMOOTH",
"317 426 OFFCURVE",
"312 445 OFFCURVE",
"295 455 CURVE SMOOTH",
"273 467 OFFCURVE",
"219 470 OFFCURVE",
"169 496 CURVE",
"161 483 LINE",
"207 453 OFFCURVE",
"238 407 OFFCURVE",
"261 394 CURVE SMOOTH"
);
},
{
closed = 1;
nodes = (
"56 593 OFFCURVE",
"38 589 OFFCURVE",
"27 570 CURVE SMOOTH",
"16 551 OFFCURVE",
"21 532 OFFCURVE",
"38 522 CURVE SMOOTH",
"60 510 OFFCURVE",
"114 507 OFFCURVE",
"164 481 CURVE",
"172 494 LINE",
"126 524 OFFCURVE",
"95 570 OFFCURVE",
"72 583 CURVE SMOOTH"
);
}
);
};
layerId = "C18F3EFD-FA9C-4751-AD2F-5B966120D1A5";
name = Regular;
paths = (
{
closed = 1;
nodes = (
"202 636 OFFCURVE",
"190 650 OFFCURVE",
"167 650 CURVE SMOOTH",
"145 650 OFFCURVE",
"131 637 OFFCURVE",
"131 617 CURVE SMOOTH",
"131 591 OFFCURVE",
"156 544 OFFCURVE",
"159 487 CURVE",
"174 487 LINE",
"177 542 OFFCURVE",
"202 591 OFFCURVE",
"202 618 CURVE SMOOTH"
);
},
{
closed = 1;
nodes = (
"131 341 OFFCURVE",
"143 327 OFFCURVE",
"166 327 CURVE SMOOTH",
"188 327 OFFCURVE",
"202 340 OFFCURVE",
"202 360 CURVE SMOOTH",
"202 386 OFFCURVE",
"177 433 OFFCURVE",
"174 490 CURVE",
"159 490 LINE",
"156 435 OFFCURVE",
"131 386 OFFCURVE",
"131 359 CURVE SMOOTH"
);
},
{
closed = 1;
nodes = (
"306 529 OFFCURVE",
"313 538 OFFCURVE",
"313 549 CURVE SMOOTH",
"313 564 OFFCURVE",
"300 588 OFFCURVE",
"277 588 CURVE SMOOTH",
"244 588 OFFCURVE",
"213 523 OFFCURVE",
"161 494 CURVE",
"169 481 LINE",
"218 506 OFFCURVE",
"273 509 OFFCURVE",
"296 523 CURVE SMOOTH"
);
},
{
closed = 1;
nodes = (
"27 448 OFFCURVE",
"20 439 OFFCURVE",
"20 428 CURVE SMOOTH",
"20 413 OFFCURVE",
"33 389 OFFCURVE",
"56 389 CURVE SMOOTH",
"88 389 OFFCURVE",
"122 455 OFFCURVE",
"172 483 CURVE",
"164 496 LINE",
"115 471 OFFCURVE",
"60 468 OFFCURVE",
"37 454 CURVE SMOOTH"
);
},
{
closed = 1;
nodes = (
"246 389 OFFCURVE",
"278 389 CURVE SMOOTH",
"297 389 OFFCURVE",
"312 409 OFFCURVE",
"312 427 CURVE SMOOTH",
"312 439 OFFCURVE",
"306 449 OFFCURVE",
"295 455 CURVE SMOOTH",
"273 467 OFFCURVE",
"219 470 OFFCURVE",
"169 496 CURVE",
"161 483 LINE",
"206 461 OFFCURVE"
);
},
{
closed = 1;
nodes = (
"88 588 OFFCURVE",
"55 588 CURVE SMOOTH",
"36 588 OFFCURVE",
"21 568 OFFCURVE",
"21 550 CURVE SMOOTH",
"21 538 OFFCURVE",
"27 528 OFFCURVE",
"38 522 CURVE SMOOTH",
"60 510 OFFCURVE",
"114 507 OFFCURVE",
"164 481 CURVE",
"172 494 LINE",
"118 527 OFFCURVE"
);
}
);
width = 333;
},
{
background = {
paths = (
{
closed = 1;
nodes = (
"240 640 OFFCURVE",
"218 650 OFFCURVE",
"194 650 CURVE SMOOTH",
"169 650 OFFCURVE",
"146 639 OFFCURVE",
"146 615 CURVE SMOOTH",
"146 581 OFFCURVE",
"178 538 OFFCURVE",
"187 469 CURVE",
"199 469 LINE",
"208 538 OFFCURVE",
"240 583 OFFCURVE",
"240 616 CURVE SMOOTH"
);
},
{
closed = 1;
nodes = (
"146 315 OFFCURVE",
"168 305 OFFCURVE",
"192 305 CURVE SMOOTH",
"217 305 OFFCURVE",
"240 316 OFFCURVE",
"240 340 CURVE SMOOTH",
"240 374 OFFCURVE",
"208 417 OFFCURVE",
"199 486 CURVE",
"187 486 LINE",
"178 417 OFFCURVE",
"146 372 OFFCURVE",
"146 339 CURVE SMOOTH"
);
},
{
closed = 1;
nodes = (
"240 640 OFFCURVE",
"218 650 OFFCURVE",
"194 650 CURVE SMOOTH",
"169 650 OFFCURVE",
"146 639 OFFCURVE",
"146 615 CURVE SMOOTH",
"146 581 OFFCURVE",
"178 538 OFFCURVE",
"187 469 CURVE",
"199 469 LINE",
"208 538 OFFCURVE",
"240 583 OFFCURVE",
"240 616 CURVE SMOOTH"
);
},
{
closed = 1;
nodes = (
"146 315 OFFCURVE",
"168 305 OFFCURVE",
"192 305 CURVE SMOOTH",
"217 305 OFFCURVE",
"240 316 OFFCURVE",
"240 340 CURVE SMOOTH",
"240 374 OFFCURVE",
"208 417 OFFCURVE",
"199 486 CURVE",
"187 486 LINE",
"178 417 OFFCURVE",
"146 372 OFFCURVE",
"146 339 CURVE SMOOTH"
);
},
{
closed = 1;
nodes = (
"357 518 OFFCURVE",
"355 542 OFFCURVE",
"343 563 CURVE SMOOTH",
"330 585 OFFCURVE",
"309 599 OFFCURVE",
"289 587 CURVE SMOOTH",
"259 570 OFFCURVE",
"238 521 OFFCURVE",
"183 478 CURVE",
"189 468 LINE",
"253 495 OFFCURVE",
"308 490 OFFCURVE",
"336 506 CURVE SMOOTH"
);
},
{
closed = 1;
nodes = (
"29 437 OFFCURVE",
"31 413 OFFCURVE",
"43 392 CURVE SMOOTH",
"56 370 OFFCURVE",
"77 356 OFFCURVE",
"97 368 CURVE SMOOTH",
"127 385 OFFCURVE",
"148 434 OFFCURVE",
"203 477 CURVE",
"197 487 LINE",
"133 460 OFFCURVE",
"78 465 OFFCURVE",
"50 449 CURVE SMOOTH"
);
},
{
closed = 1;
nodes = (
"357 518 OFFCURVE",
"355 542 OFFCURVE",
"343 563 CURVE SMOOTH",
"330 585 OFFCURVE",
"309 599 OFFCURVE",
"289 587 CURVE SMOOTH",
"259 570 OFFCURVE",
"238 521 OFFCURVE",
"183 478 CURVE",
"189 468 LINE",
"253 495 OFFCURVE",
"308 490 OFFCURVE",
"336 506 CURVE SMOOTH"
);
},
{
closed = 1;
nodes = (
"29 437 OFFCURVE",
"31 413 OFFCURVE",
"43 392 CURVE SMOOTH",
"56 370 OFFCURVE",
"77 356 OFFCURVE",
"97 368 CURVE SMOOTH",
"127 385 OFFCURVE",
"148 434 OFFCURVE",
"203 477 CURVE",
"197 487 LINE",
"133 460 OFFCURVE",
"78 465 OFFCURVE",
"50 449 CURVE SMOOTH"
);
},
{
closed = 1;
nodes = (
"310 356 OFFCURVE",
"330 369 OFFCURVE",
"342 390 CURVE SMOOTH",
"355 413 OFFCURVE",
"356 438 OFFCURVE",
"336 449 CURVE SMOOTH",
"306 467 OFFCURVE",
"253 460 OFFCURVE",
"188 486 CURVE",
"183 476 LINE",
"238 434 OFFCURVE",
"261 384 OFFCURVE",
"289 368 CURVE SMOOTH"
);
},
{
closed = 1;
nodes = (
"76 599 OFFCURVE",
"56 586 OFFCURVE",
"44 565 CURVE SMOOTH",
"31 542 OFFCURVE",
"30 517 OFFCURVE",
"50 506 CURVE SMOOTH",
"80 488 OFFCURVE",
"133 495 OFFCURVE",
"198 469 CURVE",
"203 479 LINE",
"148 521 OFFCURVE",
"125 571 OFFCURVE",
"97 587 CURVE SMOOTH"
);
},
{
closed = 1;
nodes = (
"310 356 OFFCURVE",
"330 369 OFFCURVE",
"342 390 CURVE SMOOTH",
"355 413 OFFCURVE",
"356 438 OFFCURVE",
"336 449 CURVE SMOOTH",
"306 467 OFFCURVE",
"253 460 OFFCURVE",
"188 486 CURVE",
"183 476 LINE",
"238 434 OFFCURVE",
"261 384 OFFCURVE",
"289 368 CURVE SMOOTH"
);
},
{
closed = 1;
nodes = (
"76 599 OFFCURVE",
"56 586 OFFCURVE",
"44 565 CURVE SMOOTH",
"31 542 OFFCURVE",
"30 517 OFFCURVE",
"50 506 CURVE SMOOTH",
"80 488 OFFCURVE",
"133 495 OFFCURVE",
"198 469 CURVE",
"203 479 LINE",
"148 521 OFFCURVE",
"125 571 OFFCURVE",
"97 587 CURVE SMOOTH"
);
}
);
};
layerId = "AA78C373-A874-4B43-A7A1-B39102DDD1E4";
name = Bold;
paths = (
{
closed = 1;
nodes = (
"240 640 OFFCURVE",
"218 650 OFFCURVE",
"194 650 CURVE SMOOTH",
"169 650 OFFCURVE",
"146 639 OFFCURVE",
"146 615 CURVE SMOOTH",
"146 581 OFFCURVE",
"178 538 OFFCURVE",
"187 469 CURVE",
"199 469 LINE",
"208 538 OFFCURVE",
"240 583 OFFCURVE",
"240 616 CURVE SMOOTH"
);
},
{
closed = 1;
nodes = (
"146 315 OFFCURVE",
"168 305 OFFCURVE",
"192 305 CURVE SMOOTH",
"217 305 OFFCURVE",
"240 316 OFFCURVE",
"240 340 CURVE SMOOTH",
"240 374 OFFCURVE",
"208 417 OFFCURVE",
"199 486 CURVE",
"187 486 LINE",
"178 417 OFFCURVE",
"146 372 OFFCURVE",
"146 339 CURVE SMOOTH"
);
},
{
closed = 1;
nodes = (
"347 512 OFFCURVE",
"352 522 OFFCURVE",
"352 533 CURVE SMOOTH",
"352 559 OFFCURVE",
"328 591 OFFCURVE",
"304 591 CURVE SMOOTH",
"266 591 OFFCURVE",
"239 515 OFFCURVE",
"183 478 CURVE",
"189 468 LINE",
"253 495 OFFCURVE",
"308 490 OFFCURVE",
"336 506 CURVE SMOOTH"
);
},
{
closed = 1;
nodes = (
"39 443 OFFCURVE",
"34 433 OFFCURVE",
"34 422 CURVE SMOOTH",
"34 396 OFFCURVE",
"58 364 OFFCURVE",
"82 364 CURVE SMOOTH",
"117 364 OFFCURVE",
"145 432 OFFCURVE",
"203 477 CURVE",
"197 487 LINE",
"133 460 OFFCURVE",
"78 465 OFFCURVE",
"50 449 CURVE SMOOTH"
);
},
{
closed = 1;
nodes = (
"271 363 OFFCURVE",
"305 363 CURVE SMOOTH",
"330 363 OFFCURVE",
"351 396 OFFCURVE",
"351 422 CURVE SMOOTH",
"351 433 OFFCURVE",
"347 443 OFFCURVE",
"336 449 CURVE SMOOTH",
"306 467 OFFCURVE",
"253 460 OFFCURVE",
"188 486 CURVE",
"183 476 LINE",
"235 440 OFFCURVE"
);
},
{
closed = 1;
nodes = (
"113 592 OFFCURVE",
"81 592 CURVE SMOOTH",
"56 592 OFFCURVE",
"35 559 OFFCURVE",
"35 533 CURVE SMOOTH",
"35 522 OFFCURVE",
"39 512 OFFCURVE",
"50 506 CURVE SMOOTH",
"80 488 OFFCURVE",
"133 495 OFFCURVE",
"198 469 CURVE",
"203 479 LINE",
"145 523 OFFCURVE"
);
}
);
width = 383;
}
);
unicode = 002A;
},
{
color = 1;
glyphname = plus;
lastChange = "2015-08-10 16:04:07 +0000";
layers = (
{
layerId = "C18F3EFD-FA9C-4751-AD2F-5B966120D1A5";
name = Regular;
paths = (
{
closed = 1;
nodes = (
"424 216 LINE",
"424 252 LINE",
"45 252 LINE",
"45 216 LINE"
);
},
{
closed = 1;
nodes = (
"212 38 LINE",
"257 38 LINE",
"257 430 LINE",
"212 430 LINE"
);
}
);
width = 469;
},
{
background = {
paths = (
{
closed = 1;
nodes = (
"404 233 LINE",
"404 275 LINE",
"15 275 LINE",
"15 233 LINE"
);
},
{
closed = 1;
nodes = (
"182 68 LINE",
"237 68 LINE",
"237 440 LINE",
"182 440 LINE"
);
}
);
};
layerId = "AA78C373-A874-4B43-A7A1-B39102DDD1E4";
name = Bold;
paths = (
{
closed = 1;
nodes = (
"418 213 LINE",
"418 255 LINE",
"30 255 LINE",
"30 213 LINE"
);
},
{
closed = 1;
nodes = (
"197 33 LINE",
"252 33 LINE",
"252 435 LINE",
"197 435 LINE"
);
}
);
width = 448;
}
);
unicode = 002B;
},
{
color = 1;
glyphname = comma;
lastChange = "2015-08-26 04:19:04 +0000";
layers = (
{
background = {
paths = (
{
closed = 1;
nodes = (
"170 -16 OFFCURVE",
"171 103 OFFCURVE",
"98 103 CURVE SMOOTH",
"71 103 OFFCURVE",
"50 81 OFFCURVE",
"50 53 CURVE SMOOTH",
"50 27 OFFCURVE",
"71 5 OFFCURVE",
"98 5 CURVE SMOOTH",
"130 5 OFFCURVE",
"105 -45 OFFCURVE",
"69 -82 CURVE",
"90 -97 LINE"
);
}
);
};
guideLines = (
{
position = "{86, 99}";
}
);
layerId = "C18F3EFD-FA9C-4751-AD2F-5B966120D1A5";
name = Regular;
paths = (
{
closed = 1;
nodes = (
"131 -55 OFFCURVE",
"153 -4 OFFCURVE",
"153 37 CURVE SMOOTH",
"153 75 OFFCURVE",
"134 103 OFFCURVE",
"98 103 CURVE SMOOTH",
"71 103 OFFCURVE",
"50 81 OFFCURVE",
"50 53 CURVE SMOOTH",
"50 27 OFFCURVE",
"70 11 OFFCURVE",
"90 7 CURVE SMOOTH",
"104 4 OFFCURVE",
"113 -1 OFFCURVE",
"113 -10 CURVE SMOOTH",
"113 -27 OFFCURVE",
"93 -57 OFFCURVE",
"69 -82 CURVE",
"90 -97 LINE"
);
}
);
width = 193;
},
{
background = {
paths = (
{
closed = 1;
nodes = (
"134 -5 OFFCURVE",
"166 25 OFFCURVE",
"166 65 CURVE SMOOTH",
"166 104 OFFCURVE",
"134 136 OFFCURVE",
"95 136 CURVE SMOOTH",
"56 136 OFFCURVE",
"25 104 OFFCURVE",
"25 65 CURVE SMOOTH",
"25 25 OFFCURVE",
"56 -5 OFFCURVE",
"95 -5 CURVE SMOOTH"
);
},
{
closed = 1;
nodes = (
"133 -85 OFFCURVE",
"157 -31 OFFCURVE",
"157 12 CURVE SMOOTH",
"157 52 OFFCURVE",
"137 81 OFFCURVE",
"99 81 CURVE SMOOTH",
"70 81 OFFCURVE",
"48 58 OFFCURVE",
"48 29 CURVE SMOOTH",
"48 1 OFFCURVE",
"69 -16 OFFCURVE",
"90 -20 CURVE SMOOTH",
"105 -23 OFFCURVE",
"115 -28 OFFCURVE",
"115 -38 CURVE SMOOTH",
"115 -55 OFFCURVE",
"94 -87 OFFCURVE",
"68 -113 CURVE",
"90 -129 LINE"
);
},
{
closed = 1;
nodes = (
"56 119 OFFCURVE",
"25 87 OFFCURVE",
"25 48 CURVE SMOOTH",
"25 10 OFFCURVE",
"53 -17 OFFCURVE",
"82 -21 CURVE SMOOTH",
"103 -24 OFFCURVE",
"108 -29 OFFCURVE",
"108 -38 CURVE SMOOTH",
"108 -55 OFFCURVE",
"93 -93 OFFCURVE",
"69 -118 CURVE",
"90 -134 LINE",
"134 -92 OFFCURVE",
"166 -17 OFFCURVE",
"166 48 CURVE SMOOTH",
"166 87 OFFCURVE",
"134 119 OFFCURVE",
"95 119 CURVE SMOOTH"
);
}
);
};
guideLines = (
{
position = "{87, 136}";
}
);
layerId = "AA78C373-A874-4B43-A7A1-B39102DDD1E4";
name = Bold;
paths = (
{
closed = 1;
nodes = (
"134 -70 OFFCURVE",
"167 -3 OFFCURVE",
"167 53 CURVE SMOOTH",
"167 100 OFFCURVE",
"142 136 OFFCURVE",
"93 136 CURVE SMOOTH",
"55 136 OFFCURVE",
"25 104 OFFCURVE",
"25 65 CURVE SMOOTH",
"25 27 OFFCURVE",
"53 2 OFFCURVE",
"82 -4 CURVE SMOOTH",
"101 -8 OFFCURVE",
"108 -15 OFFCURVE",
"108 -29 CURVE SMOOTH",
"108 -46 OFFCURVE",
"93 -76 OFFCURVE",
"69 -101 CURVE",
"90 -117 LINE"
);
}
);
width = 187;
}
);
unicode = 002C;
},
{
color = 7;
export = 0;
glyphname = short_dash1;
lastChange = "2015-07-30 17:17:08 +0000";
layers = (
{
layerId = "C18F3EFD-FA9C-4751-AD2F-5B966120D1A5";
name = Regular;
paths = (
{
closed = 1;
nodes = (
"43 234 LINE",
"271 234 LINE",
"271 187 LINE",
"43 187 LINE"
);
}
);
width = 344;
},
{
layerId = "AA78C373-A874-4B43-A7A1-B39102DDD1E4";
name = Bold;
paths = (
{
closed = 1;
nodes = (
"43 226 LINE",
"245 226 LINE",
"245 187 LINE",
"43 187 LINE"
);
}
);
width = 297;
}
);
unicode = 002D;
},
{
color = 7;
export = 0;
glyphname = dot;
lastChange = "2015-08-26 04:19:53 +0000";
layers = (
{
layerId = "C18F3EFD-FA9C-4751-AD2F-5B966120D1A5";
name = Regular;
paths = (
{
closed = 1;
nodes = (
"55 18 OFFCURVE",
"50 30 OFFCURVE",
"50 45 CURVE SMOOTH",
"50 74 OFFCURVE",
"76 99 OFFCURVE",
"105 99 CURVE SMOOTH",
"134 99 OFFCURVE",
"160 74 OFFCURVE",
"160 46 CURVE SMOOTH",
"160 15 OFFCURVE",
"135 -9 OFFCURVE",
"104 -9 CURVE SMOOTH",
"89 -9 OFFCURVE",
"77 -4 OFFCURVE",
"66 7 CURVE SMOOTH"
);
}
);
width = 210;
},
{
layerId = "AA78C373-A874-4B43-A7A1-B39102DDD1E4";
name = Bold;
paths = (
{
closed = 1;
nodes = (
"51 100 OFFCURVE",
"68 108 OFFCURVE",
"89 108 CURVE SMOOTH",
"116 108 OFFCURVE",
"148 91 OFFCURVE",
"148 50 CURVE SMOOTH",
"148 25 OFFCURVE",
"132 -8 OFFCURVE",
"89 -8 CURVE SMOOTH",
"62 -8 OFFCURVE",
"30 9 OFFCURVE",
"30 50 CURVE SMOOTH",
"30 63 OFFCURVE",
"33 74 OFFCURVE",
"40 84 CURVE SMOOTH"
);
}
);
width = 178;
}
);
unicode = 002E;
},
{
color = 1;
glyphname = slash;
lastChange = "2015-08-26 04:22:00 +0000";
layers = (
{
layerId = "C18F3EFD-FA9C-4751-AD2F-5B966120D1A5";
name = Regular;
paths = (
{
closed = 1;
nodes = (
"60 -155 LINE",
"401 710 LINE",
"341 710 LINE",
"0 -155 LINE"
);
}
);
width = 411;
},
{
layerId = "AA78C373-A874-4B43-A7A1-B39102DDD1E4";
name = Bold;
paths = (
{
closed = 1;
nodes = (
"85 -155 LINE",
"426 710 LINE",
"341 710 LINE",
"0 -155 LINE"
);
}
);
width = 436;
}
);
unicode = 002F;
},
{
color = 9;
glyphname = zero;
lastChange = "2015-08-09 21:36:54 +0000";
layers = (
{
background = {
paths = (
{
closed = 1;
nodes = (
"509 507 OFFCURVE",
"403 610 OFFCURVE",
"266 610 CURVE SMOOTH",
"128 610 OFFCURVE",
"14 502 OFFCURVE",
"14 304 CURVE SMOOTH",
"14 99 OFFCURVE",
"122 -10 OFFCURVE",
"261 -10 CURVE SMOOTH",
"399 -10 OFFCURVE",
"509 102 OFFCURVE",
"509 300 CURVE SMOOTH"
);
},
{
closed = 1;
nodes = (
"409 100 OFFCURVE",
"359 18 OFFCURVE",
"264 18 CURVE SMOOTH",
"169 18 OFFCURVE",
"114 90 OFFCURVE",
"114 300 CURVE SMOOTH",
"114 508 OFFCURVE",
"168 582 OFFCURVE",
"263 582 CURVE SMOOTH",
"358 582 OFFCURVE",
"409 517 OFFCURVE",
"409 304 CURVE SMOOTH"
);
}
);
};
layerId = "C18F3EFD-FA9C-4751-AD2F-5B966120D1A5";
name = Regular;
paths = (
{
closed = 1;
nodes = (
"478 451 OFFCURVE",
"385 540 OFFCURVE",
"265 540 CURVE SMOOTH",
"145 540 OFFCURVE",
"45 446 OFFCURVE",
"45 269 CURVE SMOOTH",
"45 86 OFFCURVE",
"140 -10 OFFCURVE",
"261 -10 CURVE SMOOTH",
"381 -10 OFFCURVE",
"478 88 OFFCURVE",
"478 266 CURVE SMOOTH"
);
},
{
closed = 1;
nodes = (
"390 87 OFFCURVE",
"346 16 OFFCURVE",
"264 16 CURVE SMOOTH",
"181 16 OFFCURVE",
"133 78 OFFCURVE",
"133 266 CURVE SMOOTH",
"133 451 OFFCURVE",
"180 514 OFFCURVE",
"263 514 CURVE SMOOTH",
"345 514 OFFCURVE",
"390 459 OFFCURVE",
"390 269 CURVE SMOOTH"
);
}
);
width = 523;
},
{
background = {
paths = (
{
closed = 1;
nodes = (
"558 503 OFFCURVE",
"446 610 OFFCURVE",
"288 610 CURVE SMOOTH",
"128 610 OFFCURVE",
"10 497 OFFCURVE",
"10 302 CURVE SMOOTH",
"10 102 OFFCURVE",
"123 -10 OFFCURVE",
"283 -10 CURVE SMOOTH",
"442 -10 OFFCURVE",
"558 103 OFFCURVE",
"558 298 CURVE SMOOTH"
);
},
{
closed = 1;
nodes = (
"404 98 OFFCURVE",
"379 17 OFFCURVE",
"286 17 CURVE SMOOTH",
"193 17 OFFCURVE",
"164 88 OFFCURVE",
"164 298 CURVE SMOOTH",
"164 498 OFFCURVE",
"192 583 OFFCURVE",
"285 583 CURVE SMOOTH",
"376 583 OFFCURVE",
"404 500 OFFCURVE",
"404 303 CURVE SMOOTH"
);
},
{
closed = 1;
nodes = (
"501 451 OFFCURVE",
"408 540 OFFCURVE",
"288 540 CURVE SMOOTH",
"168 540 OFFCURVE",
"68 446 OFFCURVE",
"68 269 CURVE SMOOTH",
"68 86 OFFCURVE",
"163 -10 OFFCURVE",
"284 -10 CURVE SMOOTH",
"404 -10 OFFCURVE",
"501 88 OFFCURVE",
"501 266 CURVE SMOOTH"
);
},
{
closed = 1;
nodes = (
"413 87 OFFCURVE",
"369 16 OFFCURVE",
"287 16 CURVE SMOOTH",
"204 16 OFFCURVE",
"156 78 OFFCURVE",
"156 266 CURVE SMOOTH",
"156 451 OFFCURVE",
"203 514 OFFCURVE",
"286 514 CURVE SMOOTH",
"368 514 OFFCURVE",
"413 459 OFFCURVE",
"413 269 CURVE SMOOTH"
);
}
);
};
layerId = "AA78C373-A874-4B43-A7A1-B39102DDD1E4";
name = Bold;
paths = (
{
closed = 1;
nodes = (
"533 443 OFFCURVE",
"441 550 OFFCURVE",
"288 550 CURVE SMOOTH",
"133 550 OFFCURVE",
"35 437 OFFCURVE",
"35 272 CURVE SMOOTH",
"35 102 OFFCURVE",
"128 -10 OFFCURVE",
"283 -10 CURVE SMOOTH",
"437 -10 OFFCURVE",
"533 103 OFFCURVE",
"533 268 CURVE SMOOTH"
);
},
{
closed = 1;
nodes = (
"389 98 OFFCURVE",
"364 17 OFFCURVE",
"286 17 CURVE SMOOTH",
"208 17 OFFCURVE",
"179 88 OFFCURVE",
"179 268 CURVE SMOOTH",
"179 438 OFFCURVE",
"207 523 OFFCURVE",
"285 523 CURVE SMOOTH",
"361 523 OFFCURVE",
"389 440 OFFCURVE",
"389 273 CURVE SMOOTH"
);
}
);
width = 568;
}
);
unicode = 0030;
},
{
color = 9;
glyphname = one;
lastChange = "2015-07-30 10:21:44 +0000";
layers = (
{
background = {
paths = (
{
closed = 1;
nodes = (
"216 486 LINE",
"44 380 LINE",
"58 358 LINE",
"195 438 LINE",
"195 32 LINE",
"64 20 LINE",
"64 0 LINE",
"386 0 LINE",
"386 15 OFFCURVE",
"377 18 OFFCURVE",
"362 20 CURVE SMOOTH",
"269 32 LINE",
"269 486 LINE"
);
}
);
};
guideLines = (
{
position = "{357, 486}";
}
);
layerId = "C18F3EFD-FA9C-4751-AD2F-5B966120D1A5";
name = Regular;
paths = (
{
closed = 1;
nodes = (
"221 530 LINE",
"20 397 LINE",
"38 368 LINE",
"194 468 LINE",
"194 35 LINE",
"57 26 LINE",
"57 0 LINE",
"403 0 LINE",
"403 19 OFFCURVE",
"397 25 OFFCURVE",
"377 27 CURVE SMOOTH",
"274 35 LINE",
"274 530 LINE"
);
}
);
width = 418;
},
{
background = {
paths = (
{
closed = 1;
nodes = (
"216 487 LINE",
"44 380 LINE",
"58 358 LINE",
"195 438 LINE",
"195 32 LINE",
"64 20 LINE",
"64 0 LINE",
"386 0 LINE",
"386 15 OFFCURVE",
"377 18 OFFCURVE",
"362 20 CURVE SMOOTH",
"269 32 LINE",
"269 486 LINE"
);
}
);
};
layerId = "AA78C373-A874-4B43-A7A1-B39102DDD1E4";
name = Bold;
paths = (
{
closed = 1;
nodes = (
"233 540 LINE",
"20 405 LINE",
"38 377 LINE",
"182 464 LINE",
"182 35 LINE",
"55 26 LINE",
"55 0 LINE",
"427 0 LINE",
"427 19 OFFCURVE",
"416 24 OFFCURVE",
"396 26 CURVE SMOOTH",
"316 35 LINE",
"316 540 LINE"
);
}
);
width = 442;
}
);
unicode = 0031;
},
{
color = 9;
glyphname = two;
lastChange = "2015-08-10 14:22:55 +0000";
layers = (
{
background = {
paths = (
{
closed = 1;
nodes = (
"62 73 LINE",
"62 205 OFFCURVE",
"418 283 OFFCURVE",
"418 467 CURVE SMOOTH",
"418 565 OFFCURVE",
"319 610 OFFCURVE",
"217 610 CURVE SMOOTH",
"115 610 OFFCURVE",
"18 565 OFFCURVE",
"18 481 CURVE SMOOTH",
"18 451 OFFCURVE",
"34 428 OFFCURVE",
"66 428 CURVE SMOOTH",
"167 428 OFFCURVE",
"69 583 OFFCURVE",
"208 583 CURVE SMOOTH",
"287 583 OFFCURVE",
"321 535 OFFCURVE",
"321 468 CURVE SMOOTH",
"321 305 OFFCURVE",
"10 227 OFFCURVE",
"10 20 CURVE"
);
},
{
closed = 1;
nodes = (
"423 0 LINE",
"423 73 LINE",
"62 73 LINE",
"10 20 LINE",
"10 0 LINE"
);
},
{
closed = 1;
nodes = (
"425 171 LINE",
"402 171 LINE",
"384 115 LINE SMOOTH",
"371 74 OFFCURVE",
"347 73 OFFCURVE",
"306 73 CURVE",
"423 0 LINE"
);
}
);
};
layerId = "C18F3EFD-FA9C-4751-AD2F-5B966120D1A5";
name = Regular;
paths = (
{
closed = 1;
nodes = (
"80 70 LINE",
"80 149 OFFCURVE",
"397 223 OFFCURVE",
"397 397 CURVE SMOOTH",
"397 495 OFFCURVE",
"311 540 OFFCURVE",
"212 540 CURVE SMOOTH",
"123 540 OFFCURVE",
"31 495 OFFCURVE",
"31 411 CURVE SMOOTH",
"31 381 OFFCURVE",
"47 358 OFFCURVE",
"74 358 CURVE SMOOTH",
"170 358 OFFCURVE",
"77 514 OFFCURVE",
"203 514 CURVE SMOOTH",
"279 514 OFFCURVE",
"312 465 OFFCURVE",
"312 398 CURVE SMOOTH",
"312 191 OFFCURVE",
"30 197 OFFCURVE",
"30 20 CURVE"
);
},
{
closed = 1;
nodes = (
"411 0 LINE",
"411 70 LINE",
"80 70 LINE",
"30 20 LINE",
"30 0 LINE"
);
},
{
closed = 1;
nodes = (
"413 168 LINE",
"394 168 LINE",
"378 114 LINE SMOOTH",
"366 75 OFFCURVE",
"347 70 OFFCURVE",
"306 70 CURVE",
"411 0 LINE"
);
}
);
width = 468;
},
{
background = {
paths = (
{
closed = 1;
nodes = (
"100 70 LINE",
"100 149 OFFCURVE",
"417 223 OFFCURVE",
"417 397 CURVE SMOOTH",
"417 495 OFFCURVE",
"331 540 OFFCURVE",
"232 540 CURVE SMOOTH",
"143 540 OFFCURVE",
"51 495 OFFCURVE",
"51 411 CURVE SMOOTH",
"51 381 OFFCURVE",
"67 358 OFFCURVE",
"94 358 CURVE SMOOTH",
"190 358 OFFCURVE",
"97 514 OFFCURVE",
"223 514 CURVE SMOOTH",
"299 514 OFFCURVE",
"332 465 OFFCURVE",
"332 398 CURVE SMOOTH",
"332 191 OFFCURVE",
"50 197 OFFCURVE",
"50 20 CURVE"
);
},
{
closed = 1;
nodes = (
"431 0 LINE",
"431 70 LINE",
"100 70 LINE",
"50 20 LINE",
"50 0 LINE"
);
},
{
closed = 1;
nodes = (
"433 168 LINE",
"414 168 LINE",
"398 114 LINE SMOOTH",
"386 75 OFFCURVE",
"367 70 OFFCURVE",
"326 70 CURVE",
"431 0 LINE"
);
}
);
};
layerId = "AA78C373-A874-4B43-A7A1-B39102DDD1E4";
name = Bold;
paths = (
{
closed = 1;
nodes = (
"93 100 LINE",
"93 207 OFFCURVE",
"429 225 OFFCURVE",
"429 403 CURVE SMOOTH",
"429 512 OFFCURVE",
"323 550 OFFCURVE",
"223 550 CURVE SMOOTH",
"127 550 OFFCURVE",
"33 512 OFFCURVE",
"33 425 CURVE SMOOTH",
"33 385 OFFCURVE",
"55 356 OFFCURVE",
"92 356 CURVE SMOOTH",
"212 356 OFFCURVE",
"104 523 OFFCURVE",
"215 523 CURVE SMOOTH",
"268 523 OFFCURVE",
"294 476 OFFCURVE",
"294 412 CURVE SMOOTH",
"294 169 OFFCURVE",
"30 246 OFFCURVE",
"30 29 CURVE"
);
},
{
closed = 1;
nodes = (
"437 0 LINE",
"437 100 LINE",
"93 100 LINE",
"30 29 LINE",
"30 0 LINE"
);
},
{
closed = 1;
nodes = (
"438 188 LINE",
"415 188 LINE",
"397 144 LINE SMOOTH",
"380 102 OFFCURVE",
"362 100 OFFCURVE",
"323 100 CURVE",
"437 0 LINE"
);
}
);
width = 493;
},
{
associatedMasterId = "AA78C373-A874-4B43-A7A1-B39102DDD1E4";
background = {
paths = (
{
closed = 1;
nodes = (
"86 350 OFFCURVE",
"65 392 OFFCURVE",
"65 442 CURVE SMOOTH",
"65 536 OFFCURVE",
"132 580 OFFCURVE",
"201 580 CURVE SMOOTH",
"268 580 OFFCURVE",
"326 539 OFFCURVE",
"326 433 CURVE SMOOTH",
"326 260 OFFCURVE",
"119 117 OFFCURVE",
"17 15 CURVE",
"138 87 LINE",
"256 189 OFFCURVE",
"470 277 OFFCURVE",
"470 451 CURVE SMOOTH",
"470 558 OFFCURVE",
"381 614 OFFCURVE",
"245 614 CURVE SMOOTH",
"126 614 OFFCURVE",
"34 561 OFFCURVE",
"34 441 CURVE SMOOTH",
"34 378 OFFCURVE",
"70 319 OFFCURVE",
"145 319 CURVE SMOOTH",
"189 319 OFFCURVE",
"247 356 OFFCURVE",
"247 396 CURVE SMOOTH",
"247 419 OFFCURVE",
"231 437 OFFCURVE",
"198 437 CURVE SMOOTH",
"127 437 OFFCURVE",
"177 350 OFFCURVE",
"126 350 CURVE SMOOTH"
);
},
{
closed = 1;
nodes = (
"431 146 LINE SMOOTH",
"414 103 OFFCURVE",
"392 98 OFFCURVE",
"351 98 CURVE SMOOTH",
"111 98 LINE",
"17 15 LINE",
"16 0 LINE",
"470 0 LINE",
"472 189 LINE",
"448 189 LINE"
);
}
);
};
layerId = "609CC18C-27B8-4FA5-A670-FCA6CB0E2ECA";
name = "2 B";
paths = (
{
closed = 1;
nodes = (
"86 350 OFFCURVE",
"65 392 OFFCURVE",
"65 442 CURVE SMOOTH",
"65 534 OFFCURVE",
"134 580 OFFCURVE",
"201 580 CURVE SMOOTH",
"268 580 OFFCURVE",
"326 539 OFFCURVE",
"326 433 CURVE SMOOTH",
"326 205 OFFCURVE",
"27 139 OFFCURVE",
"27 15 CURVE",
"56 34 LINE",
"140 168 OFFCURVE",
"470 262 OFFCURVE",
"470 446 CURVE SMOOTH",
"470 551 OFFCURVE",
"375 614 OFFCURVE",
"245 614 CURVE SMOOTH",
"128 614 OFFCURVE",
"34 559 OFFCURVE",
"34 441 CURVE SMOOTH",
"34 378 OFFCURVE",
"70 319 OFFCURVE",
"145 319 CURVE SMOOTH",
"189 319 OFFCURVE",
"247 356 OFFCURVE",
"247 396 CURVE SMOOTH",
"247 419 OFFCURVE",
"231 437 OFFCURVE",
"198 437 CURVE SMOOTH",
"127 437 OFFCURVE",
"177 350 OFFCURVE",
"126 350 CURVE SMOOTH"
);
},
{
closed = 1;
nodes = (
"431 146 LINE SMOOTH",
"414 103 OFFCURVE",
"392 98 OFFCURVE",
"351 98 CURVE SMOOTH",
"90 98 LINE",
"27 15 LINE",
"26 0 LINE",
"470 0 LINE",
"472 189 LINE",
"448 189 LINE"
);
}
);
width = 515;
},
{
associatedMasterId = "AA78C373-A874-4B43-A7A1-B39102DDD1E4";
background = {
paths = (
{
closed = 1;
nodes = (
"86 350 OFFCURVE",
"65 392 OFFCURVE",
"65 442 CURVE SMOOTH",
"65 536 OFFCURVE",
"132 580 OFFCURVE",
"201 580 CURVE SMOOTH",
"268 580 OFFCURVE",
"326 539 OFFCURVE",
"326 433 CURVE SMOOTH",
"326 260 OFFCURVE",
"119 117 OFFCURVE",
"17 15 CURVE",
"138 87 LINE",
"256 189 OFFCURVE",
"470 277 OFFCURVE",
"470 451 CURVE SMOOTH",
"470 558 OFFCURVE",
"381 614 OFFCURVE",
"245 614 CURVE SMOOTH",
"126 614 OFFCURVE",
"34 561 OFFCURVE",
"34 441 CURVE SMOOTH",
"34 378 OFFCURVE",
"70 319 OFFCURVE",
"145 319 CURVE SMOOTH",
"189 319 OFFCURVE",
"247 356 OFFCURVE",
"247 396 CURVE SMOOTH",
"247 419 OFFCURVE",
"231 437 OFFCURVE",
"198 437 CURVE SMOOTH",
"127 437 OFFCURVE",
"177 350 OFFCURVE",
"126 350 CURVE SMOOTH"
);
},
{
closed = 1;
nodes = (
"431 146 LINE SMOOTH",
"414 103 OFFCURVE",
"392 98 OFFCURVE",
"351 98 CURVE SMOOTH",
"111 98 LINE",
"17 15 LINE",
"16 0 LINE",
"470 0 LINE",
"472 189 LINE",
"448 189 LINE"
);
}
);
};
layerId = "09E1B5A7-C1A9-4176-A98A-68F35A64705F";
name = "2 C";
paths = (
{
closed = 1;
nodes = (
"86 350 OFFCURVE",
"65 392 OFFCURVE",
"65 442 CURVE SMOOTH",
"65 536 OFFCURVE",
"132 580 OFFCURVE",
"201 580 CURVE SMOOTH",
"268 580 OFFCURVE",
"326 539 OFFCURVE",
"326 433 CURVE SMOOTH",
"326 260 OFFCURVE",
"119 117 OFFCURVE",
"17 15 CURVE",
"138 87 LINE",
"256 189 OFFCURVE",
"470 277 OFFCURVE",
"470 451 CURVE SMOOTH",
"470 558 OFFCURVE",
"381 614 OFFCURVE",
"245 614 CURVE SMOOTH",
"126 614 OFFCURVE",
"34 561 OFFCURVE",
"34 441 CURVE SMOOTH",
"34 378 OFFCURVE",
"70 319 OFFCURVE",
"145 319 CURVE SMOOTH",
"189 319 OFFCURVE",
"247 356 OFFCURVE",
"247 396 CURVE SMOOTH",
"247 419 OFFCURVE",
"231 437 OFFCURVE",
"198 437 CURVE SMOOTH",
"127 437 OFFCURVE",
"177 350 OFFCURVE",
"126 350 CURVE SMOOTH"
);
},
{
closed = 1;
nodes = (
"431 146 LINE SMOOTH",
"414 103 OFFCURVE",
"392 98 OFFCURVE",
"351 98 CURVE SMOOTH",
"111 98 LINE",
"17 15 LINE",
"16 0 LINE",
"470 0 LINE",
"472 189 LINE",
"448 189 LINE"
);
}
);
width = 515;
},
{
associatedMasterId = "C18F3EFD-FA9C-4751-AD2F-5B966120D1A5";
background = {
paths = (
{
closed = 1;
nodes = (
"82 73 LINE",
"82 205 OFFCURVE",
"445 301 OFFCURVE",
"445 459 CURVE SMOOTH",
"445 579 OFFCURVE",
"334 610 OFFCURVE",
"229 610 CURVE SMOOTH",
"98 610 OFFCURVE",
"38 535 OFFCURVE",
"38 481 CURVE SMOOTH",
"38 451 OFFCURVE",
"56 428 OFFCURVE",
"91 428 CURVE SMOOTH",
"187 428 OFFCURVE",
"89 584 OFFCURVE",
"225 584 CURVE SMOOTH",
"312 584 OFFCURVE",
"350 535 OFFCURVE",
"350 468 CURVE SMOOTH",
"350 305 OFFCURVE",
"30 227 OFFCURVE",
"30 20 CURVE"
);
},
{
closed = 1;
nodes = (
"453 0 LINE",
"453 73 LINE",
"82 73 LINE",
"30 20 LINE",
"30 0 LINE"
);
},
{
closed = 1;
nodes = (
"455 174 LINE",
"432 174 LINE",
"414 118 LINE SMOOTH",
"400 74 OFFCURVE",
"377 73 OFFCURVE",
"336 73 CURVE",
"453 0 LINE"
);
}
);
};
layerId = "B733FA21-D6D8-48E5-954E-A7A369907DCA";
name = "R 2";
paths = (
{
closed = 1;
nodes = (
"86 350 OFFCURVE",
"65 392 OFFCURVE",
"65 442 CURVE SMOOTH",
"65 534 OFFCURVE",
"134 580 OFFCURVE",
"201 580 CURVE SMOOTH",
"268 580 OFFCURVE",
"350 539 OFFCURVE",
"350 433 CURVE SMOOTH",
"350 225 OFFCURVE",
"27 139 OFFCURVE",
"27 15 CURVE",
"62 34 LINE",
"146 168 OFFCURVE",
"440 265 OFFCURVE",
"440 449 CURVE SMOOTH",
"440 554 OFFCURVE",
"350 614 OFFCURVE",
"245 614 CURVE SMOOTH",
"128 614 OFFCURVE",
"34 559 OFFCURVE",
"34 441 CURVE SMOOTH",
"34 378 OFFCURVE",
"70 319 OFFCURVE",
"145 319 CURVE SMOOTH",
"189 319 OFFCURVE",
"247 356 OFFCURVE",
"247 396 CURVE SMOOTH",
"247 419 OFFCURVE",
"231 437 OFFCURVE",
"198 437 CURVE SMOOTH",
"127 437 OFFCURVE",
"177 350 OFFCURVE",
"126 350 CURVE SMOOTH"
);
},
{
closed = 1;
nodes = (
"431 126 LINE SMOOTH",
"417 82 OFFCURVE",
"392 78 OFFCURVE",
"351 78 CURVE SMOOTH",
"90 78 LINE",
"27 15 LINE",
"26 0 LINE",
"470 0 LINE",
"472 169 LINE",
"448 169 LINE"
);
}
);
width = 505;
}
);
unicode = 0032;
},
{
color = 1;
glyphname = three;
lastChange = "2015-08-10 07:50:01 +0000";
layers = (
{
background = {
paths = (
{
closed = 1;
nodes = (
"332 -10 OFFCURVE",
"453 48 OFFCURVE",
"453 177 CURVE SMOOTH",
"453 288 OFFCURVE",
"378 343 OFFCURVE",
"273 343 CURVE SMOOTH",
"235 343 OFFCURVE",
"194 334 OFFCURVE",
"153 316 CURVE",
"175 298 LINE",
"199 308 OFFCURVE",
"221 313 OFFCURVE",
"242 313 CURVE SMOOTH",
"318 313 OFFCURVE",
"363 261 OFFCURVE",
"363 173 CURVE SMOOTH",
"363 96 OFFCURVE",
"314 16 OFFCURVE",
"206 16 CURVE SMOOTH",
"84 16 OFFCURVE",
"185 160 OFFCURVE",
"84 160 CURVE SMOOTH",
"52 160 OFFCURVE",
"35 139 OFFCURVE",
"35 111 CURVE SMOOTH",
"35 33 OFFCURVE",
"123 -10 OFFCURVE",
"220 -10 CURVE SMOOTH"
);
},
{
closed = 1;
nodes = (
"71 430 LINE",
"89 486 LINE SMOOTH",
"102 526 OFFCURVE",
"126 527 OFFCURVE",
"167 527 CURVE",
"50 600 LINE",
"48 430 LINE"
);
},
{
closed = 1;
nodes = (
"437 580 LINE",
"340 526 LINE",
"153 316 LINE",
"175 298 LINE"
);
},
{
closed = 1;
nodes = (
"340 526 LINE",
"437 580 LINE",
"437 600 LINE",
"50 600 LINE",
"50 527 LINE"
);
},
{
closed = 1;
nodes = (
"332 -80 OFFCURVE",
"448 -22 OFFCURVE",
"448 107 CURVE SMOOTH",
"448 218 OFFCURVE",
"378 273 OFFCURVE",
"273 273 CURVE SMOOTH",
"235 273 OFFCURVE",
"190 264 OFFCURVE",
"149 246 CURVE",
"171 228 LINE",
"195 238 OFFCURVE",
"221 243 OFFCURVE",
"242 243 CURVE SMOOTH",
"318 243 OFFCURVE",
"363 191 OFFCURVE",
"363 103 CURVE SMOOTH",
"363 26 OFFCURVE",
"334 -54 OFFCURVE",
"206 -54 CURVE SMOOTH",
"84 -54 OFFCURVE",
"184 90 OFFCURVE",
"86 90 CURVE SMOOTH",
"57 90 OFFCURVE",
"40 69 OFFCURVE",
"40 41 CURVE SMOOTH",
"40 -37 OFFCURVE",
"123 -80 OFFCURVE",
"220 -80 CURVE SMOOTH"
);
}
);
};
layerId = "C18F3EFD-FA9C-4751-AD2F-5B966120D1A5";
name = Regular;
paths = (
{
closed = 1;
nodes = (
"365 -80 OFFCURVE",
"443 17 OFFCURVE",
"443 112 CURVE SMOOTH",
"443 193 OFFCURVE",
"386 278 OFFCURVE",
"273 278 CURVE SMOOTH",
"235 278 OFFCURVE",
"190 269 OFFCURVE",
"149 251 CURVE",
"171 233 LINE",
"195 243 OFFCURVE",
"221 248 OFFCURVE",
"242 248 CURVE SMOOTH",
"313 248 OFFCURVE",
"360 186 OFFCURVE",
"360 98 CURVE SMOOTH",
"360 21 OFFCURVE",
"329 -55 OFFCURVE",
"211 -55 CURVE SMOOTH",
"94 -55 OFFCURVE",
"181 94 OFFCURVE",
"86 94 CURVE SMOOTH",
"57 94 OFFCURVE",
"40 73 OFFCURVE",
"40 45 CURVE SMOOTH",
"40 -30 OFFCURVE",
"121 -80 OFFCURVE",
"225 -80 CURVE SMOOTH"
);
},
{
closed = 1;
nodes = (
"76 365 LINE",
"94 421 LINE SMOOTH",
"107 460 OFFCURVE",
"131 461 OFFCURVE",
"172 461 CURVE",
"55 530 LINE",
"53 365 LINE"
);
},
{
closed = 1;
nodes = (
"427 510 LINE",
"330 460 LINE",
"149 251 LINE",
"171 233 LINE"
);
},
{
closed = 1;
nodes = (
"330 460 LINE",
"427 510 LINE",
"427 530 LINE",
"55 530 LINE",
"55 461 LINE"
);
}
);
width = 498;
},
{
background = {
paths = (
{
closed = 1;
nodes = (
"414 -70 OFFCURVE",
"499 11 OFFCURVE",
"499 113 CURVE SMOOTH",
"499 212 OFFCURVE",
"439 276 OFFCURVE",
"307 276 CURVE SMOOTH",
"264 276 OFFCURVE",
"219 267 OFFCURVE",
"178 250 CURVE",
"204 229 LINE",
"228 239 OFFCURVE",
"252 243 OFFCURVE",
"271 243 CURVE SMOOTH",
"344 243 OFFCURVE",
"370 181 OFFCURVE",
"370 114 CURVE SMOOTH",
"370 36 OFFCURVE",
"337 -43 OFFCURVE",
"227 -43 CURVE SMOOTH",
"106 -43 OFFCURVE",
"215 122 OFFCURVE",
"103 122 CURVE SMOOTH",
"60 122 OFFCURVE",
"39 94 OFFCURVE",
"39 58 CURVE SMOOTH",
"39 1 OFFCURVE",
"97 -70 OFFCURVE",
"232 -70 CURVE SMOOTH"
);
},
{
closed = 1;
nodes = (
"94 357 LINE",
"112 403 LINE SMOOTH",
"129 446 OFFCURVE",
"149 448 OFFCURVE",
"190 448 CURVE",
"71 540 LINE",
"69 357 LINE"
);
},
{
closed = 1;
nodes = (
"474 513 LINE",
"351 448 LINE",
"178 250 LINE",
"204 229 LINE"
);
},
{
closed = 1;
nodes = (
"351 448 LINE",
"474 513 LINE",
"474 540 LINE",
"71 540 LINE",
"71 448 LINE"
);
}
);
};
layerId = "AA78C373-A874-4B43-A7A1-B39102DDD1E4";
name = Bold;
paths = (
{
closed = 1;
nodes = (
"409 -80 OFFCURVE",
"501 16 OFFCURVE",
"501 123 CURVE SMOOTH",
"501 206 OFFCURVE",
"439 276 OFFCURVE",
"307 276 CURVE SMOOTH",
"264 276 OFFCURVE",
"219 267 OFFCURVE",
"178 250 CURVE",
"204 229 LINE",
"228 239 OFFCURVE",
"252 243 OFFCURVE",
"271 243 CURVE SMOOTH",
"344 243 OFFCURVE",
"370 181 OFFCURVE",
"370 109 CURVE SMOOTH",
"370 18 OFFCURVE",
"337 -53 OFFCURVE",
"234 -53 CURVE SMOOTH",
"106 -53 OFFCURVE",
"215 112 OFFCURVE",
"103 112 CURVE SMOOTH",
"60 112 OFFCURVE",
"39 84 OFFCURVE",
"39 48 CURVE SMOOTH",
"39 -39 OFFCURVE",
"134 -80 OFFCURVE",
"244 -80 CURVE SMOOTH"
);
},
{
closed = 1;
nodes = (
"94 357 LINE",
"112 403 LINE SMOOTH",
"129 446 OFFCURVE",
"149 448 OFFCURVE",
"190 448 CURVE",
"71 540 LINE",
"69 357 LINE"
);
},
{
closed = 1;
nodes = (
"474 513 LINE",
"351 448 LINE",
"178 250 LINE",
"204 229 LINE"
);
},
{
closed = 1;
nodes = (
"351 448 LINE",
"474 513 LINE",
"474 540 LINE",
"71 540 LINE",
"71 448 LINE"
);
}
);
width = 539;
}
);
unicode = 0033;
},
{
color = 9;
glyphname = four;
lastChange = "2015-08-26 04:06:22 +0000";
layers = (
{
background = {
paths = (
{
closed = 1;
nodes = (
"229 334 OFFCURVE",
"368 473 OFFCURVE",
"368 563 CURVE SMOOTH",
"368 594 OFFCURVE",
"350 610 OFFCURVE",
"317 610 CURVE SMOOTH",
"203 610 OFFCURVE",
"291 422 OFFCURVE",
"0 183 CURVE",
"31 172 LINE"
);
},
{
closed = 1;
nodes = (
"456 0 LINE",
"456 23 OFFCURVE",
"451 27 OFFCURVE",
"432 27 CURVE SMOOTH",
"179 27 LINE",
"179 0 LINE"
);
},
{
closed = 1;
nodes = (
"456 181 LINE",
"0 183 LINE",
"6 153 LINE",
"456 151 LINE"
);
},
{
closed = 1;
nodes = (
"366 0 LINE",
"366 386 LINE",
"346 386 LINE",
"336 344 LINE SMOOTH",
"328 312 OFFCURVE",
"318 304 OFFCURVE",
"292 303 CURVE SMOOTH",
"286 303 LINE",
"286 0 LINE"
);
}
);
};
guideLines = (
{
angle = 90;
position = "{369, -104}";
}
);
layerId = "C18F3EFD-FA9C-4751-AD2F-5B966120D1A5";
name = Regular;
paths = (
{
closed = 1;
nodes = (
"239 269 OFFCURVE",
"368 408 OFFCURVE",
"368 493 CURVE SMOOTH",
"368 524 OFFCURVE",
"352 540 OFFCURVE",
"323 540 CURVE SMOOTH",
"230 540 OFFCURVE",
"301 357 OFFCURVE",
"10 118 CURVE",
"41 107 LINE"
);
},
{
closed = 1;
nodes = (
"456 -70 LINE",
"456 -47 OFFCURVE",
"451 -43 OFFCURVE",
"432 -43 CURVE SMOOTH",
"181 -43 LINE",
"181 -70 LINE"
);
},
{
closed = 1;
nodes = (
"456 116 LINE",
"10 118 LINE",
"16 88 LINE",
"456 86 LINE"
);
},
{
closed = 1;
nodes = (
"364 -70 LINE",
"364 312 LINE",
"344 312 LINE",
"334 274 LINE SMOOTH",
"326 242 OFFCURVE",
"320 234 OFFCURVE",
"294 233 CURVE SMOOTH",
"288 233 LINE",
"288 -70 LINE"
);
}
);
width = 496;
},
{
background = {
paths = (
{
closed = 1;
nodes = (
"177 292 OFFCURVE",
"405 444 OFFCURVE",
"405 545 CURVE SMOOTH",
"405 588 OFFCURVE",
"371 610 OFFCURVE",
"329 610 CURVE SMOOTH",
"177 610 OFFCURVE",
"314 430 OFFCURVE",
"5 183 CURVE",
"41 175 LINE"
);
},
{
closed = 1;
nodes = (
"492 0 LINE",
"492 23 OFFCURVE",
"487 27 OFFCURVE",
"468 27 CURVE SMOOTH",
"164 27 LINE",
"164 0 LINE"
);
},
{
closed = 1;
nodes = (
"492 181 LINE",
"5 183 LINE",
"11 153 LINE",
"492 151 LINE"
);
},
{
closed = 1;
nodes = (
"405 0 LINE",
"405 393 LINE",
"382 393 LINE",
"365 350 LINE SMOOTH",
"348 307 OFFCURVE",
"326 302 OFFCURVE",
"285 302 CURVE SMOOTH",
"271 302 LINE",
"271 0 LINE"
);
},
{
closed = 1;
nodes = (
"234 269 OFFCURVE",
"368 408 OFFCURVE",
"368 493 CURVE SMOOTH",
"368 524 OFFCURVE",
"352 540 OFFCURVE",
"323 540 CURVE SMOOTH",
"230 540 OFFCURVE",
"296 357 OFFCURVE",
"5 118 CURVE",
"36 107 LINE"
);
},
{
closed = 1;
nodes = (
"456 -65 LINE",
"456 -42 OFFCURVE",
"451 -38 OFFCURVE",
"432 -38 CURVE SMOOTH",
"189 -38 LINE",
"189 -65 LINE"
);
},
{
closed = 1;
nodes = (
"456 116 LINE",
"5 118 LINE",
"11 88 LINE",
"456 86 LINE"
);
},
{
closed = 1;
nodes = (
"364 -65 LINE",
"364 312 LINE",
"344 312 LINE",
"334 274 LINE SMOOTH",
"326 242 OFFCURVE",
"320 234 OFFCURVE",
"294 233 CURVE SMOOTH",
"288 233 LINE",
"288 -65 LINE"
);
}
);
};
guideLines = (
{
angle = 90;
position = "{405, -104}";
}
);
layerId = "AA78C373-A874-4B43-A7A1-B39102DDD1E4";
name = Bold;
paths = (
{
closed = 1;
nodes = (
"177 227 OFFCURVE",
"405 389 OFFCURVE",
"405 490 CURVE SMOOTH",
"405 533 OFFCURVE",
"371 555 OFFCURVE",
"329 555 CURVE SMOOTH",
"192 555 OFFCURVE",
"314 365 OFFCURVE",
"5 118 CURVE",
"41 110 LINE"
);
},
{
closed = 1;
nodes = (
"489 -65 LINE",
"489 -42 OFFCURVE",
"484 -38 OFFCURVE",
"465 -38 CURVE SMOOTH",
"159 -38 LINE",
"159 -65 LINE"
);
},
{
closed = 1;
nodes = (
"489 116 LINE",
"5 118 LINE",
"11 88 LINE",
"489 86 LINE"
);
},
{
closed = 1;
nodes = (
"402 -65 LINE",
"402 328 LINE",
"379 328 LINE",
"365 285 LINE SMOOTH",
"351 242 OFFCURVE",
"326 237 OFFCURVE",
"285 237 CURVE SMOOTH",
"273 237 LINE",
"273 -65 LINE"
);
}
);
width = 532;
},
{
associatedMasterId = "AA78C373-A874-4B43-A7A1-B39102DDD1E4";
background = {
paths = (
{
closed = 1;
nodes = (
"548 149 LINE",
"548 176 LINE",
"42 178 LINE",
"48 151 LINE"
);
},
{
closed = 1;
nodes = (
"548 0 LINE",
"548 23 OFFCURVE",
"543 27 OFFCURVE",
"524 27 CURVE SMOOTH",
"240 27 LINE",
"240 0 LINE"
);
},
{
closed = 1;
nodes = (
"461 0 LINE",
"461 390 LINE",
"436 390 LINE",
"419 340 OFFCURVE",
"403 321 OFFCURVE",
"327 320 CURVE",
"327 0 LINE"
);
},
{
closed = 1;
nodes = (
"72 170 LINE",
"168 287 OFFCURVE",
"383 447 OFFCURVE",
"383 548 CURVE SMOOTH",
"383 589 OFFCURVE",
"352 613 OFFCURVE",
"306 613 CURVE SMOOTH",
"240 613 OFFCURVE",
"221 569 OFFCURVE",
"204 500 CURVE SMOOTH",
"162 325 OFFCURVE",
"118 270 OFFCURVE",
"42 178 CURVE"
);
}
);
};
layerId = "DF35283F-6186-4205-9B5D-3F23CFC963C2";
name = "Bold Jul 13 15, 00:14";
paths = (
{
closed = 1;
nodes = (
"548 149 LINE",
"548 176 LINE",
"42 178 LINE",
"48 151 LINE"
);
},
{
closed = 1;
nodes = (
"548 0 LINE",
"548 23 OFFCURVE",
"543 27 OFFCURVE",
"524 27 CURVE SMOOTH",
"240 27 LINE",
"240 0 LINE"
);
},
{
closed = 1;
nodes = (
"461 0 LINE",
"461 390 LINE",
"436 390 LINE",
"419 340 OFFCURVE",
"403 321 OFFCURVE",
"327 320 CURVE",
"327 0 LINE"
);
},
{
closed = 1;
nodes = (
"72 170 LINE",
"116 223 OFFCURVE",
"383 487 OFFCURVE",
"383 558 CURVE SMOOTH",
"383 599 OFFCURVE",
"352 613 OFFCURVE",
"306 613 CURVE SMOOTH",
"229 613 OFFCURVE",
"216 559 OFFCURVE",
"202 490 CURVE SMOOTH",
"162 294 OFFCURVE",
"69 211 OFFCURVE",
"42 178 CURVE"
);
}
);
width = 578;
}
);
unicode = 0034;
},
{
color = 9;
glyphname = five;
lastChange = "2015-08-26 04:06:31 +0000";
layers = (
{
background = {
paths = (
{
closed = 1;
nodes = (
"375 -10 OFFCURVE",
"456 92 OFFCURVE",
"456 190 CURVE SMOOTH",
"456 282 OFFCURVE",
"386 371 OFFCURVE",
"249 371 CURVE SMOOTH",
"195 371 OFFCURVE",
"139 353 OFFCURVE",
"96 316 CURVE",
"117 295 LINE",
"151 323 OFFCURVE",
"190 334 OFFCURVE",
"225 334 CURVE SMOOTH",
"321 334 OFFCURVE",
"364 261 OFFCURVE",
"364 183 CURVE SMOOTH",
"364 91 OFFCURVE",
"311 16 OFFCURVE",
"213 16 CURVE SMOOTH",
"84 16 OFFCURVE",
"190 160 OFFCURVE",
"84 160 CURVE SMOOTH",
"50 160 OFFCURVE",
"37 139 OFFCURVE",
"37 111 CURVE SMOOTH",
"37 61 OFFCURVE",
"91 -10 OFFCURVE",
"217 -10 CURVE SMOOTH"
);
},
{
closed = 1;
nodes = (
"117 579 LINE",
"82 579 LINE",
"82 321 LINE",
"117 295 LINE"
);
},
{
closed = 1;
nodes = (
"402 514 OFFCURVE",
"420 540 OFFCURVE",
"420 649 CURVE",
"395 649 LINE",
"382 607 OFFCURVE",
"364 596 OFFCURVE",
"294 596 CURVE SMOOTH",
"249 596 OFFCURVE",
"183 601 OFFCURVE",
"82 605 CURVE",
"82 526 LINE",
"148 517 OFFCURVE",
"204 514 OFFCURVE",
"251 514 CURVE SMOOTH"
);
},
{
closed = 1;
nodes = (
"370 -70 OFFCURVE",
"448 27 OFFCURVE",
"448 122 CURVE SMOOTH",
"448 203 OFFCURVE",
"391 278 OFFCURVE",
"278 278 CURVE SMOOTH",
"240 278 OFFCURVE",
"195 269 OFFCURVE",
"154 251 CURVE",
"176 233 LINE",
"200 243 OFFCURVE",
"226 248 OFFCURVE",
"247 248 CURVE SMOOTH",
"318 248 OFFCURVE",
"365 196 OFFCURVE",
"365 108 CURVE SMOOTH",
"365 31 OFFCURVE",
"334 -45 OFFCURVE",
"216 -45 CURVE SMOOTH",
"99 -45 OFFCURVE",
"186 104 OFFCURVE",
"91 104 CURVE SMOOTH",
"62 104 OFFCURVE",
"45 83 OFFCURVE",
"45 55 CURVE SMOOTH",
"45 -20 OFFCURVE",
"126 -70 OFFCURVE",
"230 -70 CURVE SMOOTH"
);
}
);
};
layerId = "C18F3EFD-FA9C-4751-AD2F-5B966120D1A5";
name = Regular;
paths = (
{
closed = 1;
nodes = (
"368 -80 OFFCURVE",
"441 17 OFFCURVE",
"441 115 CURVE SMOOTH",
"441 210 OFFCURVE",
"374 300 OFFCURVE",
"249 300 CURVE SMOOTH",
"193 300 OFFCURVE",
"140 283 OFFCURVE",
"99 247 CURVE",
"119 227 LINE",
"152 254 OFFCURVE",
"189 265 OFFCURVE",
"226 265 CURVE SMOOTH",
"322 265 OFFCURVE",
"358 190 OFFCURVE",
"358 109 CURVE SMOOTH",
"358 16 OFFCURVE",
"313 -55 OFFCURVE",
"215 -55 CURVE SMOOTH",
"98 -55 OFFCURVE",
"187 94 OFFCURVE",
"92 94 CURVE SMOOTH",
"59 94 OFFCURVE",
"45 72 OFFCURVE",
"45 45 CURVE SMOOTH",
"45 -17 OFFCURVE",
"111 -80 OFFCURVE",
"222 -80 CURVE SMOOTH"
);
},
{
closed = 1;
nodes = (
"119 504 LINE",
"86 504 LINE",
"86 252 LINE",
"119 227 LINE"
);
},
{
closed = 1;
nodes = (
"390 447 OFFCURVE",
"407 470 OFFCURVE",
"407 570 CURVE",
"383 570 LINE",
"373 531 OFFCURVE",
"351 522 OFFCURVE",
"267 522 CURVE SMOOTH",
"221 522 OFFCURVE",
"161 526 OFFCURVE",
"86 529 CURVE",
"86 458 LINE",
"149 451 OFFCURVE",
"206 447 OFFCURVE",
"254 447 CURVE SMOOTH"
);
}
);
width = 476;
},
{
background = {
paths = (
{
closed = 1;
nodes = (
"357 -80 OFFCURVE",
"488 -20 OFFCURVE",
"488 123 CURVE SMOOTH",
"488 241 OFFCURVE",
"389 299 OFFCURVE",
"275 299 CURVE SMOOTH",
"216 299 OFFCURVE",
"161 280 OFFCURVE",
"110 243 CURVE",
"131 215 LINE",
"170 247 OFFCURVE",
"209 259 OFFCURVE",
"241 259 CURVE SMOOTH",
"313 259 OFFCURVE",
"359 207 OFFCURVE",
"359 113 CURVE SMOOTH",
"359 33 OFFCURVE",
"331 -53 OFFCURVE",
"240 -53 CURVE SMOOTH",
"116 -53 OFFCURVE",
"233 110 OFFCURVE",
"115 110 CURVE SMOOTH",
"75 110 OFFCURVE",
"51 85 OFFCURVE",
"51 47 CURVE SMOOTH",
"51 -41 OFFCURVE",
"141 -80 OFFCURVE",
"236 -80 CURVE SMOOTH"
);
},
{
closed = 1;
nodes = (
"131 516 LINE",
"97 516 LINE",
"97 241 LINE",
"131 215 LINE"
);
},
{
closed = 1;
nodes = (
"418 434 OFFCURVE",
"439 460 OFFCURVE",
"439 580 CURVE",
"412 580 LINE",
"399 544 OFFCURVE",
"381 533 OFFCURVE",
"315 533 CURVE SMOOTH",
"270 533 OFFCURVE",
"197 538 OFFCURVE",
"97 542 CURVE",
"97 447 LINE",
"162 438 OFFCURVE",
"227 434 OFFCURVE",
"272 434 CURVE SMOOTH"
);
}
);
};
guideLines = (
{
position = "{444, -70}";
}
);
layerId = "AA78C373-A874-4B43-A7A1-B39102DDD1E4";
name = Bold;
paths = (
{
closed = 1;
nodes = (
"356 -80 OFFCURVE",
"489 -26 OFFCURVE",
"489 114 CURVE SMOOTH",
"489 239 OFFCURVE",
"397 300 OFFCURVE",
"284 300 CURVE SMOOTH",
"225 300 OFFCURVE",
"163 281 OFFCURVE",
"110 243 CURVE",
"131 215 LINE",
"169 246 OFFCURVE",
"208 260 OFFCURVE",
"243 260 CURVE SMOOTH",
"311 260 OFFCURVE",
"359 209 OFFCURVE",
"359 113 CURVE SMOOTH",
"359 33 OFFCURVE",
"337 -53 OFFCURVE",
"246 -53 CURVE SMOOTH",
"126 -53 OFFCURVE",
"237 110 OFFCURVE",
"119 110 CURVE SMOOTH",
"79 110 OFFCURVE",
"55 85 OFFCURVE",
"55 47 CURVE SMOOTH",
"55 -37 OFFCURVE",
"141 -80 OFFCURVE",
"236 -80 CURVE SMOOTH"
);
},
{
closed = 1;
nodes = (
"131 516 LINE",
"97 516 LINE",
"97 241 LINE",
"131 215 LINE"
);
},
{
closed = 1;
nodes = (
"418 434 OFFCURVE",
"439 460 OFFCURVE",
"439 580 CURVE",
"412 580 LINE",
"399 544 OFFCURVE",
"381 533 OFFCURVE",
"315 533 CURVE SMOOTH",
"270 533 OFFCURVE",
"197 538 OFFCURVE",
"97 542 CURVE",
"97 447 LINE",
"162 438 OFFCURVE",
"227 434 OFFCURVE",
"272 434 CURVE SMOOTH"
);
}
);
width = 523;
}
);
unicode = 0035;
},
{
color = 9;
glyphname = six;
lastChange = "2015-08-26 04:06:45 +0000";
layers = (
{
background = {
paths = (
{
closed = 1;
nodes = (
"176 716 OFFCURVE",
"136 783 OFFCURVE",
"136 876 CURVE SMOOTH",
"136 969 OFFCURVE",
"178 1033 OFFCURVE",
"257 1033 CURVE SMOOTH",
"349 1033 OFFCURVE",
"378 969 OFFCURVE",
"378 879 CURVE SMOOTH",
"378 785 OFFCURVE",
"347 716 OFFCURVE",
"258 716 CURVE SMOOTH"
);
},
{
closed = 1;
nodes = (
"142 997 LINE",
"152 1155 OFFCURVE",
"166 1284 OFFCURVE",
"272 1284 CURVE SMOOTH",
"405 1284 OFFCURVE",
"294 1162 OFFCURVE",
"389 1149 CURVE SMOOTH",
"424 1144 OFFCURVE",
"445 1164 OFFCURVE",
"449 1194 CURVE SMOOTH",
"456 1244 OFFCURVE",
"403 1309 OFFCURVE",
"286 1309 CURVE SMOOTH",
"90 1309 OFFCURVE",
"36 1121 OFFCURVE",
"36 960 CURVE SMOOTH",
"36 812 OFFCURVE",
"105 690 OFFCURVE",
"259 690 CURVE SMOOTH",
"363 690 OFFCURVE",
"473 761 OFFCURVE",
"473 881 CURVE SMOOTH",
"473 1000 OFFCURVE",
"375 1065 OFFCURVE",
"274 1065 CURVE SMOOTH",
"218 1065 OFFCURVE",
"162 1044 OFFCURVE",
"119 999 CURVE"
);
},
{
closed = 1;
nodes = (
"366 -10 OFFCURVE",
"461 57 OFFCURVE",
"461 172 CURVE SMOOTH",
"461 283 OFFCURVE",
"368 347 OFFCURVE",
"270 347 CURVE SMOOTH",
"218 347 OFFCURVE",
"157 328 OFFCURVE",
"117 286 CURVE",
"140 284 LINE",
"147 434 OFFCURVE",
"167 555 OFFCURVE",
"275 555 CURVE SMOOTH",
"403 555 OFFCURVE",
"301 426 OFFCURVE",
"393 426 CURVE SMOOTH",
"424 426 OFFCURVE",
"442 447 OFFCURVE",
"442 476 CURVE SMOOTH",
"442 536 OFFCURVE",
"371 580 OFFCURVE",
"290 580 CURVE SMOOTH",
"178 580 OFFCURVE",
"50 499 OFFCURVE",
"50 270 CURVE SMOOTH",
"50 87 OFFCURVE",
"112 -10 OFFCURVE",
"259 -10 CURVE SMOOTH"
);
},
{
closed = 1;
nodes = (
"178 15 OFFCURVE",
"135 76 OFFCURVE",
"135 162 CURVE SMOOTH",
"135 271 OFFCURVE",
"195 318 OFFCURVE",
"259 318 CURVE SMOOTH",
"321 318 OFFCURVE",
"376 275 OFFCURVE",
"376 176 CURVE SMOOTH",
"376 83 OFFCURVE",
"341 15 OFFCURVE",
"257 15 CURVE SMOOTH"
);
}
);
};
layerId = "C18F3EFD-FA9C-4751-AD2F-5B966120D1A5";
name = Regular;
paths = (
{
closed = 1;
nodes = (
"366 -10 OFFCURVE",
"461 61 OFFCURVE",
"461 184 CURVE SMOOTH",
"461 307 OFFCURVE",
"368 371 OFFCURVE",
"270 371 CURVE SMOOTH",
"218 371 OFFCURVE",
"157 350 OFFCURVE",
"117 305 CURVE",
"140 303 LINE",
"147 467 OFFCURVE",
"170 584 OFFCURVE",
"280 584 CURVE SMOOTH",
"403 584 OFFCURVE",
"317 456 OFFCURVE",
"405 456 CURVE SMOOTH",
"436 456 OFFCURVE",
"452 477 OFFCURVE",
"452 506 CURVE SMOOTH",
"452 566 OFFCURVE",
"381 610 OFFCURVE",
"290 610 CURVE SMOOTH",
"131 610 OFFCURVE",
"50 469 OFFCURVE",
"50 284 CURVE SMOOTH",
"50 117 OFFCURVE",
"113 -10 OFFCURVE",
"259 -10 CURVE SMOOTH"
);
},
{
closed = 1;
nodes = (
"178 16 OFFCURVE",
"135 80 OFFCURVE",
"135 174 CURVE SMOOTH",
"135 295 OFFCURVE",
"195 342 OFFCURVE",
"259 342 CURVE SMOOTH",
"321 342 OFFCURVE",
"376 299 OFFCURVE",
"376 188 CURVE SMOOTH",
"376 87 OFFCURVE",
"341 16 OFFCURVE",
"257 16 CURVE SMOOTH"
);
}
);
width = 506;
},
{
background = {
paths = (
{
closed = 1;
nodes = (
"441 -10 OFFCURVE",
"519 89 OFFCURVE",
"519 185 CURVE SMOOTH",
"519 277 OFFCURVE",
"451 366 OFFCURVE",
"315 366 CURVE SMOOTH",
"253 366 OFFCURVE",
"190 343 OFFCURVE",
"144 296 CURVE",
"185 295 LINE",
"185 454 OFFCURVE",
"207 585 OFFCURVE",
"305 585 CURVE SMOOTH",
"421 585 OFFCURVE",
"300 436 OFFCURVE",
"428 436 CURVE SMOOTH",
"469 436 OFFCURVE",
"496 466 OFFCURVE",
"496 502 CURVE SMOOTH",
"496 557 OFFCURVE",
"425 609 OFFCURVE",
"315 609 CURVE SMOOTH",
"118 609 OFFCURVE",
"45 456 OFFCURVE",
"45 296 CURVE SMOOTH",
"45 72 OFFCURVE",
"158 -10 OFFCURVE",
"279 -10 CURVE SMOOTH"
);
},
{
closed = 1;
nodes = (
"229 16 OFFCURVE",
"185 64 OFFCURVE",
"185 173 CURVE SMOOTH",
"185 284 OFFCURVE",
"233 335 OFFCURVE",
"289 335 CURVE SMOOTH",
"342 335 OFFCURVE",
"384 290 OFFCURVE",
"384 184 CURVE SMOOTH",
"384 66 OFFCURVE",
"338 16 OFFCURVE",
"283 16 CURVE SMOOTH"
);
},
{
closed = 1;
nodes = (
"361 -10 OFFCURVE",
"456 57 OFFCURVE",
"456 172 CURVE SMOOTH",
"456 283 OFFCURVE",
"363 347 OFFCURVE",
"265 347 CURVE SMOOTH",
"213 347 OFFCURVE",
"152 326 OFFCURVE",
"112 281 CURVE",
"135 279 LINE",
"142 433 OFFCURVE",
"162 555 OFFCURVE",
"270 555 CURVE SMOOTH",
"398 555 OFFCURVE",
"296 426 OFFCURVE",
"388 426 CURVE SMOOTH",
"419 426 OFFCURVE",
"437 447 OFFCURVE",
"437 476 CURVE SMOOTH",
"437 536 OFFCURVE",
"366 580 OFFCURVE",
"285 580 CURVE SMOOTH",
"126 580 OFFCURVE",
"45 435 OFFCURVE",
"45 260 CURVE SMOOTH",
"45 101 OFFCURVE",
"108 -10 OFFCURVE",
"254 -10 CURVE SMOOTH"
);
},
{
closed = 1;
nodes = (
"173 15 OFFCURVE",
"130 76 OFFCURVE",
"130 162 CURVE SMOOTH",
"130 271 OFFCURVE",
"190 318 OFFCURVE",
"254 318 CURVE SMOOTH",
"316 318 OFFCURVE",
"371 275 OFFCURVE",
"371 176 CURVE SMOOTH",
"371 83 OFFCURVE",
"336 15 OFFCURVE",
"252 15 CURVE SMOOTH"
);
}
);
};
layerId = "AA78C373-A874-4B43-A7A1-B39102DDD1E4";
name = Bold;
paths = (
{
closed = 1;
nodes = (
"439 -10 OFFCURVE",
"517 92 OFFCURVE",
"517 190 CURVE SMOOTH",
"517 285 OFFCURVE",
"452 373 OFFCURVE",
"315 373 CURVE SMOOTH",
"253 373 OFFCURVE",
"187 348 OFFCURVE",
"141 301 CURVE",
"180 300 LINE",
"180 465 OFFCURVE",
"207 593 OFFCURVE",
"304 593 CURVE SMOOTH",
"429 593 OFFCURVE",
"322 447 OFFCURVE",
"442 447 CURVE SMOOTH",
"482 447 OFFCURVE",
"506 474 OFFCURVE",
"506 513 CURVE SMOOTH",
"506 568 OFFCURVE",
"435 620 OFFCURVE",
"315 620 CURVE SMOOTH",
"128 620 OFFCURVE",
"45 467 OFFCURVE",
"45 301 CURVE SMOOTH",
"45 77 OFFCURVE",
"158 -10 OFFCURVE",
"279 -10 CURVE SMOOTH"
);
},
{
closed = 1;
nodes = (
"217 17 OFFCURVE",
"182 61 OFFCURVE",
"182 173 CURVE SMOOTH",
"182 292 OFFCURVE",
"221 340 OFFCURVE",
"289 340 CURVE SMOOTH",
"354 340 OFFCURVE",
"387 298 OFFCURVE",
"387 184 CURVE SMOOTH",
"387 63 OFFCURVE",
"350 17 OFFCURVE",
"283 17 CURVE SMOOTH"
);
}
);
width = 552;
}
);
unicode = 0036;
},
{
color = 9;
glyphname = seven;
lastChange = "2015-08-10 07:55:02 +0000";
layers = (
{
background = {
paths = (
{
closed = 1;
nodes = (
"260 -15 OFFCURVE",
"148 124 OFFCURVE",
"456 580 CURVE",
"429 591 LINE",
"202 256 OFFCURVE",
"94 110 OFFCURVE",
"94 39 CURVE SMOOTH",
"94 4 OFFCURVE",
"113 -15 OFFCURVE",
"152 -15 CURVE SMOOTH"
);
},
{
closed = 1;
nodes = (
"43 421 LINE",
"61 477 LINE SMOOTH",
"74 518 OFFCURVE",
"98 524 OFFCURVE",
"139 524 CURVE",
"22 600 LINE",
"20 421 LINE"
);
},
{
closed = 1;
nodes = (
"386 524 LINE",
"456 580 LINE",
"456 600 LINE",
"22 600 LINE",
"22 524 LINE"
);
}
);
};
layerId = "C18F3EFD-FA9C-4751-AD2F-5B966120D1A5";
name = Regular;
paths = (
{
closed = 1;
nodes = (
"249 -80 OFFCURVE",
"148 54 OFFCURVE",
"456 510 CURVE",
"429 521 LINE",
"202 186 OFFCURVE",
"97 43 OFFCURVE",
"97 -32 CURVE SMOOTH",
"97 -61 OFFCURVE",
"114 -80 OFFCURVE",
"146 -80 CURVE SMOOTH"
);
},
{
closed = 1;
nodes = (
"47 354 LINE",
"65 410 LINE SMOOTH",
"78 451 OFFCURVE",
"102 457 OFFCURVE",
"143 457 CURVE",
"27 530 LINE",
"25 354 LINE"
);
},
{
closed = 1;
nodes = (
"386 457 LINE",
"456 510 LINE",
"456 530 LINE",
"27 530 LINE",
"27 457 LINE"
);
}
);
width = 446;
},
{
background = {
paths = (
{
closed = 1;
nodes = (
"320 -15 OFFCURVE",
"195 171 OFFCURVE",
"480 573 CURVE",
"448 581 LINE",
"248 287 OFFCURVE",
"102 151 OFFCURVE",
"102 50 CURVE SMOOTH",
"102 7 OFFCURVE",
"136 -15 OFFCURVE",
"178 -15 CURVE SMOOTH"
);
},
{
closed = 1;
nodes = (
"65 414 LINE",
"83 460 LINE SMOOTH",
"99 501 OFFCURVE",
"120 503 OFFCURVE",
"161 503 CURVE",
"42 603 LINE",
"40 414 LINE"
);
},
{
closed = 1;
nodes = (
"410 503 LINE",
"480 573 LINE",
"480 603 LINE",
"42 603 LINE",
"42 503 LINE"
);
},
{
closed = 1;
nodes = (
"249 -75 OFFCURVE",
"148 59 OFFCURVE",
"456 510 CURVE",
"429 521 LINE",
"202 186 OFFCURVE",
"97 48 OFFCURVE",
"97 -27 CURVE SMOOTH",
"97 -56 OFFCURVE",
"114 -75 OFFCURVE",
"146 -75 CURVE SMOOTH"
);
},
{
closed = 1;
nodes = (
"47 354 LINE",
"65 410 LINE SMOOTH",
"78 451 OFFCURVE",
"102 457 OFFCURVE",
"143 457 CURVE",
"27 530 LINE",
"25 354 LINE"
);
},
{
closed = 1;
nodes = (
"386 457 LINE",
"456 510 LINE",
"456 530 LINE",
"27 530 LINE",
"27 457 LINE"
);
}
);
};
layerId = "AA78C373-A874-4B43-A7A1-B39102DDD1E4";
name = Bold;
paths = (
{
closed = 1;
nodes = (
"310 -80 OFFCURVE",
"195 106 OFFCURVE",
"480 510 CURVE",
"448 518 LINE",
"248 224 OFFCURVE",
"105 86 OFFCURVE",
"105 -15 CURVE SMOOTH",
"105 -58 OFFCURVE",
"138 -80 OFFCURVE",
"178 -80 CURVE SMOOTH"
);
},
{
closed = 1;
nodes = (
"65 359 LINE",
"83 405 LINE SMOOTH",
"99 446 OFFCURVE",
"120 448 OFFCURVE",
"161 448 CURVE",
"42 540 LINE",
"40 359 LINE"
);
},
{
closed = 1;
nodes = (
"410 448 LINE",
"480 510 LINE",
"480 540 LINE",
"42 540 LINE",
"42 448 LINE"
);
}
);
width = 485;
}
);
unicode = 0037;
},
{
color = 9;
glyphname = eight;
lastChange = "2015-08-26 04:06:40 +0000";
layers = (
{
background = {
paths = (
{
closed = 1;
nodes = (
"150 261 OFFCURVE",
"96 196 OFFCURVE",
"96 137 CURVE SMOOTH",
"96 74 OFFCURVE",
"146 18 OFFCURVE",
"255 18 CURVE SMOOTH",
"328 18 OFFCURVE",
"386 52 OFFCURVE",
"383 127 CURVE SMOOTH",
"379 259 OFFCURVE",
"72 272 OFFCURVE",
"65 455 CURVE SMOOTH",
"62 560 OFFCURVE",
"168 612 OFFCURVE",
"271 612 CURVE SMOOTH",
"391 612 OFFCURVE",
"442 544 OFFCURVE",
"442 465 CURVE SMOOTH",
"442 405 OFFCURVE",
"400 342 OFFCURVE",
"302 306 CURVE",
"278 318 LINE",
"369 354 OFFCURVE",
"408 412 OFFCURVE",
"408 465 CURVE SMOOTH",
"408 531 OFFCURVE",
"373 584 OFFCURVE",
"277 584 CURVE SMOOTH",
"217 584 OFFCURVE",
"162 556 OFFCURVE",
"165 485 CURVE SMOOTH",
"169 350 OFFCURVE",
"474 341 OFFCURVE",
"474 148 CURVE SMOOTH",
"474 44 OFFCURVE",
"376 -11 OFFCURVE",
"268 -11 CURVE SMOOTH",
"132 -11 OFFCURVE",
"64 62 OFFCURVE",
"64 139 CURVE SMOOTH",
"64 202 OFFCURVE",
"119 268 OFFCURVE",
"213 299 CURVE",
"244 287 LINE"
);
}
);
};
guideLines = (
{
angle = 90;
position = "{76, 303}";
},
{
angle = 90;
position = "{447, 303}";
}
);
layerId = "C18F3EFD-FA9C-4751-AD2F-5B966120D1A5";
name = Regular;
paths = (
{
closed = 1;
nodes = (
"137 276 OFFCURVE",
"94 206 OFFCURVE",
"94 149 CURVE SMOOTH",
"94 63 OFFCURVE",
"170 18 OFFCURVE",
"248 18 CURVE SMOOTH",
"329 18 OFFCURVE",
"395 53 OFFCURVE",
"395 130 CURVE SMOOTH",
"395 282 OFFCURVE",
"81 286 OFFCURVE",
"81 454 CURVE SMOOTH",
"81 554 OFFCURVE",
"166 610 OFFCURVE",
"268 610 CURVE SMOOTH",
"353 610 OFFCURVE",
"439 563 OFFCURVE",
"439 465 CURVE SMOOTH",
"439 402 OFFCURVE",
"399 333 OFFCURVE",
"303 301 CURVE",
"279 320 LINE",
"367 341 OFFCURVE",
"405 406 OFFCURVE",
"405 464 CURVE SMOOTH",
"405 541 OFFCURVE",
"339 582 OFFCURVE",
"276 582 CURVE SMOOTH",
"204 582 OFFCURVE",
"159 548 OFFCURVE",
"159 490 CURVE SMOOTH",
"159 329 OFFCURVE",
"473 331 OFFCURVE",
"473 154 CURVE SMOOTH",
"473 53 OFFCURVE",
"368 -10 OFFCURVE",
"255 -10 CURVE SMOOTH",
"147 -10 OFFCURVE",
"60 45 OFFCURVE",
"60 147 CURVE SMOOTH",
"60 209 OFFCURVE",
"97 281 OFFCURVE",
"204 308 CURVE",
"250 292 LINE"
);
}
);
width = 538;
},
{
background = {
paths = (
{
closed = 1;
nodes = (
"129 270 OFFCURVE",
"81 203 OFFCURVE",
"81 147 CURVE SMOOTH",
"81 62 OFFCURVE",
"164 20 OFFCURVE",
"241 20 CURVE SMOOTH",
"313 20 OFFCURVE",
"375 52 OFFCURVE",
"375 120 CURVE SMOOTH",
"375 253 OFFCURVE",
"58 273 OFFCURVE",
"58 449 CURVE SMOOTH",
"58 559 OFFCURVE",
"164 611 OFFCURVE",
"263 611 CURVE SMOOTH",
"372 611 OFFCURVE",
"450 561 OFFCURVE",
"450 468 CURVE SMOOTH",
"450 404 OFFCURVE",
"397 338 OFFCURVE",
"304 305 CURVE",
"267 322 LINE",
"360 344 OFFCURVE",
"414 409 OFFCURVE",
"414 469 CURVE SMOOTH",
"414 543 OFFCURVE",
"351 583 OFFCURVE",
"282 583 CURVE SMOOTH",
"227 583 OFFCURVE",
"176 554 OFFCURVE",
"176 495 CURVE SMOOTH",
"176 359 OFFCURVE",
"495 346 OFFCURVE",
"495 167 CURVE SMOOTH",
"495 48 OFFCURVE",
"374 -11 OFFCURVE",
"257 -11 CURVE SMOOTH",
"115 -11 OFFCURVE",
"45 66 OFFCURVE",
"45 144 CURVE SMOOTH",
"45 210 OFFCURVE",
"97 275 OFFCURVE",
"195 305 CURVE",
"242 286 LINE"
);
}
);
};
layerId = "AA78C373-A874-4B43-A7A1-B39102DDD1E4";
name = Bold;
paths = (
{
closed = 1;
nodes = (
"129 276 OFFCURVE",
"86 209 OFFCURVE",
"86 150 CURVE SMOOTH",
"86 65 OFFCURVE",
"169 20 OFFCURVE",
"241 20 CURVE SMOOTH",
"316 20 OFFCURVE",
"378 55 OFFCURVE",
"378 123 CURVE SMOOTH",
"378 269 OFFCURVE",
"63 290 OFFCURVE",
"63 460 CURVE SMOOTH",
"63 568 OFFCURVE",
"164 620 OFFCURVE",
"263 620 CURVE SMOOTH",
"372 620 OFFCURVE",
"450 570 OFFCURVE",
"450 475 CURVE SMOOTH",
"450 411 OFFCURVE",
"397 344 OFFCURVE",
"304 311 CURVE",
"267 328 LINE",
"360 350 OFFCURVE",
"414 416 OFFCURVE",
"414 476 CURVE SMOOTH",
"414 552 OFFCURVE",
"351 590 OFFCURVE",
"282 590 CURVE SMOOTH",
"224 590 OFFCURVE",
"173 563 OFFCURVE",
"173 502 CURVE SMOOTH",
"173 356 OFFCURVE",
"490 342 OFFCURVE",
"490 166 CURVE SMOOTH",
"490 51 OFFCURVE",
"374 -10 OFFCURVE",
"257 -10 CURVE SMOOTH",
"120 -10 OFFCURVE",
"50 69 OFFCURVE",
"50 147 CURVE SMOOTH",
"50 216 OFFCURVE",
"97 281 OFFCURVE",
"195 311 CURVE",
"242 292 LINE"
);
}
);
width = 545;
},
{
associatedMasterId = "C18F3EFD-FA9C-4751-AD2F-5B966120D1A5";
background = {
paths = (
{
closed = 1;
nodes = (
"156 261 OFFCURVE",
"102 196 OFFCURVE",
"102 137 CURVE SMOOTH",
"102 74 OFFCURVE",
"152 18 OFFCURVE",
"261 18 CURVE SMOOTH",
"334 18 OFFCURVE",
"392 52 OFFCURVE",
"389 127 CURVE SMOOTH",
"385 259 OFFCURVE",
"78 272 OFFCURVE",
"71 455 CURVE SMOOTH",
"68 560 OFFCURVE",
"174 612 OFFCURVE",
"277 612 CURVE SMOOTH",
"397 612 OFFCURVE",
"448 544 OFFCURVE",
"448 465 CURVE SMOOTH",
"448 405 OFFCURVE",
"406 342 OFFCURVE",
"308 306 CURVE",
"284 318 LINE",
"375 354 OFFCURVE",
"414 412 OFFCURVE",
"414 465 CURVE SMOOTH",
"414 531 OFFCURVE",
"379 584 OFFCURVE",
"283 584 CURVE SMOOTH",
"223 584 OFFCURVE",
"168 556 OFFCURVE",
"171 485 CURVE SMOOTH",
"175 350 OFFCURVE",
"480 341 OFFCURVE",
"480 148 CURVE SMOOTH",
"480 44 OFFCURVE",
"382 -11 OFFCURVE",
"274 -11 CURVE SMOOTH",
"138 -11 OFFCURVE",
"70 62 OFFCURVE",
"70 139 CURVE SMOOTH",
"70 202 OFFCURVE",
"125 268 OFFCURVE",
"219 299 CURVE",
"250 287 LINE"
);
}
);
};
guideLines = (
{
angle = 90;
position = "{87, 303}";
},
{
angle = 90;
position = "{454, 303}";
}
);
layerId = "DB79F489-3D81-4206-A1EF-625B0C423A44";
name = "Regular Jul 13 15, 18:43";
paths = (
{
closed = 1;
nodes = (
"152 271 OFFCURVE",
"100 205 OFFCURVE",
"100 142 CURVE SMOOTH",
"100 78 OFFCURVE",
"153 18 OFFCURVE",
"261 18 CURVE SMOOTH",
"339 18 OFFCURVE",
"397 52 OFFCURVE",
"394 127 CURVE SMOOTH",
"390 259 OFFCURVE",
"78 272 OFFCURVE",
"71 455 CURVE SMOOTH",
"68 560 OFFCURVE",
"169 612 OFFCURVE",
"277 612 CURVE SMOOTH",
"391 612 OFFCURVE",
"451 543 OFFCURVE",
"451 469 CURVE SMOOTH",
"451 405 OFFCURVE",
"405 336 OFFCURVE",
"308 306 CURVE",
"284 325 LINE",
"374 345 OFFCURVE",
"417 407 OFFCURVE",
"417 466 CURVE SMOOTH",
"417 527 OFFCURVE",
"371 584 OFFCURVE",
"283 584 CURVE SMOOTH",
"218 584 OFFCURVE",
"158 556 OFFCURVE",
"161 485 CURVE SMOOTH",
"165 350 OFFCURVE",
"486 341 OFFCURVE",
"486 148 CURVE SMOOTH",
"486 44 OFFCURVE",
"387 -11 OFFCURVE",
"265 -11 CURVE SMOOTH",
"135 -11 OFFCURVE",
"68 64 OFFCURVE",
"68 142 CURVE SMOOTH",
"68 207 OFFCURVE",
"116 274 OFFCURVE",
"214 299 CURVE",
"256 285 LINE"
);
}
);
width = 551;
}
);
unicode = 0038;
},
{
color = 9;
glyphname = nine;
lastChange = "2015-08-26 04:06:49 +0000";
layers = (
{
background = {
paths = (
{
closed = 1;
nodes = (
"136 522 OFFCURVE",
"41 451 OFFCURVE",
"41 328 CURVE SMOOTH",
"41 205 OFFCURVE",
"134 141 OFFCURVE",
"232 141 CURVE SMOOTH",
"284 141 OFFCURVE",
"345 162 OFFCURVE",
"385 207 CURVE",
"362 209 LINE",
"355 45 OFFCURVE",
"335 -73 OFFCURVE",
"227 -73 CURVE SMOOTH",
"99 -73 OFFCURVE",
"185 56 OFFCURVE",
"97 56 CURVE SMOOTH",
"66 56 OFFCURVE",
"50 35 OFFCURVE",
"50 6 CURVE SMOOTH",
"50 -54 OFFCURVE",
"121 -98 OFFCURVE",
"212 -98 CURVE SMOOTH",
"371 -98 OFFCURVE",
"452 43 OFFCURVE",
"452 228 CURVE SMOOTH",
"452 395 OFFCURVE",
"389 522 OFFCURVE",
"243 522 CURVE SMOOTH"
);
},
{
closed = 1;
nodes = (
"324 497 OFFCURVE",
"367 432 OFFCURVE",
"367 338 CURVE SMOOTH",
"367 217 OFFCURVE",
"307 170 OFFCURVE",
"243 170 CURVE SMOOTH",
"181 170 OFFCURVE",
"126 213 OFFCURVE",
"126 324 CURVE SMOOTH",
"126 425 OFFCURVE",
"161 497 OFFCURVE",
"245 497 CURVE SMOOTH"
);
}
);
};
layerId = "C18F3EFD-FA9C-4751-AD2F-5B966120D1A5";
name = Regular;
paths = (
{
closed = 1;
nodes = (
"394 -80 OFFCURVE",
"460 72 OFFCURVE",
"460 245 CURVE SMOOTH",
"460 420 OFFCURVE",
"385 540 OFFCURVE",
"244 540 CURVE SMOOTH",
"128 540 OFFCURVE",
"45 465 OFFCURVE",
"45 356 CURVE SMOOTH",
"45 241 OFFCURVE",
"130 177 OFFCURVE",
"230 177 CURVE SMOOTH",
"288 177 OFFCURVE",
"350 200 OFFCURVE",
"391 248 CURVE",
"370 249 LINE",
"370 85 OFFCURVE",
"340 -54 OFFCURVE",
"224 -54 CURVE SMOOTH",
"104 -54 OFFCURVE",
"192 73 OFFCURVE",
"101 73 CURVE SMOOTH",
"73 73 OFFCURVE",
"54 55 OFFCURVE",
"54 25 CURVE SMOOTH",
"54 -34 OFFCURVE",
"119 -80 OFFCURVE",
"212 -80 CURVE SMOOTH"
);
},
{
closed = 1;
nodes = (
"157 207 OFFCURVE",
"130 277 OFFCURVE",
"130 369 CURVE SMOOTH",
"130 449 OFFCURVE",
"159 514 OFFCURVE",
"244 514 CURVE SMOOTH",
"330 514 OFFCURVE",
"367 444 OFFCURVE",
"367 358 CURVE SMOOTH",
"367 253 OFFCURVE",
"315 207 OFFCURVE",
"242 207 CURVE SMOOTH"
);
}
);
width = 510;
},
{
background = {
paths = (
{
closed = 1;
nodes = (
"106 550 OFFCURVE",
"28 448 OFFCURVE",
"28 350 CURVE SMOOTH",
"28 260 OFFCURVE",
"93 174 OFFCURVE",
"230 174 CURVE SMOOTH",
"292 174 OFFCURVE",
"358 197 OFFCURVE",
"404 244 CURVE",
"365 245 LINE",
"365 85 OFFCURVE",
"338 -46 OFFCURVE",
"241 -46 CURVE SMOOTH",
"116 -46 OFFCURVE",
"223 103 OFFCURVE",
"103 103 CURVE SMOOTH",
"63 103 OFFCURVE",
"39 76 OFFCURVE",
"39 37 CURVE SMOOTH",
"39 -18 OFFCURVE",
"110 -70 OFFCURVE",
"230 -70 CURVE SMOOTH",
"417 -70 OFFCURVE",
"500 83 OFFCURVE",
"500 244 CURVE SMOOTH",
"500 468 OFFCURVE",
"387 550 OFFCURVE",
"266 550 CURVE SMOOTH"
);
},
{
closed = 1;
nodes = (
"328 524 OFFCURVE",
"363 479 OFFCURVE",
"363 367 CURVE SMOOTH",
"363 253 OFFCURVE",
"324 205 OFFCURVE",
"256 205 CURVE SMOOTH",
"191 205 OFFCURVE",
"158 247 OFFCURVE",
"158 356 CURVE SMOOTH",
"158 477 OFFCURVE",
"195 524 OFFCURVE",
"262 524 CURVE SMOOTH"
);
}
);
};
guideLines = (
{
position = "{-1824, -70}";
}
);
layerId = "AA78C373-A874-4B43-A7A1-B39102DDD1E4";
name = Bold;
paths = (
{
closed = 1;
nodes = (
"364 -80 OFFCURVE",
"507 4 OFFCURVE",
"507 259 CURVE SMOOTH",
"507 448 OFFCURVE",
"409 550 OFFCURVE",
"264 550 CURVE SMOOTH",
"118 550 OFFCURVE",
"35 471 OFFCURVE",
"35 357 CURVE SMOOTH",
"35 247 OFFCURVE",
"114 179 OFFCURVE",
"250 179 CURVE SMOOTH",
"314 179 OFFCURVE",
"372 202 OFFCURVE",
"415 251 CURVE",
"372 252 LINE",
"372 87 OFFCURVE",
"361 -53 OFFCURVE",
"250 -53 CURVE SMOOTH",
"123 -53 OFFCURVE",
"223 104 OFFCURVE",
"110 104 CURVE SMOOTH",
"66 104 OFFCURVE",
"43 74 OFFCURVE",
"43 42 CURVE SMOOTH",
"43 -27 OFFCURVE",
"135 -80 OFFCURVE",
"237 -80 CURVE SMOOTH"
);
},
{
closed = 1;
nodes = (
"198 212 OFFCURVE",
"165 262 OFFCURVE",
"165 374 CURVE SMOOTH",
"165 478 OFFCURVE",
"201 523 OFFCURVE",
"267 523 CURVE SMOOTH",
"334 523 OFFCURVE",
"372 475 OFFCURVE",
"372 363 CURVE SMOOTH",
"372 259 OFFCURVE",
"332 212 OFFCURVE",
"266 212 CURVE SMOOTH"
);
}
);
width = 552;
},
{
associatedMasterId = "C18F3EFD-FA9C-4751-AD2F-5B966120D1A5";
background = {
paths = (
{
closed = 1;
nodes = (
"282 235 OFFCURVE",
"326 247 OFFCURVE",
"363 274 CURVE",
"350 130 OFFCURVE",
"331 16 OFFCURVE",
"234 16 CURVE SMOOTH",
"98 16 OFFCURVE",
"217 153 OFFCURVE",
"110 155 CURVE SMOOTH",
"76 155 OFFCURVE",
"57 131 OFFCURVE",
"57 100 CURVE SMOOTH",
"57 47 OFFCURVE",
"119 -10 OFFCURVE",
"234 -10 CURVE SMOOTH",
"424 -10 OFFCURVE",
"475 181 OFFCURVE",
"475 342 CURVE SMOOTH",
"475 489 OFFCURVE",
"406 610 OFFCURVE",
"251 610 CURVE SMOOTH",
"138 610 OFFCURVE",
"39 540 OFFCURVE",
"39 419 CURVE SMOOTH",
"39 302 OFFCURVE",
"136 235 OFFCURVE",
"239 235 CURVE SMOOTH"
);
},
{
closed = 1;
nodes = (
"336 584 OFFCURVE",
"376 520 OFFCURVE",
"376 429 CURVE SMOOTH",
"376 318 OFFCURVE",
"324 267 OFFCURVE",
"254 267 CURVE SMOOTH",
"167 267 OFFCURVE",
"134 328 OFFCURVE",
"134 415 CURVE SMOOTH",
"134 512 OFFCURVE",
"165 584 OFFCURVE",
"253 584 CURVE SMOOTH"
);
}
);
};
layerId = "A5EE381E-FE37-4882-9870-38E31D294823";
name = "Regular Jul 13 15, 16:31";
paths = (
{
closed = 1;
nodes = (
"186 584 OFFCURVE",
"250 584 CURVE SMOOTH",
"316 584 OFFCURVE",
"372 530 OFFCURVE",
"372 424 CURVE SMOOTH",
"372 328 OFFCURVE",
"316 279 OFFCURVE",
"250 279 CURVE SMOOTH",
"186 279 OFFCURVE",
"132 326 OFFCURVE",
"132 425 CURVE SMOOTH",
"132 532 OFFCURVE"
);
},
{
closed = 1;
nodes = (
"367 322 LINE",
"363 164 OFFCURVE",
"350 19 OFFCURVE",
"246 15 CURVE SMOOTH",
"104 10 OFFCURVE",
"216 162 OFFCURVE",
"115 162 CURVE SMOOTH",
"80 162 OFFCURVE",
"61 139 OFFCURVE",
"61 108 CURVE SMOOTH",
"61 42 OFFCURVE",
"142 -11 OFFCURVE",
"236 -11 CURVE SMOOTH",
"358 -11 OFFCURVE",
"488 78 OFFCURVE",
"478 342 CURVE SMOOTH",
"472 537 OFFCURVE",
"364 610 OFFCURVE",
"255 610 CURVE SMOOTH",
"102 610 OFFCURVE",
"31 524 OFFCURVE",
"31 431 CURVE SMOOTH",
"31 336 OFFCURVE",
"96 249 OFFCURVE",
"227 249 CURVE SMOOTH",
"287 249 OFFCURVE",
"349 272 OFFCURVE",
"393 321 CURVE"
);
}
);
width = 517;
}
);
unicode = 0039;
},
{
color = 1;
glyphname = colon;
lastChange = "2015-07-14 17:14:25 +0000";
layers = (
{
layerId = "C18F3EFD-FA9C-4751-AD2F-5B966120D1A5";
name = Regular;
paths = (
{
closed = 1;
nodes = (
"131 286 OFFCURVE",
"153 308 OFFCURVE",
"153 335 CURVE SMOOTH",
"153 362 OFFCURVE",
"131 384 OFFCURVE",
"104 384 CURVE SMOOTH",
"77 384 OFFCURVE",
"55 362 OFFCURVE",
"55 335 CURVE SMOOTH",
"55 308 OFFCURVE",
"77 286 OFFCURVE",
"104 286 CURVE SMOOTH"
);
},
{
closed = 1;
nodes = (
"131 52 OFFCURVE",
"153 74 OFFCURVE",
"153 101 CURVE SMOOTH",
"153 128 OFFCURVE",
"131 150 OFFCURVE",
"104 150 CURVE SMOOTH",
"77 150 OFFCURVE",
"55 128 OFFCURVE",
"55 101 CURVE SMOOTH",
"55 74 OFFCURVE",
"77 52 OFFCURVE",
"104 52 CURVE SMOOTH"
);
}
);
width = 208;
},
{
background = {
paths = (
{
closed = 1;
nodes = (
"127 286 OFFCURVE",
"149 308 OFFCURVE",
"149 335 CURVE SMOOTH",
"149 362 OFFCURVE",
"127 384 OFFCURVE",
"100 384 CURVE SMOOTH",
"73 384 OFFCURVE",
"51 362 OFFCURVE",
"51 335 CURVE SMOOTH",
"51 308 OFFCURVE",
"73 286 OFFCURVE",
"100 286 CURVE SMOOTH"
);
},
{
closed = 1;
nodes = (
"127 52 OFFCURVE",
"149 74 OFFCURVE",
"149 101 CURVE SMOOTH",
"149 128 OFFCURVE",
"127 150 OFFCURVE",
"100 150 CURVE SMOOTH",
"73 150 OFFCURVE",
"51 128 OFFCURVE",
"51 101 CURVE SMOOTH",
"51 74 OFFCURVE",
"73 52 OFFCURVE",
"100 52 CURVE SMOOTH"
);
}
);
};
layerId = "AA78C373-A874-4B43-A7A1-B39102DDD1E4";
name = Bold;
paths = (
{
closed = 1;
nodes = (
"139 34 OFFCURVE",
"171 64 OFFCURVE",
"171 104 CURVE SMOOTH",
"171 143 OFFCURVE",
"139 180 OFFCURVE",
"100 180 CURVE SMOOTH",
"61 180 OFFCURVE",
"30 143 OFFCURVE",
"30 104 CURVE SMOOTH",
"30 64 OFFCURVE",
"61 34 OFFCURVE",
"100 34 CURVE SMOOTH"
);
},
{
closed = 1;
nodes = (
"139 262 OFFCURVE",
"171 292 OFFCURVE",
"171 332 CURVE SMOOTH",
"171 371 OFFCURVE",
"139 403 OFFCURVE",
"100 403 CURVE SMOOTH",
"61 403 OFFCURVE",
"30 371 OFFCURVE",
"30 332 CURVE SMOOTH",
"30 292 OFFCURVE",
"61 262 OFFCURVE",
"100 262 CURVE SMOOTH"
);
}
);
width = 201;
}
);
unicode = 003A;
},
{
color = 1;
glyphname = semicolon;
lastChange = "2015-08-26 04:16:39 +0000";
layers = (
{
layerId = "C18F3EFD-FA9C-4751-AD2F-5B966120D1A5";
name = Regular;
paths = (
{
closed = 1;
nodes = (
"126 233 OFFCURVE",
"148 255 OFFCURVE",
"148 282 CURVE SMOOTH",
"148 309 OFFCURVE",
"126 331 OFFCURVE",
"99 331 CURVE SMOOTH",
"72 331 OFFCURVE",
"50 309 OFFCURVE",
"50 282 CURVE SMOOTH",
"50 255 OFFCURVE",
"72 233 OFFCURVE",
"99 233 CURVE SMOOTH"
);
},
{
closed = 1;
nodes = (
"131 -38 OFFCURVE",
"153 13 OFFCURVE",
"153 54 CURVE SMOOTH",
"153 92 OFFCURVE",
"134 120 OFFCURVE",
"98 120 CURVE SMOOTH",
"71 120 OFFCURVE",
"50 98 OFFCURVE",
"50 70 CURVE SMOOTH",
"50 44 OFFCURVE",
"70 28 OFFCURVE",
"90 24 CURVE SMOOTH",
"104 21 OFFCURVE",
"113 16 OFFCURVE",
"113 7 CURVE SMOOTH",
"113 -10 OFFCURVE",
"93 -40 OFFCURVE",
"69 -65 CURVE",
"90 -80 LINE"
);
}
);
width = 193;
},
{
layerId = "AA78C373-A874-4B43-A7A1-B39102DDD1E4";
name = Bold;
paths = (
{
closed = 1;
nodes = (
"134 232 OFFCURVE",
"166 262 OFFCURVE",
"166 302 CURVE SMOOTH",
"166 341 OFFCURVE",
"134 373 OFFCURVE",
"95 373 CURVE SMOOTH",
"56 373 OFFCURVE",
"25 341 OFFCURVE",
"25 302 CURVE SMOOTH",
"25 262 OFFCURVE",
"56 232 OFFCURVE",
"95 232 CURVE SMOOTH"
);
},
{
closed = 1;
nodes = (
"134 -57 OFFCURVE",
"167 10 OFFCURVE",
"167 66 CURVE SMOOTH",
"167 113 OFFCURVE",
"142 149 OFFCURVE",
"93 149 CURVE SMOOTH",
"55 149 OFFCURVE",
"25 117 OFFCURVE",
"25 78 CURVE SMOOTH",
"25 40 OFFCURVE",
"53 15 OFFCURVE",
"82 9 CURVE SMOOTH",
"101 5 OFFCURVE",
"108 -2 OFFCURVE",
"108 -16 CURVE SMOOTH",
"108 -33 OFFCURVE",
"93 -63 OFFCURVE",
"69 -88 CURVE",
"90 -104 LINE"
);
}
);
width = 187;
}
);
unicode = 003B;
},
{
color = 1;
glyphname = question;
lastChange = "2015-08-26 04:22:42 +0000";
layers = (
{
background = {
paths = (
{
closed = 1;
nodes = (
"225 192 LINE",
"225 348 OFFCURVE",
"427 318 OFFCURVE",
"427 485 CURVE SMOOTH",
"427 660 OFFCURVE",
"50 648 OFFCURVE",
"50 507 CURVE SMOOTH",
"50 477 OFFCURVE",
"70 453 OFFCURVE",
"110 453 CURVE SMOOTH",
"216 453 OFFCURVE",
"125 585 OFFCURVE",
"234 585 CURVE SMOOTH",
"264 585 OFFCURVE",
"295 565 OFFCURVE",
"295 500 CURVE SMOOTH",
"295 321 OFFCURVE",
"191 358 OFFCURVE",
"191 192 CURVE"
);
}
);
};
components = (
{
name = period;
transform = "{1, 0, 0, 1, 107, 0}";
}
);
guideLines = (
{
position = "{350, 167}";
}
);
layerId = "C18F3EFD-FA9C-4751-AD2F-5B966120D1A5";
name = Regular;
paths = (
{
closed = 1;
nodes = (
"223 167 LINE",
"223 339 OFFCURVE",
"405 355 OFFCURVE",
"405 480 CURVE SMOOTH",
"405 573 OFFCURVE",
"324 610 OFFCURVE",
"232 610 CURVE SMOOTH",
"142 610 OFFCURVE",
"60 570 OFFCURVE",
"60 506 CURVE SMOOTH",
"60 476 OFFCURVE",
"74 453 OFFCURVE",
"109 453 CURVE SMOOTH",
"197 453 OFFCURVE",
"114 584 OFFCURVE",
"223 584 CURVE SMOOTH",
"292 584 OFFCURVE",
"309 548 OFFCURVE",
"309 500 CURVE SMOOTH",
"309 367 OFFCURVE",
"193 338 OFFCURVE",
"193 167 CURVE"
);
}
);
width = 457;
},
{
background = {
paths = (
{
closed = 1;
nodes = (
"289 582 OFFCURVE",
"270 610 OFFCURVE",
"202 610 CURVE SMOOTH",
"133 610 OFFCURVE",
"115 580 OFFCURVE",
"115 541 CURVE SMOOTH",
"115 458 OFFCURVE",
"185 387 OFFCURVE",
"185 197 CURVE",
"219 197 LINE",
"219 387 OFFCURVE",
"289 463 OFFCURVE",
"289 546 CURVE SMOOTH"
);
},
{
closed = 1;
nodes = (
"219 197 LINE",
"219 363 OFFCURVE",
"381 328 OFFCURVE",
"381 480 CURVE SMOOTH",
"381 543 OFFCURVE",
"341 598 OFFCURVE",
"224 610 CURVE SMOOTH",
"123 620 OFFCURVE",
"14 594 OFFCURVE",
"14 507 CURVE SMOOTH",
"14 476 OFFCURVE",
"36 448 OFFCURVE",
"78 448 CURVE SMOOTH",
"198 448 OFFCURVE",
"70 594 OFFCURVE",
"216 584 CURVE SMOOTH",
"253 581 OFFCURVE",
"266 565 OFFCURVE",
"266 500 CURVE SMOOTH",
"266 291 OFFCURVE",
"185 363 OFFCURVE",
"185 197 CURVE"
);
}
);
};
components = (
{
name = period;
transform = "{1, 0, 0, 1, 117, 0}";
}
);
layerId = "AA78C373-A874-4B43-A7A1-B39102DDD1E4";
name = Bold;
paths = (
{
closed = 1;
nodes = (
"225 192 LINE",
"225 348 OFFCURVE",
"417 331 OFFCURVE",
"417 483 CURVE SMOOTH",
"417 574 OFFCURVE",
"320 610 OFFCURVE",
"224 610 CURVE SMOOTH",
"141 610 OFFCURVE",
"50 576 OFFCURVE",
"50 507 CURVE SMOOTH",
"50 477 OFFCURVE",
"70 453 OFFCURVE",
"110 453 CURVE SMOOTH",
"211 453 OFFCURVE",
"125 584 OFFCURVE",
"224 584 CURVE SMOOTH",
"254 584 OFFCURVE",
"290 565 OFFCURVE",
"290 500 CURVE SMOOTH",
"290 321 OFFCURVE",
"191 358 OFFCURVE",
"191 192 CURVE"
);
}
);
width = 467;
}
);
unicode = 003F;
},
{
color = 1;
glyphname = braceleft;
lastChange = "2015-07-22 13:22:56 +0000";
layers = (
{
background = {
paths = (
{
closed = 1;
nodes = (
"345 590 LINE",
"312 590 OFFCURVE",
"288 579 OFFCURVE",
"271 557 CURVE",
"254 540 OFFCURVE",
"246 513 OFFCURVE",
"246 475 CURVE SMOOTH",
"246 416 LINE SMOOTH",
"246 317 OFFCURVE",
"243 287 OFFCURVE",
"122 256 CURVE",
"223 235 OFFCURVE",
"246 211 OFFCURVE",
"246 102 CURVE SMOOTH",
"246 37 LINE SMOOTH",
"246 6 OFFCURVE",
"255 -22 OFFCURVE",
"274 -47 CURVE",
"284 -65 OFFCURVE",
"308 -74 OFFCURVE",
"345 -75 CURVE",
"345 -96 LINE",
"325 -96 LINE SMOOTH",
"266 -96 OFFCURVE",
"218 -60 OFFCURVE",
"202 -11 CURVE",
"193 13 OFFCURVE",
"189 38 OFFCURVE",
"189 63 CURVE SMOOTH",
"189 124 LINE SMOOTH",
"189 200 OFFCURVE",
"167 232 OFFCURVE",
"71 244 CURVE",
"71 268 LINE",
"164 284 OFFCURVE",
"189 305 OFFCURVE",
"189 389 CURVE SMOOTH",
"189 450 LINE SMOOTH",
"189 559 OFFCURVE",
"260 609 OFFCURVE",
"345 610 CURVE"
);
}
);
};
guideLines = (
{
position = "{179, 255}";
}
);
layerId = "C18F3EFD-FA9C-4751-AD2F-5B966120D1A5";
name = Regular;
paths = (
{
closed = 1;
nodes = (
"195 235 OFFCURVE",
"231 217 OFFCURVE",
"231 148 CURVE SMOOTH",
"231 -3 LINE SMOOTH",
"231 -93 OFFCURVE",
"260 -108 OFFCURVE",
"380 -108 CURVE",
"380 -136 LINE",
"220 -136 OFFCURVE",
"156 -131 OFFCURVE",
"156 4 CURVE SMOOTH",
"156 153 LINE SMOOTH",
"156 211 OFFCURVE",
"142 231 OFFCURVE",
"80 244 CURVE",
"80 265 LINE",
"142 278 OFFCURVE",
"156 298 OFFCURVE",
"156 356 CURVE SMOOTH",
"156 505 LINE SMOOTH",
"156 640 OFFCURVE",
"220 645 OFFCURVE",
"380 645 CURVE",
"380 617 LINE",
"260 617 OFFCURVE",
"231 602 OFFCURVE",
"231 512 CURVE SMOOTH",
"231 361 LINE SMOOTH",
"231 292 OFFCURVE",
"195 274 OFFCURVE",
"155 257 CURVE",
"155 252 LINE"
);
}
);
width = 400;
},
{
background = {
paths = (
{
closed = 1;
nodes = (
"195 235 OFFCURVE",
"236 217 OFFCURVE",
"236 148 CURVE SMOOTH",
"236 -3 LINE SMOOTH",
"236 -93 OFFCURVE",
"260 -108 OFFCURVE",
"380 -108 CURVE",
"380 -136 LINE",
"220 -136 OFFCURVE",
"156 -131 OFFCURVE",
"156 4 CURVE SMOOTH",
"156 153 LINE SMOOTH",
"156 211 OFFCURVE",
"142 231 OFFCURVE",
"80 244 CURVE",
"80 265 LINE",
"142 278 OFFCURVE",
"156 298 OFFCURVE",
"156 356 CURVE SMOOTH",
"156 505 LINE SMOOTH",
"156 640 OFFCURVE",
"220 645 OFFCURVE",
"380 645 CURVE",
"380 617 LINE",
"260 617 OFFCURVE",
"236 602 OFFCURVE",
"236 512 CURVE SMOOTH",
"236 361 LINE SMOOTH",
"236 292 OFFCURVE",
"195 274 OFFCURVE",
"155 257 CURVE",
"155 252 LINE"
);
}
);
};
layerId = "AA78C373-A874-4B43-A7A1-B39102DDD1E4";
name = Bold;
paths = (
{
closed = 1;
nodes = (
"230 235 OFFCURVE",
"271 217 OFFCURVE",
"271 148 CURVE SMOOTH",
"271 -3 LINE SMOOTH",
"271 -93 OFFCURVE",
"260 -107 OFFCURVE",
"380 -107 CURVE",
"380 -136 LINE",
"210 -136 OFFCURVE",
"146 -131 OFFCURVE",
"146 4 CURVE SMOOTH",
"146 153 LINE SMOOTH",
"146 211 OFFCURVE",
"132 231 OFFCURVE",
"70 244 CURVE",
"70 265 LINE",
"132 278 OFFCURVE",
"146 298 OFFCURVE",
"146 356 CURVE SMOOTH",
"146 505 LINE SMOOTH",
"146 640 OFFCURVE",
"210 645 OFFCURVE",
"380 645 CURVE",
"380 616 LINE",
"260 616 OFFCURVE",
"271 602 OFFCURVE",
"271 512 CURVE SMOOTH",
"271 361 LINE SMOOTH",
"271 292 OFFCURVE",
"230 274 OFFCURVE",
"195 257 CURVE",
"195 252 LINE"
);
}
);
width = 400;
}
);
unicode = 007B;
},
{
color = 1;
glyphname = multiply;
lastChange = "2015-08-10 16:04:07 +0000";
layers = (
{
background = {
paths = (
{
closed = 1;
nodes = (
"400 215 LINE",
"400 253 LINE",
"1 253 LINE",
"1 215 LINE"
);
},
{
closed = 1;
nodes = (
"182 35 LINE",
"220 35 LINE",
"219 434 LINE",
"181 434 LINE"
);
}
);
};
layerId = "C18F3EFD-FA9C-4751-AD2F-5B966120D1A5";
name = Regular;
paths = (
{
closed = 1;
nodes = (
"327 79 LINE",
"355 107 LINE",
"73 389 LINE",
"45 361 LINE"
);
},
{
closed = 1;
nodes = (
"46 107 LINE",
"73 80 LINE",
"355 362 LINE",
"328 389 LINE"
);
}
);
width = 400;
},
{
layerId = "AA78C373-A874-4B43-A7A1-B39102DDD1E4";
name = Bold;
paths = (
{
closed = 1;
nodes = (
"328 74 LINE",
"359 105 LINE",
"71 394 LINE",
"40 363 LINE"
);
},
{
closed = 1;
nodes = (
"41 105 LINE",
"70 75 LINE",
"359 364 LINE",
"330 394 LINE"
);
}
);
width = 404;
}
);
unicode = 00D7;
},
{
color = 1;
glyphname = divide;
lastChange = "2015-08-10 16:04:07 +0000";
layers = (
{
components = (
{
name = dot;
transform = "{1, 0, 0, 1, 138, 32}";
},
{
name = dot;
transform = "{1, 0, 0, 1, 138, 335}";
}
);
layerId = "C18F3EFD-FA9C-4751-AD2F-5B966120D1A5";
name = Regular;
paths = (
{
closed = 1;
nodes = (
"424 216 LINE",
"424 252 LINE",
"45 252 LINE",
"45 216 LINE"
);
}
);
width = 469;
},
{
components = (
{
name = dot;
transform = "{1, 0, 0, 1, 126, 35}";
},
{
name = dot;
transform = "{1, 0, 0, 1, 126, 332}";
}
);
layerId = "AA78C373-A874-4B43-A7A1-B39102DDD1E4";
name = Bold;
paths = (
{
closed = 1;
nodes = (
"418 213 LINE",
"418 255 LINE",
"30 255 LINE",
"30 213 LINE"
);
}
);
width = 448;
}
);
unicode = 00F7;
},
{
glyphname = short_dash2;
lastChange = "2015-07-14 04:59:22 +0000";
layers = (
{
layerId = "C18F3EFD-FA9C-4751-AD2F-5B966120D1A5";
name = Regular;
paths = (
{
closed = 1;
nodes = (
"43 234 LINE",
"271 234 LINE",
"271 187 LINE",
"43 187 LINE"
);
}
);
width = 344;
},
{
layerId = "AA78C373-A874-4B43-A7A1-B39102DDD1E4";
name = Bold;
paths = (
{
closed = 1;
nodes = (
"43 226 LINE",
"245 226 LINE",
"245 187 LINE",
"43 187 LINE"
);
}
);
width = 297;
}
);
unicode = 2010;
},
{
color = 1;
glyphname = quoteleft;
lastChange = "2015-07-14 17:01:50 +0000";
layers = (
{
guideLines = (
{
position = "{45, 655}";
},
{
position = "{168, 450}";
}
);
layerId = "C18F3EFD-FA9C-4751-AD2F-5B966120D1A5";
name = Regular;
paths = (
{
closed = 1;
nodes = (
"122 455 OFFCURVE",
"143 477 OFFCURVE",
"143 505 CURVE SMOOTH",
"143 531 OFFCURVE",
"123 547 OFFCURVE",
"103 551 CURVE SMOOTH",
"89 554 OFFCURVE",
"80 559 OFFCURVE",
"80 568 CURVE SMOOTH",
"80 585 OFFCURVE",
"100 615 OFFCURVE",
"124 640 CURVE",
"103 655 LINE",
"62 613 OFFCURVE",
"40 562 OFFCURVE",
"40 521 CURVE SMOOTH",
"40 483 OFFCURVE",
"59 455 OFFCURVE",
"95 455 CURVE SMOOTH"
);
}
);
width = 193;
},
{
guideLines = (
{
position = "{39, 660}";
}
);
layerId = "AA78C373-A874-4B43-A7A1-B39102DDD1E4";
name = Bold;
paths = (
{
closed = 1;
nodes = (
"132 414 OFFCURVE",
"162 446 OFFCURVE",
"162 485 CURVE SMOOTH",
"162 523 OFFCURVE",
"134 548 OFFCURVE",
"105 554 CURVE SMOOTH",
"86 558 OFFCURVE",
"79 565 OFFCURVE",
"79 579 CURVE SMOOTH",
"79 596 OFFCURVE",
"94 626 OFFCURVE",
"118 651 CURVE",
"97 667 LINE",
"53 620 OFFCURVE",
"20 553 OFFCURVE",
"20 497 CURVE SMOOTH",
"20 450 OFFCURVE",
"45 414 OFFCURVE",
"94 414 CURVE SMOOTH"
);
}
);
width = 187;
}
);
unicode = 2018;
},
{
color = 1;
glyphname = quoteright;
lastChange = "2015-08-26 04:26:13 +0000";
layers = (
{
layerId = "C18F3EFD-FA9C-4751-AD2F-5B966120D1A5";
name = Regular;
paths = (
{
closed = 1;
nodes = (
"131 492 OFFCURVE",
"153 543 OFFCURVE",
"153 584 CURVE SMOOTH",
"153 622 OFFCURVE",
"134 650 OFFCURVE",
"98 650 CURVE SMOOTH",
"71 650 OFFCURVE",
"50 628 OFFCURVE",
"50 600 CURVE SMOOTH",
"50 574 OFFCURVE",
"70 558 OFFCURVE",
"90 554 CURVE SMOOTH",
"104 551 OFFCURVE",
"113 546 OFFCURVE",
"113 537 CURVE SMOOTH",
"113 520 OFFCURVE",
"93 490 OFFCURVE",
"69 465 CURVE",
"90 450 LINE"
);
}
);
width = 193;
},
{
guideLines = (
{
position = "{39, 660}";
}
);
layerId = "AA78C373-A874-4B43-A7A1-B39102DDD1E4";
name = Bold;
paths = (
{
closed = 1;
nodes = (
"135 454 OFFCURVE",
"168 521 OFFCURVE",
"168 577 CURVE SMOOTH",
"168 624 OFFCURVE",
"143 660 OFFCURVE",
"94 660 CURVE SMOOTH",
"56 660 OFFCURVE",
"26 628 OFFCURVE",
"26 589 CURVE SMOOTH",
"26 551 OFFCURVE",
"54 526 OFFCURVE",
"83 520 CURVE SMOOTH",
"102 516 OFFCURVE",
"109 509 OFFCURVE",
"109 495 CURVE SMOOTH",
"109 478 OFFCURVE",
"94 448 OFFCURVE",
"70 423 CURVE",
"91 407 LINE"
);
}
);
width = 238;
}
);
unicode = 2019;
},
{
color = 9;
glyphname = A;
lastChange = "2015-08-26 04:27:26 +0000";
layers = (
{
anchors = (
{
name = ogonek;
position = "{602, 9}";
},
{
name = top;
position = "{305, 630}";
}
);
background = {
paths = (
{
closed = 1;
nodes = (
"178 0 LINE",
"178 20 OFFCURVE",
"172 26 OFFCURVE",
"152 26 CURVE SMOOTH",
"103 26 LINE",
"324 600 LINE",
"287 600 LINE",
"63 26 LINE",
"0 26 LINE",
"0 0 LINE"
);
},
{
closed = 1;
nodes = (
"563 0 LINE",
"324 600 LINE",
"287 600 LINE",
"279 499 LINE",
"472 0 LINE"
);
},
{
closed = 1;
nodes = (
"613 0 LINE",
"613 20 OFFCURVE",
"607 26 OFFCURVE",
"587 26 CURVE SMOOTH",
"397 26 LINE",
"397 0 LINE"
);
},
{
closed = 1;
nodes = (
"440 220 LINE",
"425 249 LINE",
"168 249 LINE",
"158 220 LINE"
);
}
);
};
layerId = "C18F3EFD-FA9C-4751-AD2F-5B966120D1A5";
name = Regular;
paths = (
{
closed = 1;
nodes = (
"613 0 LINE",
"613 20 OFFCURVE",
"607 26 OFFCURVE",
"587 26 CURVE SMOOTH",
"397 26 LINE",
"397 0 LINE"
);
},
{
closed = 1;
nodes = (
"440 220 LINE",
"425 249 LINE",
"168 249 LINE",
"158 220 LINE"
);
},
{
closed = 1;
nodes = (
"563 0 LINE",
"324 600 LINE",
"287 600 LINE",
"63 26 LINE",
"0 26 LINE",
"0 0 LINE",
"178 0 LINE",
"178 20 OFFCURVE",
"172 26 OFFCURVE",
"152 26 CURVE SMOOTH",
"103 26 LINE",
"288 507 LINE",
"276 507 LINE",
"472 0 LINE"
);
}
);
width = 613;
},
{
anchors = (
{
name = ogonek;
position = "{626, 9}";
},
{
name = top;
position = "{321, 630}";
}
);
background = {
paths = (
{
closed = 1;
nodes = (
"184 0 LINE",
"184 23 OFFCURVE",
"179 27 OFFCURVE",
"160 27 CURVE SMOOTH",
"104 27 LINE",
"320 600 LINE",
"283 600 LINE",
"64 27 LINE",
"0 27 LINE",
"0 0 LINE"
);
},
{
closed = 1;
nodes = (
"604 0 LINE",
"357 600 LINE",
"292 600 LINE",
"268 495 LINE",
"460 0 LINE"
);
},
{
closed = 1;
nodes = (
"647 0 LINE",
"647 23 OFFCURVE",
"642 27 OFFCURVE",
"623 27 CURVE SMOOTH",
"379 27 LINE",
"379 0 LINE"
);
},
{
closed = 1;
nodes = (
"440 219 LINE",
"430 249 LINE",
"160 249 LINE",
"150 219 LINE"
);
}
);
};
layerId = "AA78C373-A874-4B43-A7A1-B39102DDD1E4";
name = Bold;
paths = (
{
closed = 1;
nodes = (
"647 0 LINE",
"647 23 OFFCURVE",
"642 27 OFFCURVE",
"623 27 CURVE SMOOTH",
"379 27 LINE",
"379 0 LINE"
);
},
{
closed = 1;
nodes = (
"440 219 LINE",
"430 249 LINE",
"160 249 LINE",
"150 219 LINE"
);
},
{
closed = 1;
nodes = (
"604 0 LINE",
"357 600 LINE",
"283 600 LINE",
"64 27 LINE",
"0 27 LINE",
"0 0 LINE",
"184 0 LINE",
"184 23 OFFCURVE",
"179 27 OFFCURVE",
"160 27 CURVE SMOOTH",
"104 27 LINE",
"281 497 LINE",
"267 497 LINE",
"460 0 LINE"
);
}
);
width = 647;
}
);
leftKerningGroup = A;
rightKerningGroup = A;
unicode = 0041;
},
{
color = 1;
glyphname = AE;
lastChange = "2015-08-26 04:35:04 +0000";
layers = (
{
anchors = (
{
name = top;
position = "{573, 630}";
}
);
background = {
paths = (
{
closed = 1;
nodes = (
"820 420 LINE",
"815 600 LINE",
"412 600 LINE",
"412 574 LINE",
"680 574 LINE SMOOTH",
"747 574 OFFCURVE",
"772 515 OFFCURVE",
"786 467 CURVE SMOOTH",
"800 420 LINE"
);
},
{
closed = 1;
nodes = (
"815 0 LINE",
"820 180 LINE",
"800 180 LINE",
"786 133 LINE SMOOTH",
"771 82 OFFCURVE",
"747 26 OFFCURVE",
"680 26 CURVE SMOOTH",
"354 26 LINE",
"354 0 LINE"
);
},
{
closed = 1;
nodes = (
"726 295 LINE",
"726 324 LINE",
"479 324 LINE",
"479 295 LINE"
);
},
{
closed = 1;
nodes = (
"186 0 LINE",
"186 22 OFFCURVE",
"181 26 OFFCURVE",
"162 26 CURVE SMOOTH",
"105 26 LINE",
"454 600 LINE",
"412 600 LINE",
"60 26 LINE",
"0 26 LINE",
"0 0 LINE"
);
},
{
closed = 1;
nodes = (
"573 0 LINE",
"573 22 OFFCURVE",
"568 26 OFFCURVE",
"548 26 CURVE SMOOTH",
"354 26 LINE",
"354 0 LINE"
);
},
{
closed = 1;
nodes = (
"473 240 LINE",
"458 269 LINE",
"218 269 LINE",
"208 240 LINE"
);
}
);
};
components = (
{
disableAlignment = 1;
name = vertical_stem_upper;
transform = "{1, 0, 0, 1, 397, 0}";
}
);
layerId = "C18F3EFD-FA9C-4751-AD2F-5B966120D1A5";
name = Regular;
paths = (
{
closed = 1;
nodes = (
"186 0 LINE",
"186 22 OFFCURVE",
"181 26 OFFCURVE",
"162 26 CURVE SMOOTH",
"105 26 LINE",
"235 240 LINE",
"473 240 LINE",
"458 269 LINE",
"253 269 LINE",
"438 574 LINE",
"680 574 LINE SMOOTH",
"747 574 OFFCURVE",
"772 515 OFFCURVE",
"786 467 CURVE SMOOTH",
"800 420 LINE",
"820 420 LINE",
"815 600 LINE",
"412 600 LINE",
"60 26 LINE",
"0 26 LINE",
"0 0 LINE"
);
},
{
closed = 1;
nodes = (
"815 0 LINE",
"820 180 LINE",
"800 180 LINE",
"786 133 LINE SMOOTH",
"771 82 OFFCURVE",
"747 26 OFFCURVE",
"680 26 CURVE SMOOTH",
"354 26 LINE",
"354 0 LINE"
);
},
{
closed = 1;
nodes = (
"726 295 LINE",
"726 324 LINE",
"479 324 LINE",
"479 295 LINE"
);
}
);
width = 870;
},
{
anchors = (
{
name = top;
position = "{635, 630}";
}
);
components = (
{
name = vertical_stem_upper;
transform = "{1, 0, 0, 1, 395, 0}";
}
);
layerId = "AA78C373-A874-4B43-A7A1-B39102DDD1E4";
name = Bold;
paths = (
{
closed = 1;
nodes = (
"186 0 LINE",
"186 22 OFFCURVE",
"181 26 OFFCURVE",
"162 26 CURVE SMOOTH",
"105 26 LINE",
"231 233 LINE",
"498 233 LINE",
"488 263 LINE",
"249 263 LINE",
"438 573 LINE",
"687 573 LINE SMOOTH",
"763 573 OFFCURVE",
"792 526 OFFCURVE",
"807 477 CURVE SMOOTH",
"829 403 LINE",
"858 403 LINE",
"854 600 LINE",
"412 600 LINE",
"60 26 LINE",
"0 26 LINE",
"0 0 LINE"
);
},
{
closed = 1;
nodes = (
"854 0 LINE",
"858 197 LINE",
"829 197 LINE",
"806 123 LINE SMOOTH",
"791 76 OFFCURVE",
"763 27 OFFCURVE",
"687 27 CURVE SMOOTH",
"356 27 LINE",
"356 0 LINE"
);
},
{
closed = 1;
nodes = (
"766 294 LINE",
"766 324 LINE",
"499 324 LINE",
"499 294 LINE"
);
}
);
width = 903;
}
);
leftMetricsKey = A;
rightMetricsKey = E;
unicode = 00C6;
},
{
color = 9;
glyphname = B;
lastChange = "2015-08-25 09:55:42 +0000";
layers = (
{
background = {
paths = (
{
closed = 1;
nodes = (
"324 0 LINE",
"470 0 OFFCURVE",
"544 89 OFFCURVE",
"544 176 CURVE SMOOTH",
"544 257 OFFCURVE",
"478 331 OFFCURVE",
"344 331 CURVE",
"314 312 LINE",
"408 312 OFFCURVE",
"448 244 OFFCURVE",
"448 174 CURVE SMOOTH",
"448 101 OFFCURVE",
"404 26 OFFCURVE",
"319 26 CURVE SMOOTH",
"40 26 LINE",
"40 0 LINE"
);
},
{
closed = 1;
nodes = (
"506 538 OFFCURVE",
"445 600 OFFCURVE",
"321 600 CURVE SMOOTH",
"40 600 LINE",
"40 574 LINE",
"297 574 LINE SMOOTH",
"384 574 OFFCURVE",
"416 521 OFFCURVE",
"416 456 CURVE SMOOTH",
"416 396 OFFCURVE",
"375 339 OFFCURVE",
"295 339 CURVE SMOOTH",
"162 339 LINE",
"162 312 LINE",
"314 312 LINE SMOOTH",
"434 312 OFFCURVE",
"506 394 OFFCURVE",
"506 464 CURVE SMOOTH"
);
}
);
};
components = (
{
name = vertical_stem_upper;
transform = "{1, 0, 0, 1, 80, 0}";
}
);
layerId = "C18F3EFD-FA9C-4751-AD2F-5B966120D1A5";
name = Regular;
paths = (
{
closed = 1;
nodes = (
"466 353 OFFCURVE",
"506 412 OFFCURVE",
"506 464 CURVE SMOOTH",
"506 538 OFFCURVE",
"445 600 OFFCURVE",
"321 600 CURVE SMOOTH",
"40 600 LINE",
"40 574 LINE",
"297 574 LINE SMOOTH",
"384 574 OFFCURVE",
"416 521 OFFCURVE",
"416 456 CURVE SMOOTH",
"416 396 OFFCURVE",
"375 339 OFFCURVE",
"295 339 CURVE SMOOTH",
"162 339 LINE",
"162 312 LINE",
"314 312 LINE SMOOTH",
"408 312 OFFCURVE",
"448 244 OFFCURVE",
"448 174 CURVE SMOOTH",
"448 101 OFFCURVE",
"404 26 OFFCURVE",
"319 26 CURVE SMOOTH",
"40 26 LINE",
"40 0 LINE",
"324 0 LINE SMOOTH",
"470 0 OFFCURVE",
"544 89 OFFCURVE",
"544 176 CURVE SMOOTH",
"544 246 OFFCURVE",
"495 310 OFFCURVE",
"397 327 CURVE"
);
}
);
width = 589;
},
{
background = {
paths = (
{
closed = 1;
nodes = (
"362 0 LINE",
"513 0 OFFCURVE",
"590 83 OFFCURVE",
"590 173 CURVE SMOOTH",
"590 268 OFFCURVE",
"518 328 OFFCURVE",
"371 328 CURVE",
"322 311 LINE",
"401 311 OFFCURVE",
"437 250 OFFCURVE",
"437 180 CURVE SMOOTH",
"437 100 OFFCURVE",
"407 27 OFFCURVE",
"307 27 CURVE SMOOTH",
"20 27 LINE",
"20 0 LINE"
);
},
{
closed = 1;
nodes = (
"545 545 OFFCURVE",
"481 600 OFFCURVE",
"344 600 CURVE SMOOTH",
"20 600 LINE",
"20 573 LINE",
"288 573 LINE SMOOTH",
"370 573 OFFCURVE",
"400 527 OFFCURVE",
"400 457 CURVE SMOOTH",
"400 392 OFFCURVE",
"371 339 OFFCURVE",
"296 339 CURVE SMOOTH",
"150 339 LINE",
"150 311 LINE",
"322 311 LINE SMOOTH",
"471 311 OFFCURVE",
"545 388 OFFCURVE",
"545 465 CURVE SMOOTH"
);
}
);
};
components = (
{
name = vertical_stem_upper;
transform = "{1, 0, 0, 1, 58, 0}";
}
);
layerId = "AA78C373-A874-4B43-A7A1-B39102DDD1E4";
name = Bold;
paths = (
{
closed = 1;
nodes = (
"504 351 OFFCURVE",
"545 408 OFFCURVE",
"545 465 CURVE SMOOTH",
"545 545 OFFCURVE",
"481 600 OFFCURVE",
"344 600 CURVE SMOOTH",
"20 600 LINE",
"20 573 LINE",
"288 573 LINE SMOOTH",
"370 573 OFFCURVE",
"400 527 OFFCURVE",
"400 457 CURVE SMOOTH",
"400 392 OFFCURVE",
"371 339 OFFCURVE",
"296 339 CURVE SMOOTH",
"150 339 LINE",
"150 311 LINE",
"322 311 LINE SMOOTH",
"401 311 OFFCURVE",
"437 250 OFFCURVE",
"437 180 CURVE SMOOTH",
"437 100 OFFCURVE",
"407 27 OFFCURVE",
"307 27 CURVE SMOOTH",
"20 27 LINE",
"20 0 LINE",
"362 0 LINE SMOOTH",
"513 0 OFFCURVE",
"590 83 OFFCURVE",
"590 173 CURVE SMOOTH",
"590 256 OFFCURVE",
"535 312 OFFCURVE",
"423 325 CURVE"
);
}
);
width = 615;
}
);
leftKerningGroup = I;
unicode = 0042;
},
{
color = 2;
glyphname = C;
lastChange = "2015-08-25 19:58:15 +0000";
layers = (
{
anchors = (
{
name = bottom;
position = "{329, 0}";
},
{
name = top;
position = "{326, 700}";
}
);
background = {
paths = (
{
closed = 1;
nodes = (
"484 7 OFFCURVE",
"417 -10 OFFCURVE",
"354 -10 CURVE SMOOTH",
"189 -10 OFFCURVE",
"50 113 OFFCURVE",
"50 304 CURVE SMOOTH",
"50 502 OFFCURVE",
"202 610 OFFCURVE",
"350 610 CURVE SMOOTH",
"456 610 OFFCURVE",
"526 566 OFFCURVE",
"543 549 CURVE",
"543 591 OFFCURVE",
"548 597 OFFCURVE",
"573 597 CURVE",
"576 403 LINE",
"546 403 LINE",
"517 517 OFFCURVE",
"465 582 OFFCURVE",
"354 582 CURVE SMOOTH",
"222 582 OFFCURVE",
"150 487 OFFCURVE",
"150 300 CURVE SMOOTH",
"150 90 OFFCURVE",
"240 20 OFFCURVE",
"350 20 CURVE SMOOTH",
"441 20 OFFCURVE",
"526 76 OFFCURVE",
"551 199 CURVE",
"581 199 LINE",
"578 -5 LINE",
"553 -5 OFFCURVE",
"548 1 OFFCURVE",
"548 46 CURVE"
);
}
);
};
guideLines = (
{
angle = 90;
position = "{577, 282}";
},
{
position = "{377, 181}";
},
{
position = "{377, 421}";
}
);
layerId = "C18F3EFD-FA9C-4751-AD2F-5B966120D1A5";
name = Regular;
paths = (
{
closed = 1;
nodes = (
"419 -10 OFFCURVE",
"485 8 OFFCURVE",
"548 46 CURVE",
"548 1 OFFCURVE",
"553 -5 OFFCURVE",
"579 -5 CURVE",
"579 184 LINE",
"555 184 LINE",
"521 71 OFFCURVE",
"450 18 OFFCURVE",
"351 18 CURVE SMOOTH",
"228 18 OFFCURVE",
"151 113 OFFCURVE",
"151 300 CURVE SMOOTH",
"151 494 OFFCURVE",
"242 582 OFFCURVE",
"354 582 CURVE SMOOTH",
"449 582 OFFCURVE",
"520 526 OFFCURVE",
"552 421 CURVE",
"576 421 LINE",
"573 605 LINE",
"548 605 OFFCURVE",
"543 599 OFFCURVE",
"543 552 CURVE",
"526 569 OFFCURVE",
"456 610 OFFCURVE",
"350 610 CURVE SMOOTH",
"150 610 OFFCURVE",
"50 456 OFFCURVE",
"50 302 CURVE SMOOTH",
"50 146 OFFCURVE",
"152 -10 OFFCURVE",
"355 -10 CURVE SMOOTH"
);
}
);
width = 624;
},
{
anchors = (
{
name = bottom;
position = "{341, 0}";
},
{
name = top;
position = "{304, 700}";
}
);
background = {
paths = (
{
closed = 1;
nodes = (
"415 -10 OFFCURVE",
"483 7 OFFCURVE",
"545 39 CURVE",
"544 -1 OFFCURVE",
"554 -5 OFFCURVE",
"580 -5 CURVE",
"580 192 LINE",
"549 192 LINE",
"515 63 OFFCURVE",
"460 20 OFFCURVE",
"358 20 CURVE SMOOTH",
"229 20 OFFCURVE",
"187 137 OFFCURVE",
"187 305 CURVE SMOOTH",
"187 484 OFFCURVE",
"245 580 OFFCURVE",
"366 580 CURVE SMOOTH",
"461 580 OFFCURVE",
"511 529 OFFCURVE",
"544 408 CURVE",
"577 408 LINE",
"574 605 LINE",
"549 605 OFFCURVE",
"540 599 OFFCURVE",
"542 563 CURVE",
"483 595 OFFCURVE",
"417 610 OFFCURVE",
"350 610 CURVE SMOOTH",
"137 610 OFFCURVE",
"30 455 OFFCURVE",
"30 300 CURVE SMOOTH",
"30 145 OFFCURVE",
"137 -10 OFFCURVE",
"347 -10 CURVE SMOOTH"
);
}
);
};
guideLines = (
{
position = "{377, 408}";
},
{
position = "{377, 192}";
}
);
layerId = "AA78C373-A874-4B43-A7A1-B39102DDD1E4";
name = Bold;
paths = (
{
closed = 1;
nodes = (
"415 -10 OFFCURVE",
"483 7 OFFCURVE",
"545 39 CURVE",
"544 -1 OFFCURVE",
"554 -5 OFFCURVE",
"580 -5 CURVE",
"580 192 LINE",
"547 192 LINE",
"513 63 OFFCURVE",
"450 20 OFFCURVE",
"358 20 CURVE SMOOTH",
"219 20 OFFCURVE",
"187 142 OFFCURVE",
"187 305 CURVE SMOOTH",
"187 484 OFFCURVE",
"245 580 OFFCURVE",
"366 580 CURVE SMOOTH",
"461 580 OFFCURVE",
"509 529 OFFCURVE",
"542 408 CURVE",
"577 408 LINE",
"574 605 LINE",
"549 605 OFFCURVE",
"540 599 OFFCURVE",
"542 563 CURVE",
"483 595 OFFCURVE",
"417 610 OFFCURVE",
"350 610 CURVE SMOOTH",
"137 610 OFFCURVE",
"30 455 OFFCURVE",
"30 300 CURVE SMOOTH",
"30 145 OFFCURVE",
"137 -10 OFFCURVE",
"347 -10 CURVE SMOOTH"
);
}
);
width = 600;
},
{
anchors = (
{
name = bottom;
position = "{329, 0}";
},
{
name = top;
position = "{326, 700}";
}
);
associatedMasterId = "C18F3EFD-FA9C-4751-AD2F-5B966120D1A5";
background = {
paths = (
{
closed = 1;
nodes = (
"571 -5 LINE",
"581 199 LINE",
"551 199 LINE",
"526 81 OFFCURVE",
"441 20 OFFCURVE",
"350 20 CURVE SMOOTH",
"240 20 OFFCURVE",
"150 90 OFFCURVE",
"150 300 CURVE SMOOTH",
"150 508 OFFCURVE",
"237 582 OFFCURVE",
"347 582 CURVE SMOOTH",
"467 582 OFFCURVE",
"509 530 OFFCURVE",
"546 403 CURVE",
"576 403 LINE",
"571 597 LINE",
"484 579 LINE",
"442 600 OFFCURVE",
"396 610 OFFCURVE",
"350 610 CURVE SMOOTH",
"202 610 OFFCURVE",
"50 502 OFFCURVE",
"50 304 CURVE SMOOTH",
"50 95 OFFCURVE",
"209 -10 OFFCURVE",
"350 -10 CURVE SMOOTH",
"398 -10 OFFCURVE",
"445 2 OFFCURVE",
"482 26 CURVE"
);
}
);
};
guideLines = (
{
angle = 90;
position = "{577, 282}";
}
);
layerId = "299A21DE-314B-4176-9E1D-877B33A7D205";
name = "Regular Aug 6 15, 11:30";
paths = (
{
closed = 1;
nodes = (
"549 58 OFFCURVE",
"558 -5 CURVE",
"578 -5 LINE",
"581 199 LINE",
"551 199 LINE",
"526 81 OFFCURVE",
"441 20 OFFCURVE",
"350 20 CURVE SMOOTH",
"240 20 OFFCURVE",
"150 90 OFFCURVE",
"150 300 CURVE SMOOTH",
"150 508 OFFCURVE",
"237 582 OFFCURVE",
"347 582 CURVE SMOOTH",
"467 582 OFFCURVE",
"509 530 OFFCURVE",
"546 403 CURVE",
"576 403 LINE",
"571 597 LINE",
"551 597 LINE",
"538 544 OFFCURVE",
"476 610 OFFCURVE",
"350 610 CURVE SMOOTH",
"202 610 OFFCURVE",
"50 502 OFFCURVE",
"50 304 CURVE SMOOTH",
"50 95 OFFCURVE",
"209 -10 OFFCURVE",
"350 -10 CURVE SMOOTH",
"467 -10 OFFCURVE"
);
}
);
width = 626;
},
{
anchors = (
{
name = bottom;
position = "{341, 0}";
},
{
name = top;
position = "{304, 700}";
}
);
associatedMasterId = "AA78C373-A874-4B43-A7A1-B39102DDD1E4";
background = {
paths = (
{
closed = 1;
nodes = (
"427 -1 OFFCURVE",
"382 -10 OFFCURVE",
"335 -10 CURVE SMOOTH",
"187 -10 OFFCURVE",
"30 85 OFFCURVE",
"30 302 CURVE SMOOTH",
"30 513 OFFCURVE",
"180 610 OFFCURVE",
"331 610 CURVE SMOOTH",
"377 610 OFFCURVE",
"423 601 OFFCURVE",
"464 584 CURVE",
"574 600 LINE",
"578 388 LINE",
"547 388 LINE",
"519 518 OFFCURVE",
"457 579 OFFCURVE",
"366 579 CURVE SMOOTH",
"251 579 OFFCURVE",
"195 499 OFFCURVE",
"195 298 CURVE SMOOTH",
"195 99 OFFCURVE",
"244 21 OFFCURVE",
"358 21 CURVE SMOOTH",
"450 21 OFFCURVE",
"514 78 OFFCURVE",
"548 207 CURVE",
"578 207 LINE",
"574 0 LINE",
"467 17 LINE"
);
},
{
closed = 1;
nodes = (
"445 2 OFFCURVE",
"398 -10 OFFCURVE",
"350 -10 CURVE SMOOTH",
"209 -10 OFFCURVE",
"50 95 OFFCURVE",
"50 304 CURVE SMOOTH",
"50 502 OFFCURVE",
"202 610 OFFCURVE",
"350 610 CURVE SMOOTH",
"396 610 OFFCURVE",
"442 600 OFFCURVE",
"484 579 CURVE",
"571 597 LINE",
"576 403 LINE",
"546 403 LINE",
"509 530 OFFCURVE",
"467 582 OFFCURVE",
"347 582 CURVE SMOOTH",
"242 582 OFFCURVE",
"155 508 OFFCURVE",
"155 300 CURVE SMOOTH",
"155 90 OFFCURVE",
"245 21 OFFCURVE",
"350 21 CURVE SMOOTH",
"441 21 OFFCURVE",
"526 81 OFFCURVE",
"551 199 CURVE",
"581 199 LINE",
"571 -4 LINE",
"482 26 LINE"
);
}
);
};
layerId = "2473A083-C5B4-4141-AB06-4ACF75BBE16A";
name = "Bold Aug 6 15, 15:33";
paths = (
{
closed = 1;
nodes = (
"574 -5 LINE",
"580 207 LINE",
"550 207 LINE",
"516 78 OFFCURVE",
"450 22 OFFCURVE",
"358 22 CURVE SMOOTH",
"244 22 OFFCURVE",
"187 99 OFFCURVE",
"187 298 CURVE SMOOTH",
"187 499 OFFCURVE",
"251 579 OFFCURVE",
"366 579 CURVE SMOOTH",
"457 579 OFFCURVE",
"519 518 OFFCURVE",
"547 388 CURVE",
"578 388 LINE",
"574 600 LINE",
"480 581 LINE",
"435 600 OFFCURVE",
"385 610 OFFCURVE",
"335 610 CURVE SMOOTH",
"183 610 OFFCURVE",
"30 518 OFFCURVE",
"30 302 CURVE SMOOTH",
"30 83 OFFCURVE",
"186 -9 OFFCURVE",
"338 -9 CURVE SMOOTH",
"389 -9 OFFCURVE",
"440 1 OFFCURVE",
"484 21 CURVE"
);
}
);
width = 605;
}
);
leftKerningGroup = C;
rightKerningGroup = C;
unicode = 0043;
},
{
color = 1;
glyphname = D;
lastChange = "2015-08-25 13:42:26 +0000";
layers = (
{
anchors = (
{
name = center;
position = "{342, 350}";
},
{
name = top;
position = "{332, 630}";
}
);
components = (
{
name = vertical_stem_upper;
transform = "{1, 0, 0, 1, 80, 0}";
}
);
layerId = "C18F3EFD-FA9C-4751-AD2F-5B966120D1A5";
name = Regular;
paths = (
{
closed = 1;
nodes = (
"40 600 LINE",
"40 574 LINE",
"316 574 LINE SMOOTH",
"436 574 OFFCURVE",
"529 517 OFFCURVE",
"529 304 CURVE SMOOTH",
"529 100 OFFCURVE",
"439 26 OFFCURVE",
"319 26 CURVE SMOOTH",
"40 26 LINE",
"40 0 LINE",
"316 0 LINE SMOOTH",
"474 0 OFFCURVE",
"624 102 OFFCURVE",
"624 300 CURVE SMOOTH",
"624 507 OFFCURVE",
"476 600 OFFCURVE",
"319 600 CURVE SMOOTH"
);
}
);
width = 679;
},
{
anchors = (
{
name = center;
position = "{338, 350}";
},
{
name = top;
position = "{328, 630}";
}
);
components = (
{
name = vertical_stem_upper;
transform = "{1, 0, 0, 1, 58, 0}";
}
);
layerId = "AA78C373-A874-4B43-A7A1-B39102DDD1E4";
name = Bold;
paths = (
{
closed = 1;
nodes = (
"20 600 LINE",
"20 573 LINE",
"318 573 LINE SMOOTH",
"426 573 OFFCURVE",
"478 500 OFFCURVE",
"478 303 CURVE SMOOTH",
"478 98 OFFCURVE",
"424 27 OFFCURVE",
"316 27 CURVE SMOOTH",
"20 27 LINE",
"20 0 LINE",
"318 0 LINE SMOOTH",
"482 0 OFFCURVE",
"635 103 OFFCURVE",
"635 298 CURVE SMOOTH",
"635 503 OFFCURVE",
"480 600 OFFCURVE",
"315 600 CURVE SMOOTH"
);
}
);
width = 670;
}
);
leftKerningGroup = I;
rightKerningGroup = D;
unicode = 0044;
},
{
color = 9;
glyphname = E;
lastChange = "2015-08-25 11:27:23 +0000";
layers = (
{
anchors = (
{
name = bottom;
position = "{272, 0}";
},
{
name = ogonek;
position = "{492, 9}";
},
{
name = top;
position = "{292, 630}";
}
);
background = {
paths = (
{
closed = 1;
nodes = (
"506 420 LINE",
"501 600 LINE",
"37 600 LINE",
"37 574 LINE",
"356 574 LINE SMOOTH",
"423 574 OFFCURVE",
"458 515 OFFCURVE",
"472 467 CURVE SMOOTH",
"486 420 LINE"
);
},
{
closed = 1;
nodes = (
"501 0 LINE",
"506 180 LINE",
"486 180 LINE",
"472 133 LINE SMOOTH",
"457 82 OFFCURVE",
"423 26 OFFCURVE",
"356 26 CURVE SMOOTH",
"37 26 LINE",
"37 0 LINE"
);
},
{
closed = 1;
nodes = (
"412 295 LINE",
"412 324 LINE",
"162 324 LINE",
"162 295 LINE"
);
}
);
};
components = (
{
name = vertical_stem_upper;
transform = "{1, 0, 0, 1, 80, 0}";
}
);
layerId = "C18F3EFD-FA9C-4751-AD2F-5B966120D1A5";
name = Regular;
paths = (
{
closed = 1;
nodes = (
"506 420 LINE",
"501 600 LINE",
"40 600 LINE",
"40 574 LINE",
"366 574 LINE SMOOTH",
"433 574 OFFCURVE",
"458 515 OFFCURVE",
"472 467 CURVE SMOOTH",
"486 420 LINE"
);
},
{
closed = 1;
nodes = (
"501 0 LINE",
"506 180 LINE",
"486 180 LINE",
"472 133 LINE SMOOTH",
"457 82 OFFCURVE",
"433 26 OFFCURVE",
"366 26 CURVE SMOOTH",
"40 26 LINE",
"40 0 LINE"
);
},
{
closed = 1;
nodes = (
"412 295 LINE",
"412 324 LINE",
"162 324 LINE",
"162 295 LINE"
);
}
);
width = 556;
},
{
anchors = (
{
name = bottom;
position = "{276, 0}";
},
{
name = ogonek;
position = "{510, 9}";
},
{
name = top;
position = "{298, 630}";
}
);
background = {
paths = (
{
closed = 1;
nodes = (
"22 27 LINE",
"338 27 LINE SMOOTH",
"414 27 OFFCURVE",
"433 74 OFFCURVE",
"451 123 CURVE SMOOTH",
"485 217 LINE",
"514 217 LINE",
"510 0 LINE",
"22 0 LINE"
);
},
{
closed = 1;
nodes = (
"510 600 LINE",
"514 383 LINE",
"485 383 LINE",
"451 477 LINE SMOOTH",
"433 526 OFFCURVE",
"414 573 OFFCURVE",
"338 573 CURVE SMOOTH",
"22 573 LINE",
"22 600 LINE"
);
}
);
};
components = (
{
name = vertical_stem_upper;
transform = "{1, 0, 0, 1, 58, 0}";
}
);
layerId = "AA78C373-A874-4B43-A7A1-B39102DDD1E4";
name = Bold;
paths = (
{
closed = 1;
nodes = (
"524 408 LINE",
"520 600 LINE",
"20 600 LINE",
"20 573 LINE",
"353 573 LINE SMOOTH",
"430 573 OFFCURVE",
"457 526 OFFCURVE",
"473 477 CURVE SMOOTH",
"495 408 LINE"
);
},
{
closed = 1;
nodes = (
"520 0 LINE",
"524 192 LINE",
"495 192 LINE",
"472 123 LINE SMOOTH",
"456 76 OFFCURVE",
"429 27 OFFCURVE",
"353 27 CURVE SMOOTH",
"20 27 LINE",
"20 0 LINE"
);
},
{
closed = 1;
nodes = (
"432 294 LINE",
"432 324 LINE",
"162 324 LINE",
"162 294 LINE"
);
}
);
width = 569;
}
);
leftKerningGroup = I;
rightKerningGroup = E;
unicode = 0045;
},
{
color = 9;
glyphname = F;
lastChange = "2015-08-25 11:29:04 +0000";
layers = (
{
components = (
{
name = vertical_stem_upper;
transform = "{1, 0, 0, 1, 80, 0}";
}
);
layerId = "C18F3EFD-FA9C-4751-AD2F-5B966120D1A5";
name = Regular;
paths = (
{
closed = 1;
nodes = (
"506 420 LINE",
"501 600 LINE",
"40 600 LINE",
"40 574 LINE",
"366 574 LINE SMOOTH",
"433 574 OFFCURVE",
"458 515 OFFCURVE",
"472 467 CURVE SMOOTH",
"486 420 LINE"
);
},
{
closed = 1;
nodes = (
"326 0 LINE",
"326 26 LINE",
"40 26 LINE",
"40 0 LINE"
);
},
{
closed = 1;
nodes = (
"412 295 LINE",
"412 324 LINE",
"162 324 LINE",
"162 295 LINE"
);
}
);
width = 516;
},
{
components = (
{
name = vertical_stem_upper;
transform = "{1, 0, 0, 1, 58, 0}";
}
);
layerId = "AA78C373-A874-4B43-A7A1-B39102DDD1E4";
name = Bold;
paths = (
{
closed = 1;
nodes = (
"524 403 LINE",
"520 600 LINE",
"20 600 LINE",
"20 573 LINE",
"353 573 LINE SMOOTH",
"429 573 OFFCURVE",
"458 526 OFFCURVE",
"473 477 CURVE SMOOTH",
"495 403 LINE"
);
},
{
closed = 1;
nodes = (
"358 0 LINE",
"358 27 LINE",
"20 27 LINE",
"20 0 LINE"
);
},
{
closed = 1;
nodes = (
"432 294 LINE",
"432 324 LINE",
"162 324 LINE",
"162 294 LINE"
);
}
);
width = 529;
}
);
leftKerningGroup = I;
unicode = 0046;
},
{
color = 9;
glyphname = G;
lastChange = "2015-08-25 20:03:34 +0000";
layers = (
{
anchors = (
{
name = bottom;
position = "{350, 0}";
},
{
name = top;
position = "{350, 630}";
}
);
background = {
paths = (
{
closed = 1;
nodes = (
"589 0 LINE",
"586 199 LINE",
"556 199 LINE",
"531 81 OFFCURVE",
"451 20 OFFCURVE",
"355 20 CURVE SMOOTH",
"238 20 OFFCURVE",
"155 90 OFFCURVE",
"155 300 CURVE SMOOTH",
"155 508 OFFCURVE",
"242 582 OFFCURVE",
"352 582 CURVE SMOOTH",
"477 582 OFFCURVE",
"518 530 OFFCURVE",
"555 403 CURVE",
"581 403 LINE",
"576 597 LINE",
"489 579 LINE",
"447 600 OFFCURVE",
"401 610 OFFCURVE",
"355 610 CURVE SMOOTH",
"207 610 OFFCURVE",
"55 502 OFFCURVE",
"55 304 CURVE SMOOTH",
"55 95 OFFCURVE",
"214 -10 OFFCURVE",
"355 -10 CURVE SMOOTH",
"403 -10 OFFCURVE",
"467 6 OFFCURVE",
"504 31 CURVE"
);
},
{
closed = 1;
nodes = (
"664 244 LINE",
"664 270 LINE",
"415 270 LINE",
"415 244 LINE"
);
},
{
closed = 1;
nodes = (
"589 0 LINE",
"589 270 LINE",
"505 270 LINE",
"505 40 LINE"
);
}
);
};
layerId = "C18F3EFD-FA9C-4751-AD2F-5B966120D1A5";
name = Regular;
paths = (
{
closed = 1;
nodes = (
"415 270 LINE",
"415 244 LINE",
"505 244 LINE",
"505 64 LINE",
"515 101 LINE",
"479 47 OFFCURVE",
"414 20 OFFCURVE",
"355 20 CURVE SMOOTH",
"238 20 OFFCURVE",
"155 90 OFFCURVE",
"155 300 CURVE SMOOTH",
"155 508 OFFCURVE",
"242 582 OFFCURVE",
"352 582 CURVE SMOOTH",
"477 582 OFFCURVE",
"518 530 OFFCURVE",
"555 403 CURVE",
"581 403 LINE",
"576 597 LINE",
"489 579 LINE",
"447 600 OFFCURVE",
"401 610 OFFCURVE",
"355 610 CURVE SMOOTH",
"207 610 OFFCURVE",
"55 502 OFFCURVE",
"55 304 CURVE SMOOTH",
"55 95 OFFCURVE",
"214 -10 OFFCURVE",
"355 -10 CURVE SMOOTH",
"403 -10 OFFCURVE",
"467 6 OFFCURVE",
"504 31 CURVE",
"589 0 LINE",
"589 244 LINE",
"664 244 LINE",
"664 270 LINE"
);
}
);
width = 694;
},
{
anchors = (
{
name = bottom;
position = "{349, 0}";
},
{
name = top;
position = "{357, 630}";
}
);
background = {
paths = (
{
closed = 1;
nodes = (
"610 0 LINE",
"585 207 LINE",
"555 207 LINE",
"521 78 OFFCURVE",
"455 22 OFFCURVE",
"363 22 CURVE SMOOTH",
"249 22 OFFCURVE",
"192 99 OFFCURVE",
"192 298 CURVE SMOOTH",
"192 499 OFFCURVE",
"256 579 OFFCURVE",
"371 579 CURVE SMOOTH",
"465 579 OFFCURVE",
"527 518 OFFCURVE",
"552 388 CURVE",
"583 388 LINE",
"579 600 LINE",
"485 581 LINE",
"440 600 OFFCURVE",
"390 610 OFFCURVE",
"340 610 CURVE SMOOTH",
"188 610 OFFCURVE",
"35 518 OFFCURVE",
"35 302 CURVE SMOOTH",
"35 83 OFFCURVE",
"191 -9 OFFCURVE",
"343 -9 CURVE SMOOTH",
"394 -9 OFFCURVE",
"445 1 OFFCURVE",
"489 21 CURVE"
);
},
{
closed = 1;
nodes = (
"675 249 LINE",
"675 276 LINE",
"387 276 LINE",
"387 249 LINE"
);
},
{
closed = 1;
nodes = (
"610 0 LINE",
"610 276 LINE",
"472 276 LINE",
"472 30 LINE"
);
}
);
};
layerId = "AA78C373-A874-4B43-A7A1-B39102DDD1E4";
name = Bold;
paths = (
{
closed = 1;
nodes = (
"387 276 LINE",
"387 249 LINE",
"472 249 LINE",
"472 42 LINE",
"483 68 LINE",
"452 37 OFFCURVE",
"405 22 OFFCURVE",
"363 22 CURVE SMOOTH",
"249 22 OFFCURVE",
"190 99 OFFCURVE",
"190 298 CURVE SMOOTH",
"190 499 OFFCURVE",
"256 579 OFFCURVE",
"371 579 CURVE SMOOTH",
"465 579 OFFCURVE",
"527 518 OFFCURVE",
"552 388 CURVE",
"583 388 LINE",
"579 600 LINE",
"485 581 LINE",
"440 600 OFFCURVE",
"390 610 OFFCURVE",
"340 610 CURVE SMOOTH",
"188 610 OFFCURVE",
"35 518 OFFCURVE",
"35 302 CURVE SMOOTH",
"35 83 OFFCURVE",
"191 -9 OFFCURVE",
"343 -9 CURVE SMOOTH",
"394 -9 OFFCURVE",
"445 1 OFFCURVE",
"489 21 CURVE",
"610 0 LINE",
"610 249 LINE",
"675 249 LINE",
"675 276 LINE"
);
}
);
width = 695;
}
);
leftKerningGroup = G;
rightKerningGroup = G;
unicode = 0047;
},
{
color = 3;
glyphname = H;
lastChange = "2015-08-25 11:54:34 +0000";
layers = (
{
background = {
paths = (
{
closed = 1;
nodes = (
"44 26 LINE",
"120 26 LINE",
"120 574 LINE",
"44 574 LINE",
"44 600 LINE",
"293 600 LINE",
"293 574 LINE",
"210 574 LINE",
"210 26 LINE",
"269 26 LINE SMOOTH",
"288 26 OFFCURVE",
"293 22 OFFCURVE",
"293 0 CURVE",
"44 0 LINE"
);
},
{
closed = 1;
nodes = (
"513 26 LINE",
"513 574 LINE",
"430 574 LINE",
"430 600 LINE",
"679 600 LINE",
"679 574 LINE",
"603 574 LINE",
"603 26 LINE",
"654 26 LINE SMOOTH",
"674 26 OFFCURVE",
"679 22 OFFCURVE",
"679 0 CURVE",
"430 0 LINE",
"430 26 LINE"
);
},
{
closed = 1;
nodes = (
"164 295 LINE",
"164 324 LINE",
"554 324 LINE",
"554 295 LINE"
);
}
);
};
components = (
{
name = vertical_stem_upper;
transform = "{1, 0, 0, 1, 80, 0}";
},
{
name = vertical_stem_upper;
transform = "{1, 0, 0, 1, 473, 0}";
}
);
layerId = "C18F3EFD-FA9C-4751-AD2F-5B966120D1A5";
name = Regular;
paths = (
{
closed = 1;
nodes = (
"554 295 LINE",
"554 324 LINE",
"164 324 LINE",
"164 295 LINE"
);
},
{
closed = 1;
nodes = (
"285 0 LINE",
"285 20 OFFCURVE",
"279 26 OFFCURVE",
"259 26 CURVE SMOOTH",
"40 26 LINE",
"40 0 LINE"
);
},
{
closed = 1;
nodes = (
"678 0 LINE",
"678 20 OFFCURVE",
"672 26 OFFCURVE",
"652 26 CURVE SMOOTH",
"433 26 LINE",
"433 0 LINE"
);
},
{
closed = 1;
nodes = (
"285 574 LINE",
"285 600 LINE",
"40 600 LINE",
"40 574 LINE"
);
},
{
closed = 1;
nodes = (
"678 574 LINE",
"678 600 LINE",
"433 600 LINE",
"433 574 LINE"
);
}
);
width = 718;
},
{
background = {
paths = (
{
closed = 1;
nodes = (
"32 27 LINE",
"99 27 LINE",
"99 573 LINE",
"32 573 LINE",
"32 600 LINE",
"310 600 LINE",
"310 573 LINE",
"234 573 LINE",
"234 27 LINE",
"286 27 LINE SMOOTH",
"305 27 OFFCURVE",
"310 23 OFFCURVE",
"310 0 CURVE",
"32 0 LINE"
);
},
{
closed = 1;
nodes = (
"492 27 LINE",
"492 573 LINE",
"416 573 LINE",
"416 600 LINE",
"694 600 LINE",
"694 573 LINE",
"627 573 LINE",
"627 27 LINE",
"670 27 LINE SMOOTH",
"689 27 OFFCURVE",
"694 23 OFFCURVE",
"694 0 CURVE",
"416 0 LINE",
"416 27 LINE"
);
},
{
closed = 1;
nodes = (
"165 300 LINE",
"165 327 LINE",
"555 327 LINE",
"555 300 LINE"
);
}
);
};
components = (
{
name = vertical_stem_upper;
transform = "{1, 0, 0, 1, 58, 0}";
},
{
name = vertical_stem_upper;
transform = "{1, 0, 0, 1, 452, 0}";
}
);
layerId = "AA78C373-A874-4B43-A7A1-B39102DDD1E4";
name = Bold;
paths = (
{
closed = 1;
nodes = (
"557 294 LINE",
"557 324 LINE",
"167 324 LINE",
"167 294 LINE"
);
},
{
closed = 1;
nodes = (
"320 0 LINE",
"320 20 OFFCURVE",
"313 27 OFFCURVE",
"293 27 CURVE SMOOTH",
"20 27 LINE",
"20 0 LINE"
);
},
{
closed = 1;
nodes = (
"714 0 LINE",
"714 20 OFFCURVE",
"707 27 OFFCURVE",
"687 27 CURVE SMOOTH",
"414 27 LINE",
"414 0 LINE"
);
},
{
closed = 1;
nodes = (
"320 573 LINE",
"320 600 LINE",
"20 600 LINE",
"20 573 LINE"
);
},
{
closed = 1;
nodes = (
"714 573 LINE",
"714 600 LINE",
"414 600 LINE",
"414 573 LINE"
);
}
);
width = 734;
},
{
associatedMasterId = "C18F3EFD-FA9C-4751-AD2F-5B966120D1A5";
background = {
paths = (
{
closed = 1;
nodes = (
"111 20 LINE",
"171 20 LINE",
"171 450 LINE",
"111 450 LINE",
"111 470 LINE",
"311 470 LINE",
"311 450 LINE",
"246 450 LINE",
"246 20 LINE",
"292 20 LINE SMOOTH",
"307 20 OFFCURVE",
"311 17 OFFCURVE",
"311 0 CURVE",
"111 0 LINE"
);
},
{
closed = 1;
nodes = (
"490 20 LINE",
"490 450 LINE",
"425 450 LINE",
"425 470 LINE",
"625 470 LINE",
"625 450 LINE",
"565 450 LINE",
"565 20 LINE",
"606 20 LINE SMOOTH",
"621 20 OFFCURVE",
"625 17 OFFCURVE",
"625 0 CURVE",
"425 0 LINE",
"425 20 LINE"
);
},
{
closed = 1;
nodes = (
"240 231 LINE",
"240 251 LINE",
"491 251 LINE",
"491 231 LINE"
);
}
);
};
layerId = "DEFF9CB7-3AD3-45F2-A7E7-079E7D952D83";
name = "Regular Jun 14 15, 21:11";
paths = (
{
closed = 1;
nodes = (
"40 25 LINE",
"117 25 LINE",
"117 575 LINE",
"40 575 LINE",
"40 600 LINE",
"295 600 LINE",
"295 575 LINE",
"212 575 LINE",
"212 25 LINE",
"271 25 LINE SMOOTH",
"290 25 OFFCURVE",
"295 21 OFFCURVE",
"295 0 CURVE",
"40 0 LINE"
);
},
{
closed = 1;
nodes = (
"524 25 LINE",
"524 575 LINE",
"441 575 LINE",
"441 600 LINE",
"696 600 LINE",
"696 575 LINE",
"619 575 LINE",
"619 25 LINE",
"671 25 LINE SMOOTH",
"691 25 OFFCURVE",
"696 21 OFFCURVE",
"696 0 CURVE",
"441 0 LINE",
"441 25 LINE"
);
},
{
closed = 1;
nodes = (
"165 295 LINE",
"165 320 LINE",
"565 320 LINE",
"565 295 LINE"
);
}
);
width = 736;
}
);
leftKerningGroup = I;
rightKerningGroup = I;
unicode = 0048;
},
{
color = 1;
glyphname = I;
lastChange = "2015-08-25 09:57:33 +0000";
layers = (
{
anchors = (
{
name = ogonek;
position = "{285, 9}";
},
{
name = top;
position = "{165, 630}";
}
);
background = {
paths = (
{
closed = 1;
nodes = (
"120 26 LINE",
"120 574 LINE",
"37 574 LINE",
"37 600 LINE",
"293 600 LINE",
"293 574 LINE",
"210 574 LINE",
"210 26 LINE",
"268 26 LINE SMOOTH",
"288 26 OFFCURVE",
"293 22 OFFCURVE",
"293 0 CURVE",
"37 0 LINE",
"37 26 LINE"
);
}
);
};
components = (
{
name = vertical_stem_upper;
transform = "{1, 0, 0, 1, 80, 0}";
}
);
layerId = "C18F3EFD-FA9C-4751-AD2F-5B966120D1A5";
name = Regular;
paths = (
{
closed = 1;
nodes = (
"285 574 LINE",
"285 600 LINE",
"40 600 LINE",
"40 574 LINE"
);
},
{
closed = 1;
nodes = (
"285 0 LINE",
"285 20 OFFCURVE",
"279 26 OFFCURVE",
"259 26 CURVE SMOOTH",
"40 26 LINE",
"40 0 LINE"
);
}
);
width = 325;
},
{
anchors = (
{
name = ogonek;
position = "{300, 9}";
},
{
name = top;
position = "{166, 630}";
}
);
components = (
{
name = vertical_stem_upper;
transform = "{1, 0, 0, 1, 58, 0}";
}
);
layerId = "AA78C373-A874-4B43-A7A1-B39102DDD1E4";
name = Bold;
paths = (
{
closed = 1;
nodes = (
"320 573 LINE",
"320 600 LINE",
"20 600 LINE",
"20 573 LINE"
);
},
{
closed = 1;
nodes = (
"320 0 LINE",
"320 20 OFFCURVE",
"313 27 OFFCURVE",
"293 27 CURVE SMOOTH",
"20 27 LINE",
"20 0 LINE"
);
}
);
width = 340;
}
);
leftKerningGroup = I;
rightKerningGroup = I;
unicode = 0049;
},
{
color = 9;
glyphname = J;
lastChange = "2015-08-26 04:24:05 +0000";
layers = (
{
background = {
paths = (
{
closed = 1;
nodes = (
"330 574 LINE",
"330 600 LINE",
"74 600 LINE",
"74 574 LINE"
);
},
{
closed = 1;
nodes = (
"164 600 LINE",
"164 162 LINE SMOOTH",
"164 61 OFFCURVE",
"153 7 OFFCURVE",
"106 7 CURVE SMOOTH",
"47 7 OFFCURVE",
"88 95 OFFCURVE",
"19 95 CURVE SMOOTH",
"-7 95 OFFCURVE",
"-25 74 OFFCURVE",
"-25 51 CURVE SMOOTH",
"-25 20 OFFCURVE",
"6 -17 OFFCURVE",
"74 -17 CURVE SMOOTH",
"174 -17 OFFCURVE",
"249 30 OFFCURVE",
"249 142 CURVE SMOOTH",
"249 600 LINE"
);
}
);
};
layerId = "C18F3EFD-FA9C-4751-AD2F-5B966120D1A5";
name = Regular;
paths = (
{
closed = 1;
nodes = (
"329 574 LINE",
"329 600 LINE",
"74 600 LINE",
"74 574 LINE"
);
},
{
closed = 1;
nodes = (
"164 600 LINE",
"164 162 LINE SMOOTH",
"164 61 OFFCURVE",
"153 7 OFFCURVE",
"106 7 CURVE SMOOTH",
"47 7 OFFCURVE",
"88 95 OFFCURVE",
"19 95 CURVE SMOOTH",
"-7 95 OFFCURVE",
"-25 74 OFFCURVE",
"-25 51 CURVE SMOOTH",
"-25 13 OFFCURVE",
"19 -18 OFFCURVE",
"89 -18 CURVE SMOOTH",
"164 -18 OFFCURVE",
"249 31 OFFCURVE",
"249 172 CURVE SMOOTH",
"249 600 LINE"
);
}
);
width = 364;
},
{
background = {
paths = (
{
closed = 1;
nodes = (
"390 573 LINE",
"390 600 LINE",
"102 600 LINE",
"102 573 LINE"
);
},
{
closed = 1;
nodes = (
"187 600 LINE",
"187 193 LINE SMOOTH",
"187 55 OFFCURVE",
"176 6 OFFCURVE",
"129 6 CURVE SMOOTH",
"59 6 OFFCURVE",
"111 124 OFFCURVE",
"29 124 CURVE SMOOTH",
"-14 124 OFFCURVE",
"-24 89 OFFCURVE",
"-24 61 CURVE SMOOTH",
"-24 17 OFFCURVE",
"35 -20 OFFCURVE",
"123 -20 CURVE SMOOTH",
"219 -20 OFFCURVE",
"327 25 OFFCURVE",
"327 199 CURVE SMOOTH",
"327 600 LINE"
);
}
);
};
layerId = "AA78C373-A874-4B43-A7A1-B39102DDD1E4";
name = Bold;
paths = (
{
closed = 1;
nodes = (
"402 573 LINE",
"402 600 LINE",
"97 600 LINE",
"97 573 LINE"
);
},
{
closed = 1;
nodes = (
"187 600 LINE",
"187 193 LINE SMOOTH",
"187 55 OFFCURVE",
"176 6 OFFCURVE",
"134 6 CURVE SMOOTH",
"69 6 OFFCURVE",
"131 127 OFFCURVE",
"29 127 CURVE SMOOTH",
"-3 127 OFFCURVE",
"-25 104 OFFCURVE",
"-25 72 CURVE SMOOTH",
"-25 30 OFFCURVE",
"18 -20 OFFCURVE",
"123 -20 CURVE SMOOTH",
"219 -20 OFFCURVE",
"327 25 OFFCURVE",
"327 199 CURVE SMOOTH",
"327 600 LINE"
);
}
);
width = 417;
},
{
associatedMasterId = "AA78C373-A874-4B43-A7A1-B39102DDD1E4";
background = {
paths = (
{
closed = 1;
nodes = (
"384 573 LINE",
"384 600 LINE",
"106 600 LINE",
"106 573 LINE"
);
},
{
closed = 1;
nodes = (
"172 600 LINE",
"172 253 LINE SMOOTH",
"172 174 OFFCURVE",
"180 93 OFFCURVE",
"180 55 CURVE SMOOTH",
"180 22 OFFCURVE",
"154 3 OFFCURVE",
"138 3 CURVE SMOOTH",
"93 3 OFFCURVE",
"119 92 OFFCURVE",
"57 92 CURVE SMOOTH",
"27 92 OFFCURVE",
"9 71 OFFCURVE",
"9 47 CURVE SMOOTH",
"9 16 OFFCURVE",
"44 -20 OFFCURVE",
"125 -20 CURVE SMOOTH",
"209 -20 OFFCURVE",
"316 30 OFFCURVE",
"316 211 CURVE SMOOTH",
"316 600 LINE"
);
}
);
};
layerId = "3D39AD3E-E840-47EE-872A-2D28AEEEA921";
name = "Bold Jul 12 15, 15:41";
paths = (
{
closed = 1;
nodes = (
"394 573 LINE",
"394 600 LINE",
"116 600 LINE",
"116 573 LINE"
);
},
{
closed = 1;
nodes = (
"192 600 LINE",
"192 193 LINE SMOOTH",
"192 73 OFFCURVE",
"191 3 OFFCURVE",
"148 3 CURVE SMOOTH",
"103 3 OFFCURVE",
"133 107 OFFCURVE",
"60 107 CURVE SMOOTH",
"24 107 OFFCURVE",
"5 84 OFFCURVE",
"5 57 CURVE SMOOTH",
"5 21 OFFCURVE",
"40 -22 OFFCURVE",
"124 -22 CURVE SMOOTH",
"254 -22 OFFCURVE",
"336 46 OFFCURVE",
"336 176 CURVE SMOOTH",
"336 600 LINE"
);
}
);
width = 419;
}
);
leftKerningGroup = J;
rightKerningGroup = J;
unicode = 004A;
},
{
color = 9;
glyphname = K;
lastChange = "2015-08-25 17:56:21 +0000";
layers = (
{
anchors = (
{
name = bottom;
position = "{363, 0}";
},
{
name = top;
position = "{324, 630}";
}
);
components = (
{
name = vertical_stem_upper;
transform = "{1, 0, 0, 1, 80, 0}";
}
);
layerId = "C18F3EFD-FA9C-4751-AD2F-5B966120D1A5";
name = Regular;
paths = (
{
closed = 1;
nodes = (
"285 0 LINE",
"285 20 OFFCURVE",
"279 26 OFFCURVE",
"259 26 CURVE SMOOTH",
"40 26 LINE",
"40 0 LINE"
);
},
{
closed = 1;
nodes = (
"285 574 LINE",
"285 600 LINE",
"40 600 LINE",
"40 574 LINE"
);
},
{
closed = 1;
nodes = (
"634 0 LINE",
"634 20 OFFCURVE",
"628 26 OFFCURVE",
"608 26 CURVE SMOOTH",
"581 26 LINE",
"317 369 LINE",
"255 312 LINE",
"495 0 LINE"
);
},
{
closed = 1;
nodes = (
"498 532 LINE SMOOTH",
"529 561 OFFCURVE",
"543 574 OFFCURVE",
"573 574 CURVE SMOOTH",
"592 574 OFFCURVE",
"599 579 OFFCURVE",
"599 600 CURVE",
"419 600 LINE",
"419 574 LINE",
"499 574 LINE",
"193 292 LINE",
"200 253 LINE"
);
}
);
width = 634;
},
{
anchors = (
{
name = bottom;
position = "{359, 0}";
},
{
name = top;
position = "{331, 630}";
}
);
background = {
paths = (
{
closed = 1;
nodes = (
"296 0 LINE",
"296 22 OFFCURVE",
"291 26 OFFCURVE",
"272 26 CURVE SMOOTH",
"47 26 LINE",
"47 0 LINE"
);
},
{
closed = 1;
nodes = (
"296 574 LINE",
"296 600 LINE",
"47 600 LINE",
"47 574 LINE"
);
},
{
closed = 1;
nodes = (
"203 253 LINE",
"501 532 LINE SMOOTH",
"527 556 OFFCURVE",
"546 574 OFFCURVE",
"571 574 CURVE SMOOTH",
"600 574 OFFCURVE",
"602 572 OFFCURVE",
"602 600 CURVE",
"422 600 LINE",
"422 574 LINE",
"502 574 LINE",
"196 292 LINE"
);
},
{
closed = 1;
nodes = (
"252 312 LINE",
"495 0 LINE",
"642 0 LINE",
"642 22 OFFCURVE",
"636 26 OFFCURVE",
"616 26 CURVE SMOOTH",
"579 26 LINE",
"315 369 LINE"
);
}
);
};
components = (
{
name = vertical_stem_upper;
transform = "{1, 0, 0, 1, 58, 0}";
}
);
layerId = "AA78C373-A874-4B43-A7A1-B39102DDD1E4";
name = Bold;
paths = (
{
closed = 1;
nodes = (
"320 0 LINE",
"320 20 OFFCURVE",
"313 27 OFFCURVE",
"293 27 CURVE SMOOTH",
"20 27 LINE",
"20 0 LINE"
);
},
{
closed = 1;
nodes = (
"320 573 LINE",
"320 600 LINE",
"20 600 LINE",
"20 573 LINE"
);
},
{
closed = 1;
nodes = (
"654 0 LINE",
"654 20 OFFCURVE",
"647 27 OFFCURVE",
"627 27 CURVE SMOOTH",
"618 27 LINE",
"369 396 LINE",
"262 312 LINE",
"463 -1 LINE"
);
},
{
closed = 1;
nodes = (
"526 526 LINE SMOOTH",
"562 559 OFFCURVE",
"579 573 OFFCURVE",
"604 573 CURVE SMOOTH",
"625 573 OFFCURVE",
"631 579 OFFCURVE",
"631 600 CURVE",
"446 600 LINE",
"446 573 LINE",
"526 573 LINE",
"196 275 LINE",
"203 234 LINE"
);
}
);
width = 654;
}
);
leftKerningGroup = I;
rightKerningGroup = K;
unicode = 004B;
},
{
color = 1;
glyphname = L;
lastChange = "2015-08-25 17:59:34 +0000";
layers = (
{
anchors = (
{
name = bottom;
position = "{252, 0}";
},
{
name = top;
position = "{242, 630}";
},
{
name = topright;
position = "{481, 630}";
}
);
background = {
paths = (
{
closed = 1;
nodes = (
"340 27 LINE",
"403 27 OFFCURVE",
"428 71 OFFCURVE",
"443 117 CURVE SMOOTH",
"473 216 LINE",
"506 216 LINE",
"504 0 LINE"
);
}
);
};
components = (
{
name = vertical_stem_upper;
transform = "{1, 0, 0, 1, 80, 0}";
}
);
layerId = "C18F3EFD-FA9C-4751-AD2F-5B966120D1A5";
name = Regular;
paths = (
{
closed = 1;
nodes = (
"478 0 LINE",
"483 200 LINE",
"463 200 LINE",
"446 133 LINE SMOOTH",
"433 83 OFFCURVE",
"410 26 OFFCURVE",
"343 26 CURVE SMOOTH",
"40 26 LINE",
"40 0 LINE"
);
},
{
closed = 1;
nodes = (
"290 574 LINE",
"290 600 LINE",
"40 600 LINE",
"40 574 LINE"
);
}
);
width = 493;
},
{
anchors = (
{
name = bottom;
position = "{260, 0}";
},
{
name = top;
position = "{260, 630}";
},
{
name = topright;
position = "{497, 630}";
}
);
background = {
paths = (
{
closed = 1;
nodes = (
"98 27 LINE",
"98 573 LINE",
"22 573 LINE",
"22 600 LINE",
"300 600 LINE",
"300 573 LINE",
"233 573 LINE",
"233 27 LINE",
"486 27 LINE",
"510 0 LINE",
"22 0 LINE",
"22 27 LINE"
);
},
{
closed = 1;
nodes = (
"338 27 LINE",
"414 27 OFFCURVE",
"435 74 OFFCURVE",
"451 123 CURVE SMOOTH",
"483 217 LINE",
"512 217 LINE",
"510 0 LINE"
);
}
);
};
components = (
{
name = vertical_stem_upper;
transform = "{1, 0, 0, 1, 58, 0}";
}
);
layerId = "AA78C373-A874-4B43-A7A1-B39102DDD1E4";
name = Bold;
paths = (
{
closed = 1;
nodes = (
"510 0 LINE",
"514 217 LINE",
"485 217 LINE",
"456 123 LINE SMOOTH",
"441 74 OFFCURVE",
"419 27 OFFCURVE",
"343 27 CURVE SMOOTH",
"20 27 LINE",
"20 0 LINE"
);
},
{
closed = 1;
nodes = (
"325 573 LINE",
"325 600 LINE",
"20 600 LINE",
"20 573 LINE"
);
}
);
width = 514;
}
);
leftKerningGroup = I;
rightKerningGroup = L;
unicode = 004C;
},
{
glyphname = Lslash;
lastChange = "2015-07-15 17:00:54 +0000";
layers = (
{
components = (
{
name = L;
}
);
layerId = "C18F3EFD-FA9C-4751-AD2F-5B966120D1A5";
name = Regular;
paths = (
{
closed = 1;
nodes = (
"29 157 LINE",
"410 373 LINE",
"395 398 LINE",
"14 183 LINE"
);
}
);
width = 499;
},
{
components = (
{
name = L;
}
);
layerId = "AA78C373-A874-4B43-A7A1-B39102DDD1E4";
name = Bold;
paths = (
{
closed = 1;
nodes = (
"21 147 LINE",
"431 374 LINE",
"414 405 LINE",
"4 179 LINE"
);
}
);
width = 515;
}
);
unicode = 0141;
},
{
color = 1;
glyphname = M;
lastChange = "2015-08-25 11:18:31 +0000";
layers = (
{
background = {
paths = (
{
closed = 1;
nodes = (
"781 0 LINE",
"781 20 OFFCURVE",
"775 26 OFFCURVE",
"755 26 CURVE SMOOTH",
"541 26 LINE",
"541 0 LINE"
);
},
{
closed = 1;
nodes = (
"781 574 LINE",
"781 600 LINE",
"638 600 LINE",
"638 574 LINE"
);
},
{
closed = 1;
nodes = (
"230 0 LINE",
"230 20 OFFCURVE",
"224 26 OFFCURVE",
"204 26 CURVE SMOOTH",
"150 26 LINE",
"150 600 LINE",
"30 600 LINE",
"30 574 LINE",
"110 574 LINE",
"110 26 LINE",
"30 26 LINE",
"30 0 LINE"
);
},
{
closed = 1;
nodes = (
"390 -5 LINE",
"411 96 LINE",
"173 600 LINE",
"120 600 LINE",
"120 520 LINE",
"369 -5 LINE"
);
},
{
closed = 1;
nodes = (
"661 600 LINE",
"621 600 LINE",
"364 16 LINE",
"390 -5 LINE"
);
},
{
closed = 1;
nodes = (
"701 0 LINE",
"701 600 LINE",
"621 600 LINE",
"621 0 LINE"
);
}
);
};
layerId = "C18F3EFD-FA9C-4751-AD2F-5B966120D1A5";
name = Regular;
paths = (
{
closed = 1;
nodes = (
"781 600 LINE",
"621 600 LINE",
"394 86 LINE",
"416 86 LINE",
"173 600 LINE",
"30 600 LINE",
"30 574 LINE",
"110 574 LINE",
"110 26 LINE",
"30 26 LINE",
"30 0 LINE",
"230 0 LINE",
"230 20 OFFCURVE",
"224 26 OFFCURVE",
"204 26 CURVE SMOOTH",
"150 26 LINE",
"150 500 LINE",
"138 482 LINE",
"369 -5 LINE",
"390 -5 LINE",
"630 530 LINE",
"621 550 LINE",
"621 26 LINE",
"541 26 LINE",
"541 0 LINE",
"781 0 LINE",
"781 20 OFFCURVE",
"775 26 OFFCURVE",
"755 26 CURVE SMOOTH",
"701 26 LINE",
"701 574 LINE",
"781 574 LINE"
);
}
);
width = 811;
},
{
background = {
paths = (
{
closed = 1;
nodes = (
"793 0 LINE",
"793 20 OFFCURVE",
"786 27 OFFCURVE",
"766 27 CURVE SMOOTH",
"498 27 LINE",
"498 0 LINE"
);
},
{
closed = 1;
nodes = (
"793 573 LINE",
"793 600 LINE",
"622 600 LINE",
"622 573 LINE"
);
},
{
closed = 1;
nodes = (
"212 0 LINE",
"212 20 OFFCURVE",
"205 27 OFFCURVE",
"185 27 CURVE SMOOTH",
"132 27 LINE",
"132 600 LINE",
"10 600 LINE",
"10 573 LINE",
"90 573 LINE",
"90 27 LINE",
"10 27 LINE",
"10 0 LINE"
);
},
{
closed = 1;
nodes = (
"363 -10 LINE",
"414 139 LINE",
"189 600 LINE",
"99 600 LINE",
"99 468 LINE",
"345 -10 LINE"
);
},
{
closed = 1;
nodes = (
"619 600 LINE",
"578 600 LINE",
"343 35 LINE",
"363 -10 LINE"
);
},
{
closed = 1;
nodes = (
"713 0 LINE",
"713 600 LINE",
"578 600 LINE",
"578 0 LINE"
);
}
);
};
layerId = "AA78C373-A874-4B43-A7A1-B39102DDD1E4";
name = Bold;
paths = (
{
closed = 1;
nodes = (
"793 600 LINE",
"578 600 LINE",
"386 138 LINE",
"414 139 LINE",
"189 600 LINE",
"10 600 LINE",
"10 573 LINE",
"90 573 LINE",
"90 27 LINE",
"10 27 LINE",
"10 0 LINE",
"212 0 LINE",
"212 20 OFFCURVE",
"205 27 OFFCURVE",
"185 27 CURVE SMOOTH",
"132 27 LINE",
"132 431 LINE",
"125 418 LINE",
"345 -10 LINE",
"363 -10 LINE",
"584 516 LINE",
"578 528 LINE",
"578 27 LINE",
"498 27 LINE",
"498 0 LINE",
"793 0 LINE",
"793 20 OFFCURVE",
"786 27 OFFCURVE",
"766 27 CURVE SMOOTH",
"713 27 LINE",
"713 573 LINE",
"793 573 LINE"
);
}
);
width = 803;
}
);
unicode = 004D;
},
{
color = 1;
glyphname = N;
lastChange = "2015-08-25 20:05:13 +0000";
layers = (
{
anchors = (
{
name = bottom;
position = "{337, 0}";
},
{
name = top;
position = "{337, 630}";
}
);
background = {
paths = (
{
closed = 1;
nodes = (
"225 0 LINE",
"225 20 OFFCURVE",
"219 26 OFFCURVE",
"199 26 CURVE SMOOTH",
"140 26 LINE",
"140 600 LINE",
"20 600 LINE",
"20 574 LINE",
"100 574 LINE",
"100 26 LINE",
"20 26 LINE",
"20 0 LINE"
);
},
{
closed = 1;
nodes = (
"579 574 LINE",
"659 574 LINE",
"659 600 LINE",
"454 600 LINE",
"454 574 LINE",
"539 574 LINE",
"539 5 LINE",
"579 5 LINE"
);
},
{
closed = 1;
nodes = (
"579 5 LINE",
"540 124 LINE",
"159 600 LINE",
"110 600 LINE",
"115 520 LINE",
"533 -5 LINE"
);
}
);
};
layerId = "C18F3EFD-FA9C-4751-AD2F-5B966120D1A5";
name = Regular;
paths = (
{
closed = 1;
nodes = (
"454 574 LINE",
"539 574 LINE",
"539 105 LINE",
"555 105 LINE",
"159 600 LINE",
"20 600 LINE",
"20 574 LINE",
"100 574 LINE",
"100 26 LINE",
"20 26 LINE",
"20 0 LINE",
"225 0 LINE",
"225 20 OFFCURVE",
"219 26 OFFCURVE",
"199 26 CURVE SMOOTH",
"140 26 LINE",
"140 514 LINE",
"120 514 LINE",
"533 -5 LINE",
"579 5 LINE",
"579 574 LINE",
"659 574 LINE",
"659 600 LINE",
"454 600 LINE"
);
}
);
width = 669;
},
{
anchors = (
{
name = bottom;
position = "{332, 0}";
},
{
name = top;
position = "{335, 630}";
}
);
background = {
paths = (
{
closed = 1;
nodes = (
"222 0 LINE",
"222 20 OFFCURVE",
"215 27 OFFCURVE",
"195 27 CURVE SMOOTH",
"137 27 LINE",
"137 600 LINE",
"15 600 LINE",
"15 573 LINE",
"95 573 LINE",
"95 27 LINE",
"15 27 LINE",
"15 0 LINE"
);
},
{
closed = 1;
nodes = (
"579 573 LINE",
"659 573 LINE",
"659 600 LINE",
"457 600 LINE",
"457 573 LINE",
"537 573 LINE",
"537 5 LINE",
"579 5 LINE"
);
},
{
closed = 1;
nodes = (
"579 5 LINE",
"579 141 LINE",
"184 600 LINE",
"104 600 LINE",
"104 483 LINE",
"522 -5 LINE"
);
}
);
};
layerId = "AA78C373-A874-4B43-A7A1-B39102DDD1E4";
name = Bold;
paths = (
{
closed = 1;
nodes = (
"457 573 LINE",
"537 573 LINE",
"537 164 LINE",
"556 164 LINE",
"184 600 LINE",
"15 600 LINE",
"15 573 LINE",
"95 573 LINE",
"95 27 LINE",
"15 27 LINE",
"15 0 LINE",
"222 0 LINE",
"222 20 OFFCURVE",
"215 27 OFFCURVE",
"195 27 CURVE SMOOTH",
"137 27 LINE",
"137 476 LINE",
"110 476 LINE",
"522 -5 LINE",
"579 5 LINE",
"579 573 LINE",
"659 573 LINE",
"659 600 LINE",
"457 600 LINE"
);
}
);
width = 664;
}
);
leftKerningGroup = I;
rightKerningGroup = N;
unicode = 004E;
},
{
color = 3;
glyphname = O;
lastChange = "2015-08-25 20:10:02 +0000";
layers = (
{
anchors = (
{
name = top;
position = "{353, 630}";
}
);
background = {
paths = (
{
closed = 1;
nodes = (
"462 471 OFFCURVE",
"343 471 CURVE SMOOTH",
"223 471 OFFCURVE",
"105 387 OFFCURVE",
"105 233 CURVE SMOOTH",
"105 79 OFFCURVE",
"222 -10 OFFCURVE",
"343 -10 CURVE SMOOTH",
"463 -10 OFFCURVE",
"580 78 OFFCURVE",
"580 233 CURVE SMOOTH",
"580 388 OFFCURVE"
);
},
{
closed = 1;
nodes = (
"417 10 OFFCURVE",
"343 10 CURVE SMOOTH",
"268 10 OFFCURVE",
"193 58 OFFCURVE",
"193 234 CURVE SMOOTH",
"193 400 OFFCURVE",
"260 451 OFFCURVE",
"343 451 CURVE SMOOTH",
"425 451 OFFCURVE",
"492 401 OFFCURVE",
"492 234 CURVE SMOOTH",
"492 58 OFFCURVE"
);
}
);
};
layerId = "C18F3EFD-FA9C-4751-AD2F-5B966120D1A5";
name = Regular;
paths = (
{
closed = 1;
nodes = (
"650 507 OFFCURVE",
"502 610 OFFCURVE",
"355 610 CURVE SMOOTH",
"207 610 OFFCURVE",
"55 502 OFFCURVE",
"55 304 CURVE SMOOTH",
"55 99 OFFCURVE",
"203 -10 OFFCURVE",
"352 -10 CURVE SMOOTH",
"500 -10 OFFCURVE",
"650 102 OFFCURVE",
"650 300 CURVE SMOOTH"
);
},
{
closed = 1;
nodes = (
"550 100 OFFCURVE",
"465 18 OFFCURVE",
"355 18 CURVE SMOOTH",
"245 18 OFFCURVE",
"155 90 OFFCURVE",
"155 300 CURVE SMOOTH",
"155 508 OFFCURVE",
"242 582 OFFCURVE",
"352 582 CURVE SMOOTH",
"462 582 OFFCURVE",
"550 517 OFFCURVE",
"550 304 CURVE SMOOTH"
);
}
);
width = 705;
},
{
anchors = (
{
name = top;
position = "{358, 630}";
}
);
background = {
paths = (
{
closed = 1;
nodes = (
"648 507 OFFCURVE",
"500 610 OFFCURVE",
"353 610 CURVE SMOOTH",
"205 610 OFFCURVE",
"53 502 OFFCURVE",
"53 304 CURVE SMOOTH",
"53 99 OFFCURVE",
"201 -10 OFFCURVE",
"350 -10 CURVE SMOOTH",
"498 -10 OFFCURVE",
"648 102 OFFCURVE",
"648 300 CURVE SMOOTH"
);
},
{
closed = 1;
nodes = (
"548 100 OFFCURVE",
"458 15 OFFCURVE",
"353 15 CURVE SMOOTH",
"248 15 OFFCURVE",
"154 90 OFFCURVE",
"154 300 CURVE SMOOTH",
"154 508 OFFCURVE",
"245 585 OFFCURVE",
"350 585 CURVE SMOOTH",
"455 585 OFFCURVE",
"548 517 OFFCURVE",
"548 304 CURVE SMOOTH"
);
}
);
};
layerId = "AA78C373-A874-4B43-A7A1-B39102DDD1E4";
name = Bold;
paths = (
{
closed = 1;
nodes = (
"669 503 OFFCURVE",
"520 610 OFFCURVE",
"355 610 CURVE SMOOTH",
"190 610 OFFCURVE",
"35 497 OFFCURVE",
"35 302 CURVE SMOOTH",
"35 102 OFFCURVE",
"187 -10 OFFCURVE",
"352 -10 CURVE SMOOTH",
"516 -10 OFFCURVE",
"669 103 OFFCURVE",
"669 298 CURVE SMOOTH"
);
},
{
closed = 1;
nodes = (
"512 98 OFFCURVE",
"463 19 OFFCURVE",
"355 19 CURVE SMOOTH",
"247 19 OFFCURVE",
"192 88 OFFCURVE",
"192 298 CURVE SMOOTH",
"192 498 OFFCURVE",
"244 581 OFFCURVE",
"352 581 CURVE SMOOTH",
"460 581 OFFCURVE",
"512 500 OFFCURVE",
"512 303 CURVE SMOOTH"
);
}
);
width = 704;
},
{
associatedMasterId = "C18F3EFD-FA9C-4751-AD2F-5B966120D1A5";
background = {
paths = (
{
closed = 1;
nodes = (
"452 471 OFFCURVE",
"333 471 CURVE SMOOTH",
"213 471 OFFCURVE",
"95 387 OFFCURVE",
"95 233 CURVE SMOOTH",
"95 79 OFFCURVE",
"212 -10 OFFCURVE",
"333 -10 CURVE SMOOTH",
"453 -10 OFFCURVE",
"570 78 OFFCURVE",
"570 233 CURVE SMOOTH",
"570 388 OFFCURVE"
);
},
{
closed = 1;
nodes = (
"407 10 OFFCURVE",
"333 10 CURVE SMOOTH",
"258 10 OFFCURVE",
"183 58 OFFCURVE",
"183 234 CURVE SMOOTH",
"183 400 OFFCURVE",
"250 451 OFFCURVE",
"333 451 CURVE SMOOTH",
"415 451 OFFCURVE",
"482 401 OFFCURVE",
"482 234 CURVE SMOOTH",
"482 58 OFFCURVE"
);
}
);
};
layerId = "5B85481B-2676-417C-8015-077A828813F3";
name = "Regular Jun 12 15, 17:45";
paths = (
{
closed = 1;
nodes = (
"482 603 OFFCURVE",
"330 603 CURVE SMOOTH",
"177 603 OFFCURVE",
"30 500 OFFCURVE",
"30 300 CURVE SMOOTH",
"30 100 OFFCURVE",
"181 -10 OFFCURVE",
"335 -10 CURVE SMOOTH",
"488 -10 OFFCURVE",
"635 96 OFFCURVE",
"635 296 CURVE SMOOTH",
"635 496 OFFCURVE"
);
},
{
closed = 1;
nodes = (
"440 16 OFFCURVE",
"330 16 CURVE SMOOTH",
"220 16 OFFCURVE",
"142 86 OFFCURVE",
"142 296 CURVE SMOOTH",
"142 506 OFFCURVE",
"225 578 OFFCURVE",
"335 578 CURVE SMOOTH",
"445 578 OFFCURVE",
"523 510 OFFCURVE",
"523 300 CURVE SMOOTH",
"523 90 OFFCURVE"
);
}
);
width = 665;
}
);
leftKerningGroup = O;
rightKerningGroup = O;
unicode = 004F;
},
{
color = 1;
glyphname = OE;
lastChange = "2015-08-26 04:35:40 +0000";
layers = (
{
anchors = (
{
name = top;
position = "{257, 630}";
}
);
background = {
paths = (
{
closed = 1;
nodes = (
"700 574 LINE SMOOTH",
"767 574 OFFCURVE",
"802 515 OFFCURVE",
"816 467 CURVE SMOOTH",
"830 420 LINE",
"850 420 LINE",
"845 600 LINE",
"489 600 LINE SMOOTH",
"443 600 OFFCURVE",
"400 605 OFFCURVE",
"355 605 CURVE SMOOTH",
"207 605 OFFCURVE",
"55 502 OFFCURVE",
"55 304 CURVE SMOOTH",
"55 99 OFFCURVE",
"203 -5 OFFCURVE",
"352 -5 CURVE SMOOTH",
"388 -5 OFFCURVE",
"456 0 OFFCURVE",
"490 0 CURVE SMOOTH",
"845 0 LINE",
"850 180 LINE",
"830 180 LINE",
"816 133 LINE SMOOTH",
"801 82 OFFCURVE",
"767 26 OFFCURVE",
"700 26 CURVE SMOOTH",
"509 26 LINE",
"480 46 LINE",
"447 29 OFFCURVE",
"407 23 OFFCURVE",
"355 23 CURVE SMOOTH",
"245 23 OFFCURVE",
"155 90 OFFCURVE",
"155 300 CURVE SMOOTH",
"155 508 OFFCURVE",
"242 577 OFFCURVE",
"352 577 CURVE SMOOTH",
"406 577 OFFCURVE",
"443 568 OFFCURVE",
"480 554 CURVE",
"509 574 LINE"
);
}
);
};
components = (
{
name = vertical_stem_upper;
transform = "{1, 0, 0, 1, 424, 0}";
}
);
layerId = "C18F3EFD-FA9C-4751-AD2F-5B966120D1A5";
name = Regular;
paths = (
{
closed = 1;
nodes = (
"418 -5 OFFCURVE",
"466 0 OFFCURVE",
"500 0 CURVE SMOOTH",
"845 0 LINE",
"850 180 LINE",
"830 180 LINE",
"817 133 LINE SMOOTH",
"803 82 OFFCURVE",
"770 26 OFFCURVE",
"697 26 CURVE SMOOTH",
"509 26 LINE",
"480 43 LINE",
"446 29 OFFCURVE",
"408 22 OFFCURVE",
"371 22 CURVE SMOOTH",
"215 22 OFFCURVE",
"155 130 OFFCURVE",
"155 300 CURVE SMOOTH",
"155 466 OFFCURVE",
"210 578 OFFCURVE",
"363 578 CURVE SMOOTH",
"403 578 OFFCURVE",
"443 570 OFFCURVE",
"480 557 CURVE",
"509 574 LINE",
"697 574 LINE SMOOTH",
"769 574 OFFCURVE",
"802 515 OFFCURVE",
"816 467 CURVE SMOOTH",
"830 420 LINE",
"850 420 LINE",
"845 600 LINE",
"499 600 LINE SMOOTH",
"453 600 OFFCURVE",
"405 605 OFFCURVE",
"360 605 CURVE SMOOTH",
"207 605 OFFCURVE",
"55 502 OFFCURVE",
"55 304 CURVE SMOOTH",
"55 99 OFFCURVE",
"203 -5 OFFCURVE",
"362 -5 CURVE SMOOTH"
);
},
{
closed = 1;
nodes = (
"756 295 LINE",
"756 324 LINE",
"506 324 LINE",
"506 295 LINE"
);
}
);
width = 900;
},
{
anchors = (
{
name = top;
position = "{290, 630}";
}
);
background = {
paths = (
{
closed = 1;
nodes = (
"878 403 LINE",
"874 600 LINE",
"404 600 LINE",
"404 573 LINE",
"702 573 LINE SMOOTH",
"778 573 OFFCURVE",
"804 526 OFFCURVE",
"822 477 CURVE SMOOTH",
"849 403 LINE"
);
},
{
closed = 1;
nodes = (
"874 0 LINE",
"878 197 LINE",
"849 197 LINE",
"821 123 LINE SMOOTH",
"803 76 OFFCURVE",
"778 27 OFFCURVE",
"702 27 CURVE SMOOTH",
"376 27 LINE",
"376 0 LINE"
);
},
{
closed = 1;
nodes = (
"786 294 LINE",
"786 324 LINE",
"516 324 LINE",
"516 294 LINE"
);
},
{
closed = 0;
nodes = (
"444 597 LINE",
"418 606 OFFCURVE",
"388 610 OFFCURVE",
"355 610 CURVE SMOOTH",
"190 610 OFFCURVE",
"35 497 OFFCURVE",
"35 302 CURVE SMOOTH",
"35 102 OFFCURVE",
"187 -10 OFFCURVE",
"352 -10 CURVE SMOOTH",
"391 -10 OFFCURVE",
"426 -4 OFFCURVE",
"455 9 CURVE SMOOTH"
);
},
{
closed = 0;
nodes = (
"463 66 LINE",
"438 32 OFFCURVE",
"402 17 OFFCURVE",
"355 17 CURVE SMOOTH",
"247 17 OFFCURVE",
"192 88 OFFCURVE",
"192 298 CURVE SMOOTH",
"192 498 OFFCURVE",
"244 583 OFFCURVE",
"352 583 CURVE SMOOTH",
"398 583 OFFCURVE",
"435 568 OFFCURVE",
"461 534 CURVE SMOOTH"
);
}
);
};
components = (
{
name = vertical_stem_upper;
transform = "{1, 0, 0, 1, 414, 0}";
}
);
layerId = "AA78C373-A874-4B43-A7A1-B39102DDD1E4";
name = Bold;
paths = (
{
closed = 1;
nodes = (
"391 -5 OFFCURVE",
"464 0 OFFCURVE",
"486 0 CURVE SMOOTH",
"874 0 LINE",
"878 197 LINE",
"849 197 LINE",
"821 123 LINE SMOOTH",
"803 76 OFFCURVE",
"778 27 OFFCURVE",
"702 27 CURVE SMOOTH",
"521 27 LINE",
"458 40 LINE",
"422 24 OFFCURVE",
"388 21 OFFCURVE",
"356 21 CURVE SMOOTH",
"224 21 OFFCURVE",
"192 133 OFFCURVE",
"192 298 CURVE SMOOTH",
"192 468 OFFCURVE",
"226 579 OFFCURVE",
"372 579 CURVE SMOOTH",
"401 579 OFFCURVE",
"431 574 OFFCURVE",
"456 563 CURVE",
"525 573 LINE",
"702 573 LINE SMOOTH",
"778 573 OFFCURVE",
"804 526 OFFCURVE",
"822 477 CURVE SMOOTH",
"849 403 LINE",
"878 403 LINE",
"874 600 LINE",
"496 600 LINE SMOOTH",
"464 600 OFFCURVE",
"388 605 OFFCURVE",
"355 605 CURVE SMOOTH",
"190 605 OFFCURVE",
"35 497 OFFCURVE",
"35 302 CURVE SMOOTH",
"35 102 OFFCURVE",
"187 -5 OFFCURVE",
"352 -5 CURVE SMOOTH"
);
},
{
closed = 1;
nodes = (
"786 294 LINE",
"786 324 LINE",
"516 324 LINE",
"516 294 LINE"
);
}
);
width = 923;
}
);
leftMetricsKey = O;
rightMetricsKey = E;
unicode = 0152;
},
{
color = 9;
glyphname = P;
lastChange = "2015-08-25 18:14:49 +0000";
layers = (
{
background = {
components = (
{
name = vertical_stem_upper;
transform = "{1, 0, 0, 1, 80, 0}";
}
);
paths = (
{
closed = 1;
nodes = (
"326 0 LINE",
"326 26 LINE",
"37 26 LINE",
"37 0 LINE"
);
},
{
closed = 1;
nodes = (
"37 600 LINE",
"37 574 LINE",
"315 574 LINE SMOOTH",
"400 574 OFFCURVE",
"438 513 OFFCURVE",
"438 438 CURVE SMOOTH",
"438 363 OFFCURVE",
"403 294 OFFCURVE",
"318 294 CURVE SMOOTH",
"162 294 LINE",
"162 265 LINE",
"314 265 LINE SMOOTH",
"459 265 OFFCURVE",
"532 349 OFFCURVE",
"532 439 CURVE SMOOTH",
"532 526 OFFCURVE",
"470 600 OFFCURVE",
"336 600 CURVE SMOOTH"
);
}
);
};
components = (
{
name = vertical_stem_upper;
transform = "{1, 0, 0, 1, 80, 0}";
}
);
layerId = "C18F3EFD-FA9C-4751-AD2F-5B966120D1A5";
name = Regular;
paths = (
{
closed = 1;
nodes = (
"40 600 LINE",
"40 574 LINE",
"315 574 LINE SMOOTH",
"400 574 OFFCURVE",
"438 513 OFFCURVE",
"438 438 CURVE SMOOTH",
"438 353 OFFCURVE",
"398 294 OFFCURVE",
"298 294 CURVE SMOOTH",
"162 294 LINE",
"162 265 LINE",
"294 265 LINE SMOOTH",
"449 265 OFFCURVE",
"532 334 OFFCURVE",
"532 439 CURVE SMOOTH",
"532 529 OFFCURVE",
"471 600 OFFCURVE",
"336 600 CURVE SMOOTH"
);
},
{
closed = 1;
nodes = (
"306 0 LINE",
"306 20 OFFCURVE",
"300 26 OFFCURVE",
"280 26 CURVE SMOOTH",
"40 26 LINE",
"40 0 LINE"
);
}
);
width = 562;
},
{
background = {
paths = (
{
closed = 1;
nodes = (
"477 264 OFFCURVE",
"552 352 OFFCURVE",
"552 438 CURVE SMOOTH",
"552 520 OFFCURVE",
"484 600 OFFCURVE",
"354 600 CURVE SMOOTH",
"22 600 LINE",
"22 573 LINE",
"287 573 LINE SMOOTH",
"369 573 OFFCURVE",
"402 503 OFFCURVE",
"402 433 CURVE SMOOTH",
"402 363 OFFCURVE",
"370 294 OFFCURVE",
"295 294 CURVE",
"322 264 LINE"
);
},
{
closed = 1;
nodes = (
"358 0 LINE",
"358 27 LINE",
"22 27 LINE",
"22 0 LINE"
);
},
{
closed = 1;
nodes = (
"322 264 LINE",
"295 294 LINE",
"140 294 LINE",
"140 264 LINE"
);
}
);
};
components = (
{
name = vertical_stem_upper;
transform = "{1, 0, 0, 1, 58, 0}";
}
);
layerId = "AA78C373-A874-4B43-A7A1-B39102DDD1E4";
name = Bold;
paths = (
{
closed = 1;
nodes = (
"20 600 LINE",
"20 573 LINE",
"297 573 LINE SMOOTH",
"379 573 OFFCURVE",
"402 508 OFFCURVE",
"402 433 CURVE SMOOTH",
"402 353 OFFCURVE",
"373 294 OFFCURVE",
"293 294 CURVE SMOOTH",
"140 294 LINE",
"140 264 LINE",
"322 264 LINE SMOOTH",
"485 264 OFFCURVE",
"552 342 OFFCURVE",
"552 442 CURVE SMOOTH",
"552 532 OFFCURVE",
"486 600 OFFCURVE",
"354 600 CURVE SMOOTH"
);
},
{
closed = 1;
nodes = (
"340 0 LINE",
"340 20 OFFCURVE",
"333 27 OFFCURVE",
"313 27 CURVE SMOOTH",
"20 27 LINE",
"20 0 LINE"
);
}
);
width = 562;
}
);
leftKerningGroup = I;
unicode = 0050;
},
{
color = 1;
glyphname = Thorn;
lastChange = "2015-07-31 09:14:49 +0000";
layers = (
{
components = (
{
name = vertical_stem_upper;
transform = "{1, 0, 0, 1, 78, 0}";
}
);
layerId = "C18F3EFD-FA9C-4751-AD2F-5B966120D1A5";
name = Regular;
paths = (
{
closed = 1;
nodes = (
"292 145 LINE SMOOTH",
"447 145 OFFCURVE",
"530 214 OFFCURVE",
"530 319 CURVE SMOOTH",
"530 409 OFFCURVE",
"469 480 OFFCURVE",
"334 480 CURVE SMOOTH",
"160 480 LINE",
"160 454 LINE",
"313 454 LINE SMOOTH",
"398 454 OFFCURVE",
"436 393 OFFCURVE",
"436 318 CURVE SMOOTH",
"436 233 OFFCURVE",
"396 174 OFFCURVE",
"296 174 CURVE SMOOTH",
"160 174 LINE",
"160 145 LINE"
);
},
{
closed = 1;
nodes = (
"291 0 LINE",
"291 22 OFFCURVE",
"286 26 OFFCURVE",
"266 26 CURVE SMOOTH",
"35 26 LINE",
"35 0 LINE"
);
},
{
closed = 1;
nodes = (
"291 574 LINE",
"291 600 LINE",
"35 600 LINE",
"35 574 LINE"
);
}
);
width = 585;
},
{
components = (
{
name = vertical_stem_upper;
transform = "{1, 0, 0, 1, 47, 0}";
}
);
layerId = "AA78C373-A874-4B43-A7A1-B39102DDD1E4";
name = Bold;
paths = (
{
closed = 1;
nodes = (
"311 144 LINE SMOOTH",
"474 144 OFFCURVE",
"541 222 OFFCURVE",
"541 322 CURVE SMOOTH",
"541 412 OFFCURVE",
"475 480 OFFCURVE",
"343 480 CURVE SMOOTH",
"153 480 LINE",
"153 453 LINE",
"286 453 LINE SMOOTH",
"368 453 OFFCURVE",
"391 388 OFFCURVE",
"391 313 CURVE SMOOTH",
"391 233 OFFCURVE",
"362 174 OFFCURVE",
"282 174 CURVE SMOOTH",
"153 174 LINE",
"153 144 LINE"
);
},
{
closed = 1;
nodes = (
"298 0 LINE",
"298 23 OFFCURVE",
"293 27 OFFCURVE",
"274 27 CURVE SMOOTH",
"20 27 LINE",
"20 0 LINE"
);
},
{
closed = 1;
nodes = (
"298 573 LINE",
"298 600 LINE",
"20 600 LINE",
"20 573 LINE"
);
}
);
width = 576;
}
);
leftMetricsKey = P;
rightMetricsKey = P;
unicode = 00DE;
},
{
color = 1;
glyphname = Q;
lastChange = "2015-08-25 20:05:58 +0000";
layers = (
{
background = {
paths = (
{
closed = 1;
nodes = (
"652 505 OFFCURVE",
"504 610 OFFCURVE",
"357 610 CURVE SMOOTH",
"209 610 OFFCURVE",
"57 504 OFFCURVE",
"57 301 CURVE SMOOTH",
"57 101 OFFCURVE",
"205 -10 OFFCURVE",
"354 -10 CURVE SMOOTH",
"502 -10 OFFCURVE",
"652 100 OFFCURVE",
"652 303 CURVE SMOOTH"
);
},
{
closed = 1;
nodes = (
"552 101 OFFCURVE",
"469 18 OFFCURVE",
"354 18 CURVE SMOOTH",
"248 18 OFFCURVE",
"157 89 OFFCURVE",
"157 301 CURVE SMOOTH",
"157 507 OFFCURVE",
"243 582 OFFCURVE",
"356 582 CURVE SMOOTH",
"463 582 OFFCURVE",
"552 516 OFFCURVE",
"552 305 CURVE SMOOTH"
);
},
{
closed = 1;
nodes = (
"280 64 OFFCURVE",
"310 84 OFFCURVE",
"339 84 CURVE SMOOTH",
"437 84 OFFCURVE",
"459 -140 OFFCURVE",
"585 -140 CURVE SMOOTH",
"643 -140 OFFCURVE",
"685 -98 OFFCURVE",
"717 -24 CURVE",
"696 -12 LINE",
"658 -53 OFFCURVE",
"627 -75 OFFCURVE",
"597 -75 CURVE SMOOTH",
"505 -75 OFFCURVE",
"459 119 OFFCURVE",
"342 119 CURVE SMOOTH",
"297 119 OFFCURVE",
"258 85 OFFCURVE",
"231 39 CURVE",
"250 20 LINE"
);
}
);
};
layerId = "C18F3EFD-FA9C-4751-AD2F-5B966120D1A5";
name = Regular;
paths = (
{
closed = 1;
nodes = (
"652 505 OFFCURVE",
"504 610 OFFCURVE",
"357 610 CURVE SMOOTH",
"209 610 OFFCURVE",
"57 504 OFFCURVE",
"57 301 CURVE SMOOTH",
"57 101 OFFCURVE",
"205 -10 OFFCURVE",
"354 -10 CURVE SMOOTH",
"502 -10 OFFCURVE",
"652 100 OFFCURVE",
"652 303 CURVE SMOOTH"
);
},
{
closed = 1;
nodes = (
"552 101 OFFCURVE",
"469 18 OFFCURVE",
"354 18 CURVE SMOOTH",
"248 18 OFFCURVE",
"157 89 OFFCURVE",
"157 301 CURVE SMOOTH",
"157 507 OFFCURVE",
"243 582 OFFCURVE",
"356 582 CURVE SMOOTH",
"463 582 OFFCURVE",
"552 516 OFFCURVE",
"552 305 CURVE SMOOTH"
);
},
{
closed = 1;
nodes = (
"280 64 OFFCURVE",
"310 84 OFFCURVE",
"339 84 CURVE SMOOTH",
"437 84 OFFCURVE",
"460 -140 OFFCURVE",
"585 -140 CURVE SMOOTH",
"643 -140 OFFCURVE",
"685 -96 OFFCURVE",
"717 -24 CURVE",
"696 -12 LINE",
"662 -53 OFFCURVE",
"631 -75 OFFCURVE",
"597 -75 CURVE SMOOTH",
"505 -75 OFFCURVE",
"459 119 OFFCURVE",
"342 119 CURVE SMOOTH",
"297 119 OFFCURVE",
"258 85 OFFCURVE",
"231 39 CURVE",
"250 20 LINE"
);
}
);
width = 707;
},
{
background = {
paths = (
{
closed = 1;
nodes = (
"671 503 OFFCURVE",
"522 610 OFFCURVE",
"357 610 CURVE SMOOTH",
"192 610 OFFCURVE",
"37 497 OFFCURVE",
"37 302 CURVE SMOOTH",
"37 102 OFFCURVE",
"189 -10 OFFCURVE",
"354 -10 CURVE SMOOTH",
"518 -10 OFFCURVE",
"671 103 OFFCURVE",
"671 298 CURVE SMOOTH"
);
},
{
closed = 1;
nodes = (
"514 98 OFFCURVE",
"465 19 OFFCURVE",
"357 19 CURVE SMOOTH",
"249 19 OFFCURVE",
"194 88 OFFCURVE",
"194 298 CURVE SMOOTH",
"194 498 OFFCURVE",
"246 581 OFFCURVE",
"354 581 CURVE SMOOTH",
"462 581 OFFCURVE",
"514 500 OFFCURVE",
"514 303 CURVE SMOOTH"
);
},
{
closed = 1;
nodes = (
"274 -342 OFFCURVE",
"300 -321 OFFCURVE",
"330 -321 CURVE SMOOTH",
"420 -321 OFFCURVE",
"466 -507 OFFCURVE",
"577 -507 CURVE SMOOTH",
"638 -507 OFFCURVE",
"694 -463 OFFCURVE",
"737 -367 CURVE",
"713 -350 LINE",
"674 -389 OFFCURVE",
"641 -410 OFFCURVE",
"597 -410 CURVE SMOOTH",
"520 -410 OFFCURVE",
"434 -272 OFFCURVE",
"346 -272 CURVE SMOOTH",
"297 -272 OFFCURVE",
"253 -313 OFFCURVE",
"227 -361 CURVE",
"246 -377 LINE"
);
},
{
closed = 1;
nodes = (
"274 58 OFFCURVE",
"300 79 OFFCURVE",
"330 79 CURVE SMOOTH",
"375 79 OFFCURVE",
"405 30 OFFCURVE",
"437 -23 CURVE SMOOTH",
"477 -88 OFFCURVE",
"519 -160 OFFCURVE",
"595 -160 CURVE SMOOTH",
"654 -160 OFFCURVE",
"701 -128 OFFCURVE",
"739 -35 CURVE",
"715 -21 LINE",
"676 -60 OFFCURVE",
"655 -70 OFFCURVE",
"623 -70 CURVE SMOOTH",
"520 -70 OFFCURVE",
"454 126 OFFCURVE",
"340 126 CURVE SMOOTH",
"295 126 OFFCURVE",
"253 87 OFFCURVE",
"227 39 CURVE",
"246 23 LINE"
);
}
);
};
layerId = "AA78C373-A874-4B43-A7A1-B39102DDD1E4";
name = Bold;
paths = (
{
closed = 1;
nodes = (
"671 503 OFFCURVE",
"522 610 OFFCURVE",
"357 610 CURVE SMOOTH",
"192 610 OFFCURVE",
"37 497 OFFCURVE",
"37 302 CURVE SMOOTH",
"37 102 OFFCURVE",
"189 -10 OFFCURVE",
"354 -10 CURVE SMOOTH",
"518 -10 OFFCURVE",
"671 103 OFFCURVE",
"671 298 CURVE SMOOTH"
);
},
{
closed = 1;
nodes = (
"517 98 OFFCURVE",
"474 19 OFFCURVE",
"357 19 CURVE SMOOTH",
"239 19 OFFCURVE",
"191 88 OFFCURVE",
"191 298 CURVE SMOOTH",
"191 498 OFFCURVE",
"243 581 OFFCURVE",
"354 581 CURVE SMOOTH",
"465 581 OFFCURVE",
"517 500 OFFCURVE",
"517 303 CURVE SMOOTH"
);
},
{
closed = 1;
nodes = (
"274 58 OFFCURVE",
"300 79 OFFCURVE",
"330 79 CURVE SMOOTH",
"420 79 OFFCURVE",
"467 -160 OFFCURVE",
"603 -160 CURVE SMOOTH",
"659 -160 OFFCURVE",
"705 -118 OFFCURVE",
"739 -35 CURVE",
"715 -21 LINE",
"676 -60 OFFCURVE",
"655 -70 OFFCURVE",
"623 -70 CURVE SMOOTH",
"520 -70 OFFCURVE",
"454 126 OFFCURVE",
"340 126 CURVE SMOOTH",
"295 126 OFFCURVE",
"253 87 OFFCURVE",
"227 39 CURVE",
"246 23 LINE"
);
}
);
width = 709;
},
{
associatedMasterId = "C18F3EFD-FA9C-4751-AD2F-5B966120D1A5";
background = {
paths = (
{
closed = 1;
nodes = (
"650 507 OFFCURVE",
"502 610 OFFCURVE",
"355 610 CURVE SMOOTH",
"207 610 OFFCURVE",
"55 502 OFFCURVE",
"55 304 CURVE SMOOTH",
"55 99 OFFCURVE",
"203 -10 OFFCURVE",
"352 -10 CURVE SMOOTH",
"500 -10 OFFCURVE",
"650 102 OFFCURVE",
"650 300 CURVE SMOOTH"
);
},
{
closed = 1;
nodes = (
"545 100 OFFCURVE",
"460 18 OFFCURVE",
"355 18 CURVE SMOOTH",
"250 18 OFFCURVE",
"160 90 OFFCURVE",
"160 300 CURVE SMOOTH",
"160 508 OFFCURVE",
"247 582 OFFCURVE",
"352 582 CURVE SMOOTH",
"457 582 OFFCURVE",
"545 517 OFFCURVE",
"545 304 CURVE SMOOTH"
);
},
{
closed = 1;
nodes = (
"268 48 OFFCURVE",
"299 84 OFFCURVE",
"351 84 CURVE SMOOTH",
"427 84 OFFCURVE",
"405 -90 OFFCURVE",
"550 -90 CURVE SMOOTH",
"637 -90 OFFCURVE",
"664 -44 OFFCURVE",
"716 36 CURVE",
"682 54 LINE",
"651 21 OFFCURVE",
"625 -4 OFFCURVE",
"563 -4 CURVE SMOOTH",
"459 -4 OFFCURVE",
"437 119 OFFCURVE",
"345 119 CURVE SMOOTH",
"294 119 OFFCURVE",
"266 98 OFFCURVE",
"226 43 CURVE",
"248 20 LINE"
);
}
);
};
layerId = "A10951F6-1C4E-4304-A862-51F859A0A0D9";
name = "Regular Aug 17 15, 16:06";
paths = (
{
closed = 1;
nodes = (
"650 505 OFFCURVE",
"502 610 OFFCURVE",
"355 610 CURVE SMOOTH",
"207 610 OFFCURVE",
"55 504 OFFCURVE",
"55 301 CURVE SMOOTH",
"55 101 OFFCURVE",
"203 -10 OFFCURVE",
"352 -10 CURVE SMOOTH",
"500 -10 OFFCURVE",
"650 100 OFFCURVE",
"650 303 CURVE SMOOTH"
);
},
{
closed = 1;
nodes = (
"550 101 OFFCURVE",
"467 18 OFFCURVE",
"352 18 CURVE SMOOTH",
"246 18 OFFCURVE",
"155 89 OFFCURVE",
"155 301 CURVE SMOOTH",
"155 507 OFFCURVE",
"241 582 OFFCURVE",
"354 582 CURVE SMOOTH",
"461 582 OFFCURVE",
"550 516 OFFCURVE",
"550 305 CURVE SMOOTH"
);
},
{
closed = 1;
nodes = (
"278 64 OFFCURVE",
"308 84 OFFCURVE",
"337 84 CURVE SMOOTH",
"411 84 OFFCURVE",
"436 -85 OFFCURVE",
"562 -85 CURVE SMOOTH",
"622 -85 OFFCURVE",
"670 -44 OFFCURVE",
"710 38 CURVE",
"689 51 LINE",
"647 5 OFFCURVE",
"611 -13 OFFCURVE",
"578 -13 CURVE SMOOTH",
"481 -13 OFFCURVE",
"435 119 OFFCURVE",
"339 119 CURVE SMOOTH",
"296 119 OFFCURVE",
"256 85 OFFCURVE",
"229 39 CURVE",
"248 20 LINE"
);
}
);
width = 705;
},
{
associatedMasterId = "AA78C373-A874-4B43-A7A1-B39102DDD1E4";
background = {
paths = (
{
closed = 1;
nodes = (
"669 503 OFFCURVE",
"520 610 OFFCURVE",
"355 610 CURVE SMOOTH",
"190 610 OFFCURVE",
"35 497 OFFCURVE",
"35 302 CURVE SMOOTH",
"35 102 OFFCURVE",
"187 -10 OFFCURVE",
"352 -10 CURVE SMOOTH",
"516 -10 OFFCURVE",
"669 103 OFFCURVE",
"669 298 CURVE SMOOTH"
);
},
{
closed = 1;
nodes = (
"507 98 OFFCURVE",
"458 17 OFFCURVE",
"355 17 CURVE SMOOTH",
"252 17 OFFCURVE",
"197 88 OFFCURVE",
"197 298 CURVE SMOOTH",
"197 498 OFFCURVE",
"249 583 OFFCURVE",
"352 583 CURVE SMOOTH",
"455 583 OFFCURVE",
"507 500 OFFCURVE",
"507 303 CURVE SMOOTH"
);
},
{
closed = 1;
nodes = (
"278 64 OFFCURVE",
"308 84 OFFCURVE",
"337 84 CURVE SMOOTH",
"411 84 OFFCURVE",
"436 -90 OFFCURVE",
"562 -90 CURVE SMOOTH",
"622 -90 OFFCURVE",
"672 -46 OFFCURVE",
"712 36 CURVE",
"689 51 LINE",
"647 5 OFFCURVE",
"611 -13 OFFCURVE",
"578 -13 CURVE SMOOTH",
"481 -13 OFFCURVE",
"435 119 OFFCURVE",
"339 119 CURVE SMOOTH",
"296 119 OFFCURVE",
"256 85 OFFCURVE",
"229 39 CURVE",
"248 20 LINE"
);
},
{
closed = 1;
nodes = (
"276 58 OFFCURVE",
"297 74 OFFCURVE",
"316 74 CURVE SMOOTH",
"378 74 OFFCURVE",
"414 -103 OFFCURVE",
"547 -103 CURVE SMOOTH",
"617 -103 OFFCURVE",
"680 -44 OFFCURVE",
"725 49 CURVE",
"701 66 LINE",
"662 27 OFFCURVE",
"621 6 OFFCURVE",
"580 6 CURVE SMOOTH",
"483 6 OFFCURVE",
"437 123 OFFCURVE",
"339 123 CURVE SMOOTH",
"300 123 OFFCURVE",
"266 97 OFFCURVE",
"229 39 CURVE",
"248 23 LINE"
);
}
);
};
layerId = "8A86E50E-42E9-49BC-B9D2-44D15A65DF9E";
name = "Bold Aug 17 15, 16:08";
paths = (
{
closed = 1;
nodes = (
"669 503 OFFCURVE",
"520 610 OFFCURVE",
"355 610 CURVE SMOOTH",
"190 610 OFFCURVE",
"35 497 OFFCURVE",
"35 302 CURVE SMOOTH",
"35 102 OFFCURVE",
"187 -10 OFFCURVE",
"352 -10 CURVE SMOOTH",
"516 -10 OFFCURVE",
"669 103 OFFCURVE",
"669 298 CURVE SMOOTH"
);
},
{
closed = 1;
nodes = (
"512 98 OFFCURVE",
"463 19 OFFCURVE",
"355 19 CURVE SMOOTH",
"247 19 OFFCURVE",
"192 88 OFFCURVE",
"192 298 CURVE SMOOTH",
"192 498 OFFCURVE",
"244 581 OFFCURVE",
"352 581 CURVE SMOOTH",
"460 581 OFFCURVE",
"512 500 OFFCURVE",
"512 303 CURVE SMOOTH"
);
},
{
closed = 1;
nodes = (
"272 58 OFFCURVE",
"298 79 OFFCURVE",
"323 79 CURVE SMOOTH",
"386 79 OFFCURVE",
"427 -107 OFFCURVE",
"560 -107 CURVE SMOOTH",
"630 -107 OFFCURVE",
"690 -44 OFFCURVE",
"735 49 CURVE",
"711 66 LINE",
"672 27 OFFCURVE",
"631 6 OFFCURVE",
"590 6 CURVE SMOOTH",
"493 6 OFFCURVE",
"432 128 OFFCURVE",
"344 128 CURVE SMOOTH",
"295 128 OFFCURVE",
"251 87 OFFCURVE",
"225 39 CURVE",
"244 23 LINE"
);
}
);
width = 704;
},
{
associatedMasterId = "C18F3EFD-FA9C-4751-AD2F-5B966120D1A5";
background = {
paths = (
{
closed = 1;
nodes = (
"650 507 OFFCURVE",
"502 610 OFFCURVE",
"355 610 CURVE SMOOTH",
"207 610 OFFCURVE",
"55 502 OFFCURVE",
"55 304 CURVE SMOOTH",
"55 99 OFFCURVE",
"203 -10 OFFCURVE",
"352 -10 CURVE SMOOTH",
"500 -10 OFFCURVE",
"650 102 OFFCURVE",
"650 300 CURVE SMOOTH"
);
},
{
closed = 1;
nodes = (
"545 100 OFFCURVE",
"460 18 OFFCURVE",
"355 18 CURVE SMOOTH",
"250 18 OFFCURVE",
"160 90 OFFCURVE",
"160 300 CURVE SMOOTH",
"160 508 OFFCURVE",
"247 582 OFFCURVE",
"352 582 CURVE SMOOTH",
"457 582 OFFCURVE",
"545 517 OFFCURVE",
"545 304 CURVE SMOOTH"
);
},
{
closed = 1;
nodes = (
"268 48 OFFCURVE",
"299 84 OFFCURVE",
"351 84 CURVE SMOOTH",
"427 84 OFFCURVE",
"405 -90 OFFCURVE",
"550 -90 CURVE SMOOTH",
"637 -90 OFFCURVE",
"664 -44 OFFCURVE",
"716 36 CURVE",
"682 54 LINE",
"651 21 OFFCURVE",
"625 -4 OFFCURVE",
"563 -4 CURVE SMOOTH",
"459 -4 OFFCURVE",
"437 119 OFFCURVE",
"345 119 CURVE SMOOTH",
"294 119 OFFCURVE",
"266 98 OFFCURVE",
"226 43 CURVE",
"248 20 LINE"
);
}
);
};
layerId = "2AFB253A-FFBF-4C67-9CB7-95C48E1C24E9";
name = "Regular Aug 23 15, 13:47";
paths = (
{
closed = 1;
nodes = (
"650 505 OFFCURVE",
"502 610 OFFCURVE",
"355 610 CURVE SMOOTH",
"207 610 OFFCURVE",
"55 504 OFFCURVE",
"55 301 CURVE SMOOTH",
"55 101 OFFCURVE",
"203 -10 OFFCURVE",
"352 -10 CURVE SMOOTH",
"500 -10 OFFCURVE",
"650 100 OFFCURVE",
"650 303 CURVE SMOOTH"
);
},
{
closed = 1;
nodes = (
"550 101 OFFCURVE",
"467 18 OFFCURVE",
"352 18 CURVE SMOOTH",
"246 18 OFFCURVE",
"155 89 OFFCURVE",
"155 301 CURVE SMOOTH",
"155 507 OFFCURVE",
"241 582 OFFCURVE",
"354 582 CURVE SMOOTH",
"461 582 OFFCURVE",
"550 516 OFFCURVE",
"550 305 CURVE SMOOTH"
);
},
{
closed = 1;
nodes = (
"278 64 OFFCURVE",
"308 84 OFFCURVE",
"337 84 CURVE SMOOTH",
"421 84 OFFCURVE",
"449 -107 OFFCURVE",
"567 -107 CURVE SMOOTH",
"622 -107 OFFCURVE",
"670 -74 OFFCURVE",
"710 8 CURVE",
"689 21 LINE",
"647 -25 OFFCURVE",
"611 -43 OFFCURVE",
"580 -43 CURVE SMOOTH",
"491 -43 OFFCURVE",
"445 119 OFFCURVE",
"339 119 CURVE SMOOTH",
"296 119 OFFCURVE",
"256 85 OFFCURVE",
"229 39 CURVE",
"248 20 LINE"
);
}
);
width = 705;
},
{
associatedMasterId = "AA78C373-A874-4B43-A7A1-B39102DDD1E4";
background = {
paths = (
{
closed = 1;
nodes = (
"650 505 OFFCURVE",
"502 610 OFFCURVE",
"355 610 CURVE SMOOTH",
"207 610 OFFCURVE",
"55 504 OFFCURVE",
"55 301 CURVE SMOOTH",
"55 101 OFFCURVE",
"203 -10 OFFCURVE",
"352 -10 CURVE SMOOTH",
"500 -10 OFFCURVE",
"650 100 OFFCURVE",
"650 303 CURVE SMOOTH"
);
},
{
closed = 1;
nodes = (
"550 101 OFFCURVE",
"467 18 OFFCURVE",
"352 18 CURVE SMOOTH",
"246 18 OFFCURVE",
"155 89 OFFCURVE",
"155 301 CURVE SMOOTH",
"155 507 OFFCURVE",
"241 582 OFFCURVE",
"354 582 CURVE SMOOTH",
"461 582 OFFCURVE",
"550 516 OFFCURVE",
"550 305 CURVE SMOOTH"
);
},
{
closed = 1;
nodes = (
"278 64 OFFCURVE",
"308 84 OFFCURVE",
"337 84 CURVE SMOOTH",
"421 84 OFFCURVE",
"449 -107 OFFCURVE",
"567 -107 CURVE SMOOTH",
"622 -107 OFFCURVE",
"670 -74 OFFCURVE",
"710 8 CURVE",
"689 21 LINE",
"647 -25 OFFCURVE",
"611 -43 OFFCURVE",
"580 -43 CURVE SMOOTH",
"491 -43 OFFCURVE",
"445 119 OFFCURVE",
"339 119 CURVE SMOOTH",
"296 119 OFFCURVE",
"256 85 OFFCURVE",
"229 39 CURVE",
"248 20 LINE"
);
}
);
};
layerId = "6A7CA496-9150-4129-9D92-D9DAB892B59D";
name = "Bold Aug 23 15, 13:47";
paths = (
{
closed = 1;
nodes = (
"669 503 OFFCURVE",
"520 610 OFFCURVE",
"355 610 CURVE SMOOTH",
"190 610 OFFCURVE",
"35 497 OFFCURVE",
"35 302 CURVE SMOOTH",
"35 102 OFFCURVE",
"187 -10 OFFCURVE",
"352 -10 CURVE SMOOTH",
"516 -10 OFFCURVE",
"669 103 OFFCURVE",
"669 298 CURVE SMOOTH"
);
},
{
closed = 1;
nodes = (
"512 98 OFFCURVE",
"463 19 OFFCURVE",
"355 19 CURVE SMOOTH",
"247 19 OFFCURVE",
"192 88 OFFCURVE",
"192 298 CURVE SMOOTH",
"192 498 OFFCURVE",
"244 581 OFFCURVE",
"352 581 CURVE SMOOTH",
"460 581 OFFCURVE",
"512 500 OFFCURVE",
"512 303 CURVE SMOOTH"
);
},
{
closed = 1;
nodes = (
"272 58 OFFCURVE",
"298 79 OFFCURVE",
"328 79 CURVE SMOOTH",
"418 79 OFFCURVE",
"464 -107 OFFCURVE",
"575 -107 CURVE SMOOTH",
"636 -107 OFFCURVE",
"692 -63 OFFCURVE",
"735 33 CURVE",
"711 50 LINE",
"672 11 OFFCURVE",
"639 -10 OFFCURVE",
"595 -10 CURVE SMOOTH",
"518 -10 OFFCURVE",
"432 128 OFFCURVE",
"344 128 CURVE SMOOTH",
"295 128 OFFCURVE",
"251 87 OFFCURVE",
"225 39 CURVE",
"244 23 LINE"
);
}
);
width = 704;
}
);
leftKerningGroup = O;
rightKerningGroup = O;
unicode = 0051;
},
{
color = 9;
glyphname = R;
lastChange = "2015-08-25 19:12:27 +0000";
layers = (
{
anchors = (
{
name = bottom;
position = "{332, 0}";
},
{
name = top;
position = "{305, 630}";
}
);
components = (
{
name = vertical_stem_upper;
transform = "{1, 0, 0, 1, 80, 0}";
}
);
layerId = "C18F3EFD-FA9C-4751-AD2F-5B966120D1A5";
name = Regular;
paths = (
{
closed = 1;
nodes = (
"285 0 LINE",
"285 26 LINE",
"40 26 LINE",
"40 0 LINE"
);
},
{
closed = 1;
nodes = (
"297 281 LINE",
"461 0 LINE",
"612 0 LINE",
"612 23 OFFCURVE",
"607 26 OFFCURVE",
"588 26 CURVE SMOOTH",
"550 26 LINE",
"382 294 LINE"
);
},
{
closed = 1;
nodes = (
"40 600 LINE",
"40 574 LINE",
"306 574 LINE SMOOTH",
"396 574 OFFCURVE",
"438 509 OFFCURVE",
"438 443 CURVE SMOOTH",
"438 374 OFFCURVE",
"393 304 OFFCURVE",
"309 304 CURVE SMOOTH",
"162 304 LINE",
"162 275 LINE",
"314 275 LINE SMOOTH",
"459 275 OFFCURVE",
"532 361 OFFCURVE",
"532 444 CURVE SMOOTH",
"532 523 OFFCURVE",
"466 600 OFFCURVE",
"336 600 CURVE SMOOTH"
);
}
);
width = 612;
},
{
anchors = (
{
name = bottom;
position = "{321, 0}";
},
{
name = top;
position = "{304, 630}";
}
);
components = (
{
name = vertical_stem_upper;
transform = "{1, 0, 0, 1, 58, 0}";
}
);
layerId = "AA78C373-A874-4B43-A7A1-B39102DDD1E4";
name = Bold;
paths = (
{
closed = 1;
nodes = (
"320 0 LINE",
"320 27 LINE",
"20 27 LINE",
"20 0 LINE"
);
},
{
closed = 1;
nodes = (
"283 286 LINE",
"438 -1 LINE",
"614 0 LINE",
"614 20 OFFCURVE",
"608 26 OFFCURVE",
"588 26 CURVE SMOOTH",
"575 26 LINE",
"407 309 LINE"
);
},
{
closed = 1;
nodes = (
"20 600 LINE",
"20 573 LINE",
"294 573 LINE SMOOTH",
"376 573 OFFCURVE",
"407 505 OFFCURVE",
"407 438 CURVE SMOOTH",
"407 371 OFFCURVE",
"377 304 OFFCURVE",
"302 304 CURVE SMOOTH",
"140 304 LINE",
"140 274 LINE",
"322 274 LINE SMOOTH",
"481 274 OFFCURVE",
"556 350 OFFCURVE",
"556 443 CURVE SMOOTH",
"556 523 OFFCURVE",
"484 600 OFFCURVE",
"354 600 CURVE SMOOTH"
);
}
);
width = 614;
}
);
leftKerningGroup = I;
unicode = 0052;
},
{
color = 9;
glyphname = S;
lastChange = "2015-08-25 19:21:40 +0000";
layers = (
{
anchors = (
{
name = bottom;
position = "{268, 0}";
},
{
name = top;
position = "{286, 630}";
}
);
background = {
paths = (
{
closed = 1;
nodes = (
"92 79 OFFCURVE",
"172 19 OFFCURVE",
"252 19 CURVE SMOOTH",
"362 19 OFFCURVE",
"397 65 OFFCURVE",
"397 133 CURVE SMOOTH",
"397 285 OFFCURVE",
"61 254 OFFCURVE",
"61 457 CURVE SMOOTH",
"61 559 OFFCURVE",
"162 612 OFFCURVE",
"272 612 CURVE SMOOTH",
"327 612 OFFCURVE",
"384 599 OFFCURVE",
"431 571 CURVE",
"431 606 OFFCURVE",
"440 619 OFFCURVE",
"465 619 CURVE",
"465 425 LINE",
"436 425 LINE",
"429 529 OFFCURVE",
"367 582 OFFCURVE",
"289 582 CURVE SMOOTH",
"193 582 OFFCURVE",
"151 544 OFFCURVE",
"151 478 CURVE SMOOTH",
"151 325 OFFCURVE",
"489 364 OFFCURVE",
"489 157 CURVE SMOOTH",
"489 40 OFFCURVE",
"382 -9 OFFCURVE",
"269 -9 CURVE SMOOTH",
"201 -9 OFFCURVE",
"139 9 OFFCURVE",
"92 41 CURVE",
"92 5 OFFCURVE",
"85 -2 OFFCURVE",
"57 -2 CURVE",
"57 210 LINE",
"92 210 LINE",
"92 190 LINE"
);
}
);
};
guideLines = (
{
position = "{367, 181}";
},
{
position = "{367, 421}";
}
);
layerId = "C18F3EFD-FA9C-4751-AD2F-5B966120D1A5";
name = Regular;
paths = (
{
closed = 1;
nodes = (
"381 -10 OFFCURVE",
"486 48 OFFCURVE",
"486 157 CURVE SMOOTH",
"486 359 OFFCURVE",
"148 320 OFFCURVE",
"148 478 CURVE SMOOTH",
"148 543 OFFCURVE",
"203 582 OFFCURVE",
"276 582 CURVE SMOOTH",
"354 582 OFFCURVE",
"434 536 OFFCURVE",
"432 430 CURVE",
"462 430 LINE",
"462 605 LINE",
"437 605 OFFCURVE",
"432 598 OFFCURVE",
"432 571 CURVE",
"385 597 OFFCURVE",
"327 610 OFFCURVE",
"272 610 CURVE SMOOTH",
"162 610 OFFCURVE",
"64 552 OFFCURVE",
"64 452 CURVE SMOOTH",
"64 259 OFFCURVE",
"399 295 OFFCURVE",
"399 133 CURVE SMOOTH",
"399 59 OFFCURVE",
"334 18 OFFCURVE",
"260 18 CURVE SMOOTH",
"156 18 OFFCURVE",
"101 82 OFFCURVE",
"90 205 CURVE",
"60 205 LINE",
"60 -2 LINE",
"88 -2 OFFCURVE",
"90 5 OFFCURVE",
"90 41 CURVE",
"141 7 OFFCURVE",
"203 -10 OFFCURVE",
"265 -10 CURVE SMOOTH"
);
}
);
width = 536;
},
{
anchors = (
{
name = bottom;
position = "{294, 0}";
},
{
name = top;
position = "{302, 630}";
}
);
background = {
paths = (
{
closed = 1;
nodes = (
"96 93 OFFCURVE",
"162 19 OFFCURVE",
"265 19 CURVE SMOOTH",
"336 19 OFFCURVE",
"375 59 OFFCURVE",
"375 123 CURVE SMOOTH",
"375 267 OFFCURVE",
"59 261 OFFCURVE",
"59 452 CURVE SMOOTH",
"59 563 OFFCURVE",
"160 614 OFFCURVE",
"269 614 CURVE SMOOTH",
"334 614 OFFCURVE",
"399 600 OFFCURVE",
"453 571 CURVE",
"453 606 OFFCURVE",
"458 619 OFFCURVE",
"483 619 CURVE",
"483 425 LINE",
"454 425 LINE",
"456 533 OFFCURVE",
"372 584 OFFCURVE",
"307 584 CURVE SMOOTH",
"253 584 OFFCURVE",
"209 552 OFFCURVE",
"209 498 CURVE SMOOTH",
"209 350 OFFCURVE",
"517 359 OFFCURVE",
"517 167 CURVE SMOOTH",
"517 46 OFFCURVE",
"398 -10 OFFCURVE",
"275 -10 CURVE SMOOTH",
"209 -10 OFFCURVE",
"139 5 OFFCURVE",
"85 41 CURVE",
"85 5 OFFCURVE",
"83 -2 OFFCURVE",
"55 -2 CURVE",
"55 210 LINE",
"88 210 LINE"
);
}
);
};
layerId = "AA78C373-A874-4B43-A7A1-B39102DDD1E4";
name = Bold;
paths = (
{
closed = 1;
nodes = (
"398 -10 OFFCURVE",
"517 46 OFFCURVE",
"517 167 CURVE SMOOTH",
"517 354 OFFCURVE",
"206 343 OFFCURVE",
"206 496 CURVE SMOOTH",
"206 551 OFFCURVE",
"250 580 OFFCURVE",
"303 580 CURVE SMOOTH",
"381 580 OFFCURVE",
"451 528 OFFCURVE",
"452 425 CURVE",
"491 425 LINE",
"491 606 LINE",
"466 606 OFFCURVE",
"457 599 OFFCURVE",
"457 571 CURVE",
"402 597 OFFCURVE",
"343 610 OFFCURVE",
"282 610 CURVE SMOOTH",
"166 610 OFFCURVE",
"61 557 OFFCURVE",
"61 450 CURVE SMOOTH",
"61 264 OFFCURVE",
"380 272 OFFCURVE",
"380 123 CURVE SMOOTH",
"380 59 OFFCURVE",
"336 19 OFFCURVE",
"265 19 CURVE SMOOTH",
"164 19 OFFCURVE",
"102 93 OFFCURVE",
"94 210 CURVE",
"55 210 LINE",
"55 -2 LINE",
"83 -2 OFFCURVE",
"89 5 OFFCURVE",
"89 41 CURVE",
"143 5 OFFCURVE",
"209 -10 OFFCURVE",
"275 -10 CURVE SMOOTH"
);
}
);
width = 558;
},
{
anchors = (
{
name = bottom;
position = "{273, 0}";
},
{
name = top;
position = "{291, 630}";
}
);
associatedMasterId = "C18F3EFD-FA9C-4751-AD2F-5B966120D1A5";
background = {
paths = (
{
closed = 1;
nodes = (
"104 87 OFFCURVE",
"161 18 OFFCURVE",
"265 18 CURVE SMOOTH",
"339 18 OFFCURVE",
"404 59 OFFCURVE",
"404 133 CURVE SMOOTH",
"404 290 OFFCURVE",
"69 254 OFFCURVE",
"69 452 CURVE SMOOTH",
"69 552 OFFCURVE",
"167 610 OFFCURVE",
"277 610 CURVE SMOOTH",
"306 610 OFFCURVE",
"418 580 OFFCURVE",
"467 619 CURVE",
"467 425 LINE",
"438 425 LINE",
"440 531 OFFCURVE",
"359 582 OFFCURVE",
"281 582 CURVE SMOOTH",
"208 582 OFFCURVE",
"153 543 OFFCURVE",
"153 478 CURVE SMOOTH",
"153 320 OFFCURVE",
"491 359 OFFCURVE",
"491 157 CURVE SMOOTH",
"491 48 OFFCURVE",
"386 -10 OFFCURVE",
"270 -10 CURVE SMOOTH",
"206 -10 OFFCURVE",
"97 41 OFFCURVE",
"65 -2 CURVE",
"65 210 LINE",
"93 210 LINE"
);
}
);
};
layerId = "3D5E21E2-A6F0-4F71-BB3E-FB87E69B3DF4";
name = "Regular Aug 6 15, 11:42";
paths = (
{
closed = 1;
nodes = (
"104 87 OFFCURVE",
"161 18 OFFCURVE",
"265 18 CURVE SMOOTH",
"339 18 OFFCURVE",
"404 59 OFFCURVE",
"404 133 CURVE SMOOTH",
"404 290 OFFCURVE",
"69 254 OFFCURVE",
"69 452 CURVE SMOOTH",
"69 552 OFFCURVE",
"167 610 OFFCURVE",
"277 610 CURVE SMOOTH",
"369 610 OFFCURVE",
"447 559 OFFCURVE",
"447 619 CURVE",
"467 619 LINE",
"467 425 LINE",
"438 425 LINE",
"440 531 OFFCURVE",
"359 582 OFFCURVE",
"281 582 CURVE SMOOTH",
"208 582 OFFCURVE",
"153 543 OFFCURVE",
"153 478 CURVE SMOOTH",
"153 320 OFFCURVE",
"491 359 OFFCURVE",
"491 157 CURVE SMOOTH",
"491 48 OFFCURVE",
"386 -10 OFFCURVE",
"270 -10 CURVE SMOOTH",
"187 -10 OFFCURVE",
"85 52 OFFCURVE",
"85 -2 CURVE",
"65 -2 LINE",
"65 210 LINE",
"93 210 LINE"
);
}
);
width = 546;
}
);
leftKerningGroup = S;
rightKerningGroup = S;
unicode = 0053;
},
{
color = 1;
glyphname = T;
lastChange = "2015-08-25 20:10:41 +0000";
layers = (
{
anchors = (
{
name = bottom;
position = "{285, 0}";
},
{
name = center;
position = "{287, 350}";
},
{
name = top;
position = "{286, 630}";
}
);
background = {
paths = (
{
closed = 0;
nodes = (
"455 579 LINE",
"542 597 LINE",
"547 399 LINE",
"517 399 LINE",
"480 526 OFFCURVE",
"438 582 OFFCURVE",
"318 582 CURVE SMOOTH"
);
}
);
};
components = (
{
name = vertical_stem_upper;
transform = "{1, 0, 0, 1, 202, 0}";
}
);
layerId = "C18F3EFD-FA9C-4751-AD2F-5B966120D1A5";
name = Regular;
paths = (
{
closed = 1;
nodes = (
"422 0 LINE",
"422 20 OFFCURVE",
"416 26 OFFCURVE",
"396 26 CURVE SMOOTH",
"147 26 LINE",
"147 0 LINE"
);
},
{
closed = 1;
nodes = (
"40 600 LINE",
"35 403 LINE",
"63 403 LINE",
"79 470 LINE SMOOTH",
"91 520 OFFCURVE",
"121 574 OFFCURVE",
"188 574 CURVE SMOOTH",
"386 574 LINE SMOOTH",
"453 574 OFFCURVE",
"483 520 OFFCURVE",
"495 470 CURVE SMOOTH",
"511 403 LINE",
"539 403 LINE",
"534 600 LINE"
);
}
);
width = 574;
},
{
anchors = (
{
name = bottom;
position = "{274, 0}";
},
{
name = center;
position = "{278, 350}";
},
{
name = top;
position = "{278, 630}";
}
);
components = (
{
name = vertical_stem_upper;
transform = "{1, 0, 0, 1, 166, 0}";
}
);
layerId = "AA78C373-A874-4B43-A7A1-B39102DDD1E4";
name = Bold;
paths = (
{
closed = 1;
nodes = (
"443 0 LINE",
"443 20 OFFCURVE",
"436 27 OFFCURVE",
"416 27 CURVE SMOOTH",
"113 27 LINE",
"113 0 LINE"
);
},
{
closed = 1;
nodes = (
"19 600 LINE",
"15 386 LINE",
"45 386 LINE",
"76 476 LINE SMOOTH",
"93 525 OFFCURVE",
"115 573 OFFCURVE",
"191 573 CURVE SMOOTH",
"365 573 LINE SMOOTH",
"441 573 OFFCURVE",
"463 525 OFFCURVE",
"480 476 CURVE SMOOTH",
"511 386 LINE",
"541 386 LINE",
"537 600 LINE"
);
}
);
width = 556;
}
);
leftKerningGroup = T;
rightKerningGroup = T;
unicode = 0054;
},
{
color = 1;
glyphname = U;
lastChange = "2015-08-25 20:06:49 +0000";
layers = (
{
anchors = (
{
name = ogonek;
position = "{451, 9}";
},
{
name = top;
position = "{337, 630}";
}
);
background = {
paths = (
{
closed = 1;
nodes = (
"10 574 LINE",
"10 600 LINE",
"254 600 LINE",
"254 574 LINE"
);
},
{
closed = 1;
nodes = (
"432 574 LINE",
"432 600 LINE",
"627 600 LINE",
"627 574 LINE"
);
},
{
closed = 1;
nodes = (
"512 228 LINE SMOOTH",
"512 78 OFFCURVE",
"444 18 OFFCURVE",
"344 18 CURVE SMOOTH",
"233 18 OFFCURVE",
"175 76 OFFCURVE",
"175 231 CURVE SMOOTH",
"175 600 LINE",
"90 600 LINE",
"90 225 LINE SMOOTH",
"90 59 OFFCURVE",
"178 -10 OFFCURVE",
"323 -10 CURVE SMOOTH",
"478 -10 OFFCURVE",
"547 69 OFFCURVE",
"547 234 CURVE SMOOTH",
"547 600 LINE",
"512 600 LINE"
);
}
);
};
layerId = "C18F3EFD-FA9C-4751-AD2F-5B966120D1A5";
name = Regular;
paths = (
{
closed = 1;
nodes = (
"10 574 LINE",
"10 600 LINE",
"254 600 LINE",
"254 574 LINE"
);
},
{
closed = 1;
nodes = (
"432 574 LINE",
"432 600 LINE",
"627 600 LINE",
"627 574 LINE"
);
},
{
closed = 1;
nodes = (
"547 600 LINE",
"547 234 LINE SMOOTH",
"547 69 OFFCURVE",
"478 -10 OFFCURVE",
"323 -10 CURVE SMOOTH",
"178 -10 OFFCURVE",
"90 59 OFFCURVE",
"90 225 CURVE SMOOTH",
"90 600 LINE",
"175 600 LINE",
"175 231 LINE SMOOTH",
"175 76 OFFCURVE",
"233 18 OFFCURVE",
"344 18 CURVE SMOOTH",
"444 18 OFFCURVE",
"512 78 OFFCURVE",
"512 228 CURVE SMOOTH",
"512 600 LINE"
);
}
);
width = 632;
},
{
anchors = (
{
name = ogonek;
position = "{491, 9}";
},
{
name = top;
position = "{348, 630}";
}
);
background = {
paths = (
{
closed = 1;
nodes = (
"104 600 LINE",
"194 600 LINE",
"194 231 LINE",
"104 225 LINE"
);
},
{
closed = 1;
nodes = (
"526 600 LINE",
"561 600 LINE",
"561 234 LINE",
"526 228 LINE"
);
},
{
closed = 1;
nodes = (
"526 78 OFFCURVE",
"458 18 OFFCURVE",
"358 18 CURVE SMOOTH",
"252 18 OFFCURVE",
"194 76 OFFCURVE",
"194 231 CURVE",
"104 225 LINE",
"104 59 OFFCURVE",
"192 -10 OFFCURVE",
"337 -10 CURVE SMOOTH",
"492 -10 OFFCURVE",
"561 69 OFFCURVE",
"561 234 CURVE",
"526 228 LINE"
);
},
{
closed = 1;
nodes = (
"29 574 LINE",
"29 600 LINE",
"278 600 LINE",
"278 574 LINE"
);
},
{
closed = 1;
nodes = (
"430 574 LINE",
"430 600 LINE",
"636 600 LINE",
"636 574 LINE"
);
}
);
};
layerId = "AA78C373-A874-4B43-A7A1-B39102DDD1E4";
name = Bold;
paths = (
{
closed = 1;
nodes = (
"10 573 LINE",
"10 600 LINE",
"310 600 LINE",
"310 573 LINE"
);
},
{
closed = 1;
nodes = (
"445 573 LINE",
"445 600 LINE",
"642 600 LINE",
"642 573 LINE"
);
},
{
closed = 1;
nodes = (
"562 600 LINE",
"562 234 LINE SMOOTH",
"562 69 OFFCURVE",
"498 -10 OFFCURVE",
"343 -10 CURVE SMOOTH",
"188 -10 OFFCURVE",
"90 54 OFFCURVE",
"90 220 CURVE SMOOTH",
"90 600 LINE",
"230 600 LINE",
"230 228 LINE SMOOTH",
"230 83 OFFCURVE",
"272 20 OFFCURVE",
"364 20 CURVE SMOOTH",
"464 20 OFFCURVE",
"525 78 OFFCURVE",
"525 228 CURVE SMOOTH",
"525 600 LINE"
);
}
);
width = 647;
}
);
leftKerningGroup = U;
rightKerningGroup = U;
unicode = 0055;
},
{
color = 9;
glyphname = V;
lastChange = "2015-08-26 04:15:37 +0000";
layers = (
{
background = {
paths = (
{
closed = 1;
nodes = (
"158 600 LINE",
"18 600 LINE",
"227 77 LINE SMOOTH",
"256 4 OFFCURVE",
"261 -5 OFFCURVE",
"301 -5 CURVE SMOOTH",
"322 -5 LINE",
"531 573 LINE",
"491 573 LINE",
"330 122 LINE",
"351 122 LINE"
);
}
);
};
layerId = "C18F3EFD-FA9C-4751-AD2F-5B966120D1A5";
name = Regular;
paths = (
{
closed = 1;
nodes = (
"321 -5 LINE",
"527 574 LINE",
"489 574 LINE",
"311 68 LINE",
"335 68 LINE",
"131 600 LINE",
"45 600 LINE",
"245 69 LINE SMOOTH",
"268 7 OFFCURVE",
"276 -5 OFFCURVE",
"309 -5 CURVE SMOOTH"
);
},
{
closed = 1;
nodes = (
"221 574 LINE",
"221 600 LINE",
"-5 600 LINE",
"-5 574 LINE"
);
},
{
closed = 1;
nodes = (
"577 574 LINE",
"577 600 LINE",
"409 600 LINE",
"409 574 LINE"
);
}
);
width = 577;
},
{
background = {
paths = (
{
closed = 1;
nodes = (
"300 405 LINE",
"300 430 LINE",
"69 430 LINE",
"69 405 LINE",
"108 405 LINE",
"234 68 LINE SMOOTH",
"258 5 OFFCURVE",
"264 -5 OFFCURVE",
"301 -5 CURVE SMOOTH",
"337 -5 LINE",
"482 376 LINE SMOOTH",
"491 399 OFFCURVE",
"499 405 OFFCURVE",
"520 405 CURVE SMOOTH",
"538 405 OFFCURVE",
"540 400 OFFCURVE",
"540 430 CURVE",
"378 430 LINE",
"378 405 LINE",
"460 405 LINE",
"332 77 LINE",
"355 77 LINE",
"235 405 LINE"
);
}
);
};
layerId = "AA78C373-A874-4B43-A7A1-B39102DDD1E4";
name = Bold;
paths = (
{
closed = 1;
nodes = (
"334 -5 LINE",
"543 573 LINE",
"503 573 LINE",
"342 122 LINE",
"363 122 LINE",
"170 600 LINE",
"30 600 LINE",
"239 77 LINE SMOOTH",
"268 4 OFFCURVE",
"273 -5 OFFCURVE",
"313 -5 CURVE SMOOTH"
);
},
{
closed = 1;
nodes = (
"260 573 LINE",
"260 600 LINE",
"-10 600 LINE",
"-10 573 LINE"
);
},
{
closed = 1;
nodes = (
"593 573 LINE",
"593 600 LINE",
"423 600 LINE",
"423 573 LINE"
);
}
);
width = 593;
}
);
unicode = 0056;
},
{
color = 9;
glyphname = W;
lastChange = "2015-08-26 04:15:48 +0000";
layers = (
{
background = {
paths = (
{
closed = 1;
nodes = (
"301 -5 LINE",
"507 574 LINE",
"469 574 LINE",
"291 68 LINE",
"315 68 LINE",
"111 600 LINE",
"25 600 LINE",
"225 69 LINE SMOOTH",
"248 7 OFFCURVE",
"260 -5 OFFCURVE",
"289 -5 CURVE SMOOTH"
);
},
{
closed = 1;
nodes = (
"581 0 LINE",
"780 574 LINE",
"748 574 LINE",
"556 0 LINE"
);
},
{
closed = 1;
nodes = (
"581 0 LINE",
"591 101 LINE",
"421 600 LINE",
"340 600 LINE",
"552 0 LINE"
);
}
);
};
layerId = "C18F3EFD-FA9C-4751-AD2F-5B966120D1A5";
name = Regular;
paths = (
{
closed = 1;
nodes = (
"582 0 LINE",
"780 574 LINE",
"748 574 LINE",
"581 71 LINE",
"602 71 LINE",
"430 574 LINE",
"511 574 LINE",
"511 600 LINE",
"340 600 LINE",
"531 60 LINE SMOOTH",
"550 7 OFFCURVE",
"554 0 OFFCURVE",
"574 0 CURVE SMOOTH"
);
},
{
closed = 1;
nodes = (
"294 -5 LINE",
"463 472 LINE",
"430 472 LINE",
"292 71 LINE",
"315 71 LINE",
"125 600 LINE",
"45 600 LINE",
"238 60 LINE SMOOTH",
"257 7 OFFCURVE",
"266 -5 OFFCURVE",
"286 -5 CURVE SMOOTH"
);
},
{
closed = 1;
nodes = (
"215 574 LINE",
"215 600 LINE",
"-5 600 LINE",
"-5 574 LINE"
);
},
{
closed = 1;
nodes = (
"830 574 LINE",
"830 600 LINE",
"668 600 LINE",
"668 574 LINE"
);
}
);
width = 830;
},
{
background = {
paths = (
{
closed = 1;
nodes = (
"321 0 LINE",
"494 468 LINE",
"461 471 LINE",
"289 0 LINE"
);
},
{
closed = 1;
nodes = (
"261 573 LINE",
"261 600 LINE",
"-10 600 LINE",
"-10 573 LINE"
);
},
{
closed = 1;
nodes = (
"651 0 LINE",
"843 573 LINE",
"808 573 LINE",
"619 0 LINE"
);
},
{
closed = 1;
nodes = (
"893 573 LINE",
"893 600 LINE",
"728 600 LINE",
"728 573 LINE"
);
},
{
closed = 1;
nodes = (
"322 0 LINE",
"350 105 LINE",
"171 600 LINE",
"30 600 LINE",
"262 0 LINE"
);
},
{
closed = 1;
nodes = (
"592 573 LINE",
"592 600 LINE",
"360 600 LINE",
"592 0 LINE",
"652 0 LINE",
"681 105 LINE",
"512 574 LINE"
);
}
);
};
layerId = "AA78C373-A874-4B43-A7A1-B39102DDD1E4";
name = Bold;
paths = (
{
closed = 1;
nodes = (
"652 0 LINE",
"843 573 LINE",
"808 573 LINE",
"652 100 LINE",
"683 100 LINE",
"512 574 LINE",
"592 573 LINE",
"592 600 LINE",
"360 600 LINE",
"562 77 LINE SMOOTH",
"587 12 OFFCURVE",
"597 0 OFFCURVE",
"632 0 CURVE SMOOTH"
);
},
{
closed = 1;
nodes = (
"322 0 LINE",
"494 468 LINE",
"461 471 LINE",
"325 100 LINE",
"351 100 LINE",
"171 600 LINE",
"30 600 LINE",
"232 77 LINE SMOOTH",
"257 12 OFFCURVE",
"267 0 OFFCURVE",
"302 0 CURVE SMOOTH"
);
},
{
closed = 1;
nodes = (
"261 573 LINE",
"261 600 LINE",
"-10 600 LINE",
"-10 573 LINE"
);
},
{
closed = 1;
nodes = (
"893 573 LINE",
"893 600 LINE",
"728 600 LINE",
"728 573 LINE"
);
}
);
width = 893;
}
);
leftKerningGroup = W;
rightKerningGroup = W;
unicode = 0057;
},
{
color = 9;
glyphname = X;
lastChange = "2015-08-25 19:56:05 +0000";
layers = (
{
background = {
paths = (
{
closed = 1;
nodes = (
"604 0 LINE",
"182 600 LINE",
"25 600 LINE",
"443 0 LINE"
);
},
{
closed = 1;
nodes = (
"205 0 LINE",
"205 27 LINE",
"108 27 LINE",
"308 295 LINE",
"289 320 LINE",
"90 55 LINE SMOOTH",
"75 36 OFFCURVE",
"42 27 OFFCURVE",
"22 27 CURVE SMOOTH",
"10 27 OFFCURVE",
"2 20 OFFCURVE",
"2 0 CURVE"
);
},
{
closed = 1;
nodes = (
"645 0 LINE",
"645 23 OFFCURVE",
"640 27 OFFCURVE",
"621 27 CURVE SMOOTH",
"338 27 LINE",
"338 0 LINE"
);
},
{
closed = 1;
nodes = (
"273 573 LINE",
"273 600 LINE",
"-2 600 LINE",
"-2 573 LINE"
);
},
{
closed = 1;
nodes = (
"501 545 LINE SMOOTH",
"514 563 OFFCURVE",
"539 573 OFFCURVE",
"564 573 CURVE SMOOTH",
"578 573 OFFCURVE",
"581 584 OFFCURVE",
"581 600 CURVE",
"397 600 LINE",
"397 573 LINE",
"486 573 LINE",
"320 347 LINE",
"335 319 LINE"
);
}
);
};
layerId = "C18F3EFD-FA9C-4751-AD2F-5B966120D1A5";
name = Regular;
paths = (
{
closed = 1;
nodes = (
"565 0 LINE",
"159 600 LINE",
"60 600 LINE",
"462 0 LINE"
);
},
{
closed = 1;
nodes = (
"195 0 LINE",
"195 26 LINE",
"115 26 LINE",
"303 285 LINE",
"285 310 LINE",
"98 54 LINE SMOOTH",
"82 32 OFFCURVE",
"61 26 OFFCURVE",
"36 26 CURVE SMOOTH",
"16 26 OFFCURVE",
"10 20 OFFCURVE",
"10 0 CURVE"
);
},
{
closed = 1;
nodes = (
"605 0 LINE",
"605 20 OFFCURVE",
"599 26 OFFCURVE",
"579 26 CURVE SMOOTH",
"372 26 LINE",
"372 0 LINE"
);
},
{
closed = 1;
nodes = (
"249 574 LINE",
"249 600 LINE",
"15 600 LINE",
"15 574 LINE"
);
},
{
closed = 1;
nodes = (
"496 546 LINE SMOOTH",
"514 570 OFFCURVE",
"525 574 OFFCURVE",
"550 574 CURVE SMOOTH",
"570 574 OFFCURVE",
"576 580 OFFCURVE",
"576 600 CURVE",
"402 600 LINE",
"402 574 LINE",
"482 574 LINE",
"312 338 LINE",
"329 315 LINE"
);
}
);
width = 605;
},
{
background = {
paths = (
{
closed = 1;
nodes = (
"594 0 LINE",
"195 600 LINE",
"50 600 LINE",
"443 0 LINE"
);
},
{
closed = 1;
nodes = (
"193 0 LINE",
"193 27 LINE",
"113 27 LINE",
"308 302 LINE",
"287 327 LINE",
"93 55 LINE SMOOTH",
"76 32 OFFCURVE",
"57 27 OFFCURVE",
"32 27 CURVE SMOOTH",
"12 27 OFFCURVE",
"5 20 OFFCURVE",
"5 0 CURVE"
);
},
{
closed = 1;
nodes = (
"634 0 LINE",
"634 20 OFFCURVE",
"627 27 OFFCURVE",
"607 27 CURVE SMOOTH",
"353 27 LINE",
"353 0 LINE"
);
},
{
closed = 1;
nodes = (
"285 573 LINE",
"285 600 LINE",
"10 600 LINE",
"10 573 LINE"
);
},
{
closed = 1;
nodes = (
"514 545 LINE SMOOTH",
"531 569 OFFCURVE",
"542 573 OFFCURVE",
"567 573 CURVE SMOOTH",
"587 573 OFFCURVE",
"594 580 OFFCURVE",
"594 600 CURVE",
"417 600 LINE",
"417 573 LINE",
"497 573 LINE",
"328 336 LINE",
"345 308 LINE"
);
}
);
};
layerId = "AA78C373-A874-4B43-A7A1-B39102DDD1E4";
name = Bold;
paths = (
{
closed = 1;
nodes = (
"594 0 LINE",
"195 600 LINE",
"50 600 LINE",
"443 0 LINE"
);
},
{
closed = 1;
nodes = (
"193 0 LINE",
"193 27 LINE",
"113 27 LINE",
"308 302 LINE",
"287 327 LINE",
"93 55 LINE SMOOTH",
"76 32 OFFCURVE",
"57 27 OFFCURVE",
"32 27 CURVE SMOOTH",
"12 27 OFFCURVE",
"5 20 OFFCURVE",
"5 0 CURVE"
);
},
{
closed = 1;
nodes = (
"634 0 LINE",
"634 20 OFFCURVE",
"627 27 OFFCURVE",
"607 27 CURVE SMOOTH",
"353 27 LINE",
"353 0 LINE"
);
},
{
closed = 1;
nodes = (
"285 573 LINE",
"285 600 LINE",
"10 600 LINE",
"10 573 LINE"
);
},
{
closed = 1;
nodes = (
"514 545 LINE SMOOTH",
"531 569 OFFCURVE",
"542 573 OFFCURVE",
"567 573 CURVE SMOOTH",
"587 573 OFFCURVE",
"594 580 OFFCURVE",
"594 600 CURVE",
"417 600 LINE",
"417 573 LINE",
"497 573 LINE",
"328 336 LINE",
"345 308 LINE"
);
}
);
width = 634;
}
);
unicode = 0058;
},
{
color = 9;
glyphname = Y;
lastChange = "2015-08-26 04:16:02 +0000";
layers = (
{
anchors = (
{
name = top;
position = "{290, 630}";
}
);
background = {
paths = (
{
closed = 1;
nodes = (
"403 0 LINE",
"403 20 OFFCURVE",
"397 26 OFFCURVE",
"377 26 CURVE SMOOTH",
"158 26 LINE",
"158 0 LINE"
);
},
{
closed = 1;
nodes = (
"220 574 LINE",
"220 600 LINE",
"-5 600 LINE",
"-5 574 LINE"
);
},
{
closed = 1;
nodes = (
"376 574 LINE",
"456 574 LINE",
"304 283 LINE",
"130 600 LINE",
"35 600 LINE",
"238 239 LINE",
"238 0 LINE",
"323 0 LINE",
"323 249 LINE",
"474 546 LINE SMOOTH",
"487 571 OFFCURVE",
"503 574 OFFCURVE",
"528 574 CURVE SMOOTH",
"548 574 OFFCURVE",
"554 580 OFFCURVE",
"554 600 CURVE",
"376 600 LINE"
);
}
);
};
layerId = "C18F3EFD-FA9C-4751-AD2F-5B966120D1A5";
name = Regular;
paths = (
{
closed = 1;
nodes = (
"403 0 LINE",
"403 20 OFFCURVE",
"397 26 OFFCURVE",
"377 26 CURVE SMOOTH",
"158 26 LINE",
"158 0 LINE"
);
},
{
closed = 1;
nodes = (
"220 574 LINE",
"220 600 LINE",
"-5 600 LINE",
"-5 574 LINE"
);
},
{
closed = 1;
nodes = (
"376 574 LINE",
"456 574 LINE",
"294 264 LINE",
"314 264 LINE",
"130 600 LINE",
"35 600 LINE",
"238 239 LINE",
"238 0 LINE",
"323 0 LINE",
"323 249 LINE",
"474 546 LINE SMOOTH",
"487 571 OFFCURVE",
"503 574 OFFCURVE",
"528 574 CURVE SMOOTH",
"548 574 OFFCURVE",
"554 580 OFFCURVE",
"554 600 CURVE",
"376 600 LINE"
);
}
);
width = 554;
},
{
anchors = (
{
name = top;
position = "{320, 630}";
}
);
background = {
paths = (
{
closed = 1;
nodes = (
"446 0 LINE",
"446 20 OFFCURVE",
"439 27 OFFCURVE",
"419 27 CURVE SMOOTH",
"146 27 LINE",
"146 0 LINE"
);
},
{
closed = 1;
nodes = (
"280 573 LINE",
"280 600 LINE",
"-8 600 LINE",
"-8 573 LINE"
);
},
{
closed = 1;
nodes = (
"405 573 LINE",
"485 573 LINE",
"348 296 LINE",
"190 600 LINE",
"32 600 LINE",
"226 254 LINE",
"226 0 LINE",
"366 0 LINE",
"366 261 LINE",
"504 545 LINE SMOOTH",
"516 569 OFFCURVE",
"532 573 OFFCURVE",
"557 573 CURVE SMOOTH",
"577 573 OFFCURVE",
"584 580 OFFCURVE",
"584 600 CURVE",
"405 600 LINE"
);
}
);
};
layerId = "AA78C373-A874-4B43-A7A1-B39102DDD1E4";
name = Bold;
paths = (
{
closed = 1;
nodes = (
"451 0 LINE",
"451 20 OFFCURVE",
"444 27 OFFCURVE",
"424 27 CURVE SMOOTH",
"141 27 LINE",
"141 0 LINE"
);
},
{
closed = 1;
nodes = (
"278 573 LINE",
"278 600 LINE",
"-2 600 LINE",
"-2 573 LINE"
);
},
{
closed = 1;
nodes = (
"403 573 LINE",
"483 573 LINE",
"340 279 LINE",
"357 279 LINE",
"188 600 LINE",
"30 600 LINE",
"226 254 LINE",
"226 0 LINE",
"366 0 LINE",
"366 261 LINE",
"502 545 LINE SMOOTH",
"514 569 OFFCURVE",
"529 573 OFFCURVE",
"552 573 CURVE SMOOTH",
"572 573 OFFCURVE",
"579 580 OFFCURVE",
"579 600 CURVE",
"403 600 LINE"
);
}
);
width = 579;
}
);
leftKerningGroup = Y;
rightKerningGroup = Y;
unicode = 0059;
},
{
color = 9;
glyphname = Z;
lastChange = "2015-08-25 20:11:33 +0000";
layers = (
{
anchors = (
{
name = top;
position = "{298, 630}";
}
);
background = {
paths = (
{
closed = 1;
nodes = (
"132 26 LINE",
"515 579 LINE",
"419 574 LINE",
"25 20 LINE"
);
},
{
closed = 1;
nodes = (
"518 0 LINE",
"518 26 LINE",
"132 26 LINE",
"25 20 LINE",
"25 0 LINE"
);
},
{
closed = 1;
nodes = (
"520 207 LINE",
"498 207 LINE",
"477 111 LINE SMOOTH",
"467 66 OFFCURVE",
"440 26 OFFCURVE",
"379 26 CURVE",
"518 0 LINE"
);
},
{
closed = 1;
nodes = (
"81 419 LINE",
"120 509 LINE SMOOTH",
"138 550 OFFCURVE",
"164 574 OFFCURVE",
"201 574 CURVE",
"70 600 LINE",
"61 419 LINE"
);
},
{
closed = 1;
nodes = (
"419 574 LINE",
"515 579 LINE",
"515 600 LINE",
"70 600 LINE",
"70 574 LINE"
);
}
);
};
layerId = "C18F3EFD-FA9C-4751-AD2F-5B966120D1A5";
name = Regular;
paths = (
{
closed = 1;
nodes = (
"518 0 LINE",
"520 207 LINE",
"498 207 LINE",
"477 111 LINE SMOOTH",
"467 66 OFFCURVE",
"440 26 OFFCURVE",
"379 26 CURVE SMOOTH",
"132 26 LINE",
"515 579 LINE",
"515 600 LINE",
"70 600 LINE",
"61 419 LINE",
"81 419 LINE",
"120 509 LINE SMOOTH",
"138 550 OFFCURVE",
"164 574 OFFCURVE",
"201 574 CURVE SMOOTH",
"419 574 LINE",
"25 20 LINE",
"25 0 LINE"
);
}
);
width = 550;
},
{
anchors = (
{
name = top;
position = "{311, 630}";
}
);
background = {
paths = (
{
closed = 1;
nodes = (
"171 27 LINE",
"521 578 LINE",
"378 574 LINE",
"20 22 LINE"
);
},
{
closed = 1;
nodes = (
"525 0 LINE",
"525 27 LINE",
"170 27 LINE",
"20 22 LINE",
"20 0 LINE"
);
},
{
closed = 1;
nodes = (
"527 207 LINE",
"496 207 LINE",
"467 111 LINE SMOOTH",
"454 67 OFFCURVE",
"430 27 OFFCURVE",
"369 27 CURVE",
"525 0 LINE"
);
},
{
closed = 1;
nodes = (
"91 419 LINE",
"133 509 LINE SMOOTH",
"152 549 OFFCURVE",
"177 573 OFFCURVE",
"214 573 CURVE",
"70 600 LINE",
"61 419 LINE"
);
},
{
closed = 1;
nodes = (
"378 574 LINE",
"521 578 LINE",
"521 600 LINE",
"68 600 LINE",
"68 573 LINE"
);
}
);
};
layerId = "AA78C373-A874-4B43-A7A1-B39102DDD1E4";
name = Bold;
paths = (
{
closed = 1;
nodes = (
"525 0 LINE",
"527 207 LINE",
"496 207 LINE",
"467 111 LINE SMOOTH",
"454 67 OFFCURVE",
"430 27 OFFCURVE",
"369 27 CURVE SMOOTH",
"171 27 LINE",
"521 578 LINE",
"521 600 LINE",
"68 600 LINE",
"61 419 LINE",
"91 419 LINE",
"133 509 LINE SMOOTH",
"152 549 OFFCURVE",
"177 573 OFFCURVE",
"214 573 CURVE SMOOTH",
"378 574 LINE",
"20 22 LINE",
"20 0 LINE"
);
}
);
width = 552;
}
);
leftKerningGroup = Z;
rightKerningGroup = Z;
unicode = 005A;
},
{
color = 9;
glyphname = P.001;
layers = (
{
background = {
components = (
{
name = vertical_stem_upper;
transform = "{1, 0, 0, 1, 78, 0}";
}
);
paths = (
{
closed = 1;
nodes = (
"324 0 LINE",
"324 26 LINE",
"35 26 LINE",
"35 0 LINE"
);
},
{
closed = 1;
nodes = (
"35 600 LINE",
"35 574 LINE",
"313 574 LINE SMOOTH",
"398 574 OFFCURVE",
"436 513 OFFCURVE",
"436 438 CURVE SMOOTH",
"436 363 OFFCURVE",
"401 294 OFFCURVE",
"316 294 CURVE SMOOTH",
"160 294 LINE",
"160 265 LINE",
"312 265 LINE SMOOTH",
"457 265 OFFCURVE",
"530 349 OFFCURVE",
"530 439 CURVE SMOOTH",
"530 526 OFFCURVE",
"468 600 OFFCURVE",
"334 600 CURVE SMOOTH"
);
}
);
};
components = (
{
name = vertical_stem_upper;
transform = "{1, 0, 0, 1, 78, 0}";
}
);
layerId = "C18F3EFD-FA9C-4751-AD2F-5B966120D1A5";
name = Regular;
paths = (
{
closed = 1;
nodes = (
"35 600 LINE",
"35 574 LINE",
"313 574 LINE SMOOTH",
"398 574 OFFCURVE",
"436 513 OFFCURVE",
"436 438 CURVE SMOOTH",
"436 353 OFFCURVE",
"396 294 OFFCURVE",
"296 294 CURVE SMOOTH",
"160 294 LINE",
"160 265 LINE",
"292 265 LINE SMOOTH",
"447 265 OFFCURVE",
"530 334 OFFCURVE",
"530 439 CURVE SMOOTH",
"530 529 OFFCURVE",
"469 600 OFFCURVE",
"334 600 CURVE SMOOTH"
);
},
{
closed = 1;
nodes = (
"324 0 LINE",
"324 22 OFFCURVE",
"319 26 OFFCURVE",
"299 26 CURVE SMOOTH",
"35 26 LINE",
"35 0 LINE"
);
}
);
width = 555;
},
{
background = {
paths = (
{
closed = 1;
nodes = (
"475 264 OFFCURVE",
"550 352 OFFCURVE",
"550 438 CURVE SMOOTH",
"550 520 OFFCURVE",
"482 600 OFFCURVE",
"352 600 CURVE SMOOTH",
"20 600 LINE",
"20 573 LINE",
"285 573 LINE SMOOTH",
"367 573 OFFCURVE",
"400 503 OFFCURVE",
"400 433 CURVE SMOOTH",
"400 363 OFFCURVE",
"368 294 OFFCURVE",
"293 294 CURVE",
"320 264 LINE"
);
},
{
closed = 1;
nodes = (
"356 0 LINE",
"356 27 LINE",
"20 27 LINE",
"20 0 LINE"
);
},
{
closed = 1;
nodes = (
"320 264 LINE",
"293 294 LINE",
"138 294 LINE",
"138 264 LINE"
);
}
);
};
components = (
{
name = vertical_stem_upper;
transform = "{1, 0, 0, 1, 56, 0}";
}
);
layerId = "AA78C373-A874-4B43-A7A1-B39102DDD1E4";
name = Bold;
paths = (
{
closed = 1;
nodes = (
"20 600 LINE",
"20 573 LINE",
"295 573 LINE SMOOTH",
"377 573 OFFCURVE",
"400 508 OFFCURVE",
"400 433 CURVE SMOOTH",
"400 353 OFFCURVE",
"371 294 OFFCURVE",
"291 294 CURVE SMOOTH",
"138 294 LINE",
"138 264 LINE",
"320 264 LINE SMOOTH",
"483 264 OFFCURVE",
"550 342 OFFCURVE",
"550 442 CURVE SMOOTH",
"550 532 OFFCURVE",
"484 600 OFFCURVE",
"352 600 CURVE SMOOTH"
);
},
{
closed = 1;
nodes = (
"356 0 LINE",
"356 23 OFFCURVE",
"351 27 OFFCURVE",
"332 27 CURVE SMOOTH",
"20 27 LINE",
"20 0 LINE"
);
}
);
width = 565;
}
);
},
{
color = 3;
glyphname = a;
lastChange = "2015-08-26 04:02:20 +0000";
layers = (
{
anchors = (
{
name = ogonek;
position = "{456, 9}";
},
{
name = top;
position = "{241, 500}";
}
);
background = {
paths = (
{
closed = 1;
nodes = (
"217 -10 OFFCURVE",
"281 21 OFFCURVE",
"306 83 CURVE",
"314 17 OFFCURVE",
"345 -10 OFFCURVE",
"391 -10 CURVE SMOOTH",
"449 -10 OFFCURVE",
"474 26 OFFCURVE",
"477 94 CURVE",
"451 95 LINE",
"447 45 OFFCURVE",
"433 21 OFFCURVE",
"412 21 CURVE SMOOTH",
"395 21 OFFCURVE",
"385 40 OFFCURVE",
"385 73 CURVE SMOOTH",
"385 284 LINE SMOOTH",
"385 386 OFFCURVE",
"333 435 OFFCURVE",
"224 435 CURVE SMOOTH",
"113 435 OFFCURVE",
"59 390 OFFCURVE",
"59 349 CURVE SMOOTH",
"59 330 OFFCURVE",
"74 312 OFFCURVE",
"101 312 CURVE SMOOTH",
"163 312 OFFCURVE",
"121 410 OFFCURVE",
"213 410 CURVE SMOOTH",
"274 410 OFFCURVE",
"305 377 OFFCURVE",
"305 307 CURVE SMOOTH",
"305 137 LINE",
"290 68 OFFCURVE",
"235 30 OFFCURVE",
"192 30 CURVE SMOOTH",
"152 30 OFFCURVE",
"119 59 OFFCURVE",
"119 122 CURVE SMOOTH",
"119 205 OFFCURVE",
"189 217 OFFCURVE",
"332 217 CURVE",
"332 244 LINE",
"120 244 OFFCURVE",
"35 205 OFFCURVE",
"35 105 CURVE SMOOTH",
"35 28 OFFCURVE",
"94 -10 OFFCURVE",
"159 -10 CURVE SMOOTH"
);
}
);
};
layerId = "C18F3EFD-FA9C-4751-AD2F-5B966120D1A5";
name = Regular;
paths = (
{
closed = 1;
nodes = (
"229 -10 OFFCURVE",
"299 34 OFFCURVE",
"314 94 CURVE",
"308 94 LINE",
"311 34 OFFCURVE",
"334 -10 OFFCURVE",
"391 -10 CURVE SMOOTH",
"449 -10 OFFCURVE",
"474 26 OFFCURVE",
"477 94 CURVE",
"451 95 LINE",
"447 45 OFFCURVE",
"433 21 OFFCURVE",
"412 21 CURVE SMOOTH",
"395 21 OFFCURVE",
"385 40 OFFCURVE",
"385 73 CURVE SMOOTH",
"385 284 LINE SMOOTH",
"385 386 OFFCURVE",
"333 435 OFFCURVE",
"224 435 CURVE SMOOTH",
"113 435 OFFCURVE",
"62 390 OFFCURVE",
"62 349 CURVE SMOOTH",
"62 330 OFFCURVE",
"74 312 OFFCURVE",
"101 312 CURVE SMOOTH",
"158 312 OFFCURVE",
"116 410 OFFCURVE",
"213 410 CURVE SMOOTH",
"274 410 OFFCURVE",
"310 377 OFFCURVE",
"310 307 CURVE SMOOTH",
"310 137 LINE",
"295 68 OFFCURVE",
"240 30 OFFCURVE",
"192 30 CURVE SMOOTH",
"147 30 OFFCURVE",
"114 59 OFFCURVE",
"114 122 CURVE SMOOTH",
"114 205 OFFCURVE",
"195 217 OFFCURVE",
"318 217 CURVE",
"318 244 LINE",
"131 244 OFFCURVE",
"35 205 OFFCURVE",
"35 105 CURVE SMOOTH",
"35 28 OFFCURVE",
"94 -10 OFFCURVE",
"159 -10 CURVE SMOOTH"
);
}
);
width = 482;
},
{
anchors = (
{
name = ogonek;
position = "{454, 9}";
},
{
name = top;
position = "{247, 500}";
}
);
background = {
paths = (
{
closed = 1;
nodes = (
"208 -10 OFFCURVE",
"263 23 OFFCURVE",
"282 85 CURVE",
"293 18 OFFCURVE",
"336 -10 OFFCURVE",
"388 -10 CURVE SMOOTH",
"469 -10 OFFCURVE",
"483 32 OFFCURVE",
"488 94 CURVE",
"462 95 LINE",
"458 45 OFFCURVE",
"444 24 OFFCURVE",
"427 24 CURVE SMOOTH",
"411 24 OFFCURVE",
"405 42 OFFCURVE",
"405 75 CURVE SMOOTH",
"405 284 LINE SMOOTH",
"405 401 OFFCURVE",
"323 445 OFFCURVE",
"224 445 CURVE SMOOTH",
"105 445 OFFCURVE",
"44 406 OFFCURVE",
"44 354 CURVE SMOOTH",
"44 322 OFFCURVE",
"68 302 OFFCURVE",
"100 302 CURVE SMOOTH",
"196 302 OFFCURVE",
"143 420 OFFCURVE",
"217 420 CURVE SMOOTH",
"258 420 OFFCURVE",
"273 384 OFFCURVE",
"273 312 CURVE SMOOTH",
"273 124 LINE",
"260 74 OFFCURVE",
"228 33 OFFCURVE",
"202 33 CURVE SMOOTH",
"173 33 OFFCURVE",
"155 61 OFFCURVE",
"155 122 CURVE SMOOTH",
"155 189 OFFCURVE",
"189 220 OFFCURVE",
"293 220 CURVE",
"293 247 LINE",
"109 247 OFFCURVE",
"20 201 OFFCURVE",
"20 111 CURVE SMOOTH",
"20 30 OFFCURVE",
"74 -10 OFFCURVE",
"149 -10 CURVE SMOOTH"
);
}
);
};
layerId = "AA78C373-A874-4B43-A7A1-B39102DDD1E4";
name = Bold;
paths = (
{
closed = 1;
nodes = (
"215 -10 OFFCURVE",
"270 25 OFFCURVE",
"289 87 CURVE",
"286 87 LINE",
"295 25 OFFCURVE",
"328 -10 OFFCURVE",
"388 -10 CURVE SMOOTH",
"469 -10 OFFCURVE",
"483 32 OFFCURVE",
"488 94 CURVE",
"462 95 LINE",
"458 45 OFFCURVE",
"444 25 OFFCURVE",
"427 25 CURVE SMOOTH",
"411 25 OFFCURVE",
"405 42 OFFCURVE",
"405 75 CURVE SMOOTH",
"405 284 LINE SMOOTH",
"405 401 OFFCURVE",
"323 445 OFFCURVE",
"224 445 CURVE SMOOTH",
"105 445 OFFCURVE",
"44 406 OFFCURVE",
"44 354 CURVE SMOOTH",
"44 322 OFFCURVE",
"68 302 OFFCURVE",
"100 302 CURVE SMOOTH",
"191 302 OFFCURVE",
"138 419 OFFCURVE",
"217 419 CURVE SMOOTH",
"263 419 OFFCURVE",
"278 384 OFFCURVE",
"278 312 CURVE SMOOTH",
"278 122 LINE",
"262 64 OFFCURVE",
"230 33 OFFCURVE",
"201 33 CURVE SMOOTH",
"169 33 OFFCURVE",
"150 61 OFFCURVE",
"150 122 CURVE SMOOTH",
"150 189 OFFCURVE",
"184 219 OFFCURVE",
"293 219 CURVE",
"293 247 LINE",
"109 247 OFFCURVE",
"20 201 OFFCURVE",
"20 111 CURVE SMOOTH",
"20 30 OFFCURVE",
"74 -10 OFFCURVE",
"149 -10 CURVE SMOOTH"
);
}
);
width = 493;
}
);
leftKerningGroup = a;
rightKerningGroup = a;
unicode = 0061;
},
{
color = 1;
glyphname = ae;
lastChange = "2015-07-31 10:24:40 +0000";
layers = (
{
anchors = (
{
name = top;
position = "{375, 500}";
}
);
layerId = "C18F3EFD-FA9C-4751-AD2F-5B966120D1A5";
name = Regular;
paths = (
{
closed = 1;
nodes = (
"392 355 OFFCURVE",
"448 410 OFFCURVE",
"516 410 CURVE SMOOTH",
"584 410 OFFCURVE",
"617 362 OFFCURVE",
"617 310 CURVE SMOOTH",
"617 254 OFFCURVE",
"579 243 OFFCURVE",
"498 245 CURVE SMOOTH",
"352 249 LINE",
"352 221 LINE",
"512 218 LINE SMOOTH",
"623 216 OFFCURVE",
"696 223 OFFCURVE",
"696 298 CURVE SMOOTH",
"696 376 OFFCURVE",
"616 435 OFFCURVE",
"514 435 CURVE SMOOTH",
"381 435 OFFCURVE",
"318 324 OFFCURVE",
"318 209 CURVE SMOOTH",
"318 68 OFFCURVE",
"390 -10 OFFCURVE",
"517 -10 CURVE SMOOTH",
"600 -10 OFFCURVE",
"664 29 OFFCURVE",
"691 100 CURVE",
"665 105 LINE",
"639 49 OFFCURVE",
"590 18 OFFCURVE",
"533 18 CURVE SMOOTH",
"449 18 OFFCURVE",
"392 84 OFFCURVE",
"392 233 CURVE SMOOTH"
);
},
{
closed = 1;
nodes = (
"252 -10 OFFCURVE",
"320 58 OFFCURVE",
"335 118 CURVE",
"385 136 LINE",
"385 284 LINE SMOOTH",
"385 386 OFFCURVE",
"336 435 OFFCURVE",
"227 435 CURVE SMOOTH",
"113 435 OFFCURVE",
"62 390 OFFCURVE",
"62 349 CURVE SMOOTH",
"62 330 OFFCURVE",
"74 312 OFFCURVE",
"101 312 CURVE SMOOTH",
"158 312 OFFCURVE",
"116 410 OFFCURVE",
"216 410 CURVE SMOOTH",
"277 410 OFFCURVE",
"316 377 OFFCURVE",
"316 307 CURVE SMOOTH",
"316 137 LINE",
"301 68 OFFCURVE",
"243 30 OFFCURVE",
"195 30 CURVE SMOOTH",
"147 30 OFFCURVE",
"114 59 OFFCURVE",
"114 122 CURVE SMOOTH",
"114 205 OFFCURVE",
"198 217 OFFCURVE",
"324 217 CURVE",
"324 244 LINE",
"131 244 OFFCURVE",
"35 205 OFFCURVE",
"35 105 CURVE SMOOTH",
"35 28 OFFCURVE",
"94 -10 OFFCURVE",
"162 -10 CURVE SMOOTH"
);
}
);
width = 731;
},
{
anchors = (
{
name = top;
position = "{360, 500}";
}
);
background = {
paths = (
{
closed = 1;
nodes = (
"213 -10 OFFCURVE",
"270 27 OFFCURVE",
"289 89 CURVE",
"402 111 LINE",
"402 284 LINE SMOOTH",
"402 401 OFFCURVE",
"313 445 OFFCURVE",
"224 445 CURVE SMOOTH",
"105 445 OFFCURVE",
"44 406 OFFCURVE",
"44 354 CURVE SMOOTH",
"44 322 OFFCURVE",
"68 302 OFFCURVE",
"100 302 CURVE SMOOTH",
"191 302 OFFCURVE",
"138 420 OFFCURVE",
"217 420 CURVE SMOOTH",
"263 420 OFFCURVE",
"278 384 OFFCURVE",
"278 312 CURVE SMOOTH",
"278 122 LINE",
"262 64 OFFCURVE",
"230 33 OFFCURVE",
"201 33 CURVE SMOOTH",
"169 33 OFFCURVE",
"150 61 OFFCURVE",
"150 122 CURVE SMOOTH",
"150 189 OFFCURVE",
"184 220 OFFCURVE",
"293 220 CURVE",
"293 247 LINE",
"109 247 OFFCURVE",
"20 201 OFFCURVE",
"20 111 CURVE SMOOTH",
"20 30 OFFCURVE",
"74 -10 OFFCURVE",
"149 -10 CURVE SMOOTH"
);
}
);
};
layerId = "AA78C373-A874-4B43-A7A1-B39102DDD1E4";
name = Bold;
paths = (
{
closed = 1;
nodes = (
"401 368 OFFCURVE",
"427 420 OFFCURVE",
"484 420 CURVE SMOOTH",
"543 420 OFFCURVE",
"551 374 OFFCURVE",
"551 310 CURVE SMOOTH",
"551 258 OFFCURVE",
"533 244 OFFCURVE",
"465 247 CURVE SMOOTH",
"389 250 LINE",
"387 223 LINE",
"493 220 LINE SMOOTH",
"631 216 OFFCURVE",
"684 240 OFFCURVE",
"684 300 CURVE SMOOTH",
"684 393 OFFCURVE",
"596 445 OFFCURVE",
"490 445 CURVE SMOOTH",
"379 445 OFFCURVE",
"279 370 OFFCURVE",
"279 219 CURVE SMOOTH",
"279 59 OFFCURVE",
"352 -10 OFFCURVE",
"491 -10 CURVE SMOOTH",
"577 -10 OFFCURVE",
"647 27 OFFCURVE",
"674 106 CURVE",
"649 111 LINE",
"627 63 OFFCURVE",
"577 19 OFFCURVE",
"514 19 CURVE SMOOTH",
"442 19 OFFCURVE",
"401 76 OFFCURVE",
"401 236 CURVE SMOOTH"
);
},
{
closed = 1;
nodes = (
"213 -10 OFFCURVE",
"285 29 OFFCURVE",
"303 122 CURVE",
"402 111 LINE",
"402 284 LINE SMOOTH",
"402 401 OFFCURVE",
"310 445 OFFCURVE",
"221 445 CURVE SMOOTH",
"99 445 OFFCURVE",
"38 406 OFFCURVE",
"38 354 CURVE SMOOTH",
"38 322 OFFCURVE",
"62 302 OFFCURVE",
"94 302 CURVE SMOOTH",
"182 302 OFFCURVE",
"132 420 OFFCURVE",
"214 420 CURVE SMOOTH",
"260 420 OFFCURVE",
"278 384 OFFCURVE",
"278 312 CURVE SMOOTH",
"278 122 LINE",
"262 64 OFFCURVE",
"227 33 OFFCURVE",
"198 33 CURVE SMOOTH",
"163 33 OFFCURVE",
"144 61 OFFCURVE",
"144 122 CURVE SMOOTH",
"144 189 OFFCURVE",
"181 220 OFFCURVE",
"293 220 CURVE",
"293 247 LINE",
"103 247 OFFCURVE",
"14 201 OFFCURVE",
"14 111 CURVE SMOOTH",
"14 30 OFFCURVE",
"68 -10 OFFCURVE",
"143 -10 CURVE SMOOTH"
);
}
);
width = 710;
}
);
leftMetricsKey = a;
rightMetricsKey = e;
unicode = 00E6;
},
{
color = 3;
glyphname = b;
lastChange = "2015-08-26 04:31:20 +0000";
layers = (
{
background = {
paths = (
{
closed = 1;
nodes = (
"171 100 LINE",
"151 100 LINE",
"174 27 OFFCURVE",
"238 -10 OFFCURVE",
"306 -10 CURVE SMOOTH",
"404 -10 OFFCURVE",
"510 66 OFFCURVE",
"510 217 CURVE SMOOTH",
"510 324 OFFCURVE",
"458 435 OFFCURVE",
"340 435 CURVE SMOOTH",
"273 435 OFFCURVE",
"210 402 OFFCURVE",
"181 316 CURVE",
"181 329 LINE",
"181 650 LINE",
"25 650 LINE",
"25 624 LINE",
"101 624 LINE",
"101 78 LINE SMOOTH",
"101 33 OFFCURVE",
"74 26 OFFCURVE",
"25 26 CURVE",
"25 0 LINE",
"165 0 LINE"
);
},
{
closed = 1;
nodes = (
"180 308 OFFCURVE",
"228 395 OFFCURVE",
"306 395 CURVE SMOOTH",
"384 395 OFFCURVE",
"420 321 OFFCURVE",
"420 209 CURVE SMOOTH",
"420 78 OFFCURVE",
"366 15 OFFCURVE",
"293 15 CURVE SMOOTH",
"232 15 OFFCURVE",
"180 75 OFFCURVE",
"180 189 CURVE SMOOTH"
);
}
);
};
layerId = "C18F3EFD-FA9C-4751-AD2F-5B966120D1A5";
name = Regular;
paths = (
{
closed = 1;
nodes = (
"166 100 LINE",
"146 100 LINE",
"169 27 OFFCURVE",
"235 -10 OFFCURVE",
"306 -10 CURVE SMOOTH",
"404 -10 OFFCURVE",
"510 66 OFFCURVE",
"510 218 CURVE SMOOTH",
"510 324 OFFCURVE",
"458 435 OFFCURVE",
"339 435 CURVE SMOOTH",
"270 435 OFFCURVE",
"198 401 OFFCURVE",
"169 297 CURVE",
"176 297 LINE",
"176 650 LINE",
"26 650 LINE",
"26 625 LINE",
"101 625 LINE",
"101 85 LINE SMOOTH",
"101 30 OFFCURVE",
"81 25 OFFCURVE",
"26 25 CURVE",
"26 0 LINE",
"152 0 LINE"
);
},
{
closed = 1;
nodes = (
"175 308 OFFCURVE",
"225 395 OFFCURVE",
"308 395 CURVE SMOOTH",
"385 395 OFFCURVE",
"425 322 OFFCURVE",
"425 211 CURVE SMOOTH",
"425 78 OFFCURVE",
"368 15 OFFCURVE",
"296 15 CURVE SMOOTH",
"226 15 OFFCURVE",
"175 75 OFFCURVE",
"175 192 CURVE SMOOTH"
);
}
);
width = 550;
},
{
background = {
paths = (
{
closed = 1;
nodes = (
"184 93 LINE",
"168 93 LINE",
"201 22 OFFCURVE",
"258 -10 OFFCURVE",
"323 -10 CURVE SMOOTH",
"426 -10 OFFCURVE",
"528 70 OFFCURVE",
"528 229 CURVE SMOOTH",
"528 370 OFFCURVE",
"447 445 OFFCURVE",
"354 445 CURVE SMOOTH",
"287 445 OFFCURVE",
"227 407 OFFCURVE",
"191 314 CURVE",
"204 314 LINE",
"204 650 LINE",
"15 650 LINE",
"15 625 LINE",
"72 625 LINE",
"72 78 LINE SMOOTH",
"72 38 OFFCURVE",
"55 26 OFFCURVE",
"15 26 CURVE",
"15 0 LINE",
"173 0 LINE"
);
},
{
closed = 1;
nodes = (
"204 316 OFFCURVE",
"244 397 OFFCURVE",
"305 397 CURVE SMOOTH",
"360 397 OFFCURVE",
"386 331 OFFCURVE",
"386 215 CURVE SMOOTH",
"386 88 OFFCURVE",
"355 17 OFFCURVE",
"298 17 CURVE SMOOTH",
"249 17 OFFCURVE",
"204 68 OFFCURVE",
"204 196 CURVE SMOOTH"
);
}
);
};
layerId = "AA78C373-A874-4B43-A7A1-B39102DDD1E4";
name = Bold;
paths = (
{
closed = 1;
nodes = (
"179 93 LINE",
"163 93 LINE",
"197 24 OFFCURVE",
"253 -10 OFFCURVE",
"319 -10 CURVE SMOOTH",
"426 -10 OFFCURVE",
"528 70 OFFCURVE",
"528 229 CURVE SMOOTH",
"528 370 OFFCURVE",
"447 445 OFFCURVE",
"354 445 CURVE SMOOTH",
"285 445 OFFCURVE",
"222 407 OFFCURVE",
"186 314 CURVE",
"199 314 LINE",
"199 650 LINE",
"15 650 LINE",
"15 623 LINE",
"72 623 LINE",
"72 79 LINE SMOOTH",
"72 39 OFFCURVE",
"55 27 OFFCURVE",
"15 27 CURVE",
"15 0 LINE",
"168 0 LINE"
);
},
{
closed = 1;
nodes = (
"199 316 OFFCURVE",
"239 397 OFFCURVE",
"305 397 CURVE SMOOTH",
"365 397 OFFCURVE",
"391 331 OFFCURVE",
"391 215 CURVE SMOOTH",
"391 88 OFFCURVE",
"360 17 OFFCURVE",
"298 17 CURVE SMOOTH",
"244 17 OFFCURVE",
"199 68 OFFCURVE",
"199 196 CURVE SMOOTH"
);
}
);
width = 556;
}
);
unicode = 0062;
},
{
color = 1;
glyphname = c;
lastChange = "2015-08-26 04:02:25 +0000";
layers = (
{
anchors = (
{
name = bottom;
position = "{230, 0}";
},
{
name = top;
position = "{245, 500}";
}
);
background = {
paths = (
{
closed = 1;
nodes = (
"163 15 OFFCURVE",
"130 100 OFFCURVE",
"130 216 CURVE SMOOTH",
"130 335 OFFCURVE",
"163 415 OFFCURVE",
"256 415 CURVE SMOOTH",
"352 415 OFFCURVE",
"383 335 OFFCURVE",
"383 220 CURVE SMOOTH",
"383 102 OFFCURVE",
"352 15 OFFCURVE",
"259 15 CURVE SMOOTH"
);
},
{
closed = 1;
nodes = (
"473 366 OFFCURVE",
"366 440 OFFCURVE",
"259 440 CURVE SMOOTH",
"151 440 OFFCURVE",
"40 364 OFFCURVE",
"40 220 CURVE SMOOTH",
"40 71 OFFCURVE",
"148 -10 OFFCURVE",
"256 -10 CURVE SMOOTH",
"364 -10 OFFCURVE",
"473 72 OFFCURVE",
"473 216 CURVE SMOOTH"
);
},
{
closed = 1;
nodes = (
"104 435 OFFCURVE",
"40 326 OFFCURVE",
"40 208 CURVE SMOOTH",
"40 69 OFFCURVE",
"138 -10 OFFCURVE",
"254 -10 CURVE SMOOTH",
"335 -10 OFFCURVE",
"403 29 OFFCURVE",
"431 100 CURVE",
"405 106 LINE",
"379 50 OFFCURVE",
"328 17 OFFCURVE",
"266 17 CURVE SMOOTH",
"189 17 OFFCURVE",
"125 93 OFFCURVE",
"125 217 CURVE SMOOTH",
"125 327 OFFCURVE",
"168 410 OFFCURVE",
"258 410 CURVE SMOOTH",
"369 410 OFFCURVE",
"292 293 OFFCURVE",
"372 287 CURVE SMOOTH",
"401 285 OFFCURVE",
"417 305 OFFCURVE",
"417 328 CURVE SMOOTH",
"417 388 OFFCURVE",
"334 435 OFFCURVE",
"252 435 CURVE SMOOTH"
);
}
);
};
guideLines = (
{
angle = 90;
position = "{419, 213}";
}
);
layerId = "C18F3EFD-FA9C-4751-AD2F-5B966120D1A5";
name = Regular;
paths = (
{
closed = 1;
nodes = (
"104 435 OFFCURVE",
"40 326 OFFCURVE",
"40 208 CURVE SMOOTH",
"40 69 OFFCURVE",
"138 -10 OFFCURVE",
"254 -10 CURVE SMOOTH",
"334 -10 OFFCURVE",
"401 28 OFFCURVE",
"430 97 CURVE",
"404 106 LINE",
"378 50 OFFCURVE",
"328 18 OFFCURVE",
"266 18 CURVE SMOOTH",
"189 18 OFFCURVE",
"125 93 OFFCURVE",
"125 217 CURVE SMOOTH",
"125 327 OFFCURVE",
"168 410 OFFCURVE",
"258 410 CURVE SMOOTH",
"369 410 OFFCURVE",
"292 293 OFFCURVE",
"372 287 CURVE SMOOTH",
"401 285 OFFCURVE",
"417 305 OFFCURVE",
"417 328 CURVE SMOOTH",
"417 388 OFFCURVE",
"334 435 OFFCURVE",
"252 435 CURVE SMOOTH"
);
}
);
width = 435;
},
{
anchors = (
{
name = bottom;
position = "{248, 0}";
},
{
name = top;
position = "{250, 500}";
}
);
background = {
anchors = (
{
name = bottom;
position = "{248, 0}";
},
{
name = top;
position = "{250, 500}";
}
);
paths = (
{
closed = 1;
nodes = (
"149 445 OFFCURVE",
"30 375 OFFCURVE",
"30 216 CURVE SMOOTH",
"30 60 OFFCURVE",
"134 -10 OFFCURVE",
"260 -10 CURVE SMOOTH",
"343 -10 OFFCURVE",
"422 25 OFFCURVE",
"449 101 CURVE",
"424 108 LINE",
"401 61 OFFCURVE",
"345 18 OFFCURVE",
"276 18 CURVE SMOOTH",
"213 18 OFFCURVE",
"172 56 OFFCURVE",
"172 211 CURVE SMOOTH",
"172 367 OFFCURVE",
"201 420 OFFCURVE",
"258 420 CURVE SMOOTH",
"354 420 OFFCURVE",
"269 283 OFFCURVE",
"379 283 CURVE SMOOTH",
"422 283 OFFCURVE",
"444 308 OFFCURVE",
"444 337 CURVE SMOOTH",
"444 384 OFFCURVE",
"384 445 OFFCURVE",
"261 445 CURVE SMOOTH"
);
}
);
};
guideLines = (
{
angle = 90;
position = "{441, 213}";
}
);
layerId = "AA78C373-A874-4B43-A7A1-B39102DDD1E4";
name = Bold;
paths = (
{
closed = 1;
nodes = (
"149 445 OFFCURVE",
"30 375 OFFCURVE",
"30 216 CURVE SMOOTH",
"30 60 OFFCURVE",
"134 -10 OFFCURVE",
"260 -10 CURVE SMOOTH",
"343 -10 OFFCURVE",
"422 27 OFFCURVE",
"449 101 CURVE",
"423 108 LINE",
"400 58 OFFCURVE",
"345 19 OFFCURVE",
"276 19 CURVE SMOOTH",
"208 19 OFFCURVE",
"167 56 OFFCURVE",
"167 211 CURVE SMOOTH",
"167 367 OFFCURVE",
"196 420 OFFCURVE",
"258 420 CURVE SMOOTH",
"359 420 OFFCURVE",
"274 283 OFFCURVE",
"379 283 CURVE SMOOTH",
"422 283 OFFCURVE",
"444 308 OFFCURVE",
"444 337 CURVE SMOOTH",
"444 384 OFFCURVE",
"384 445 OFFCURVE",
"261 445 CURVE SMOOTH"
);
}
);
width = 454;
}
);
leftKerningGroup = c;
rightKerningGroup = c;
unicode = 0063;
},
